<?xml version="1.0" standalone="no"?>
<!DOCTYPE svg PUBLIC "-//W3C//DTD SVG 20010904//EN"
 "http://www.w3.org/TR/2001/REC-SVG-20010904/DTD/svg10.dtd">
<svg version="1.0" xmlns="http://www.w3.org/2000/svg"
 width="400.000000pt" height="400.000000pt" viewBox="0 0 400.000000 400.000000"
 preserveAspectRatio="xMidYMid meet">
<metadata>
Created by potrace 1.15, written by Peter Selinger 2001-2017
</metadata>
<g transform="translate(0.000000,400.000000) scale(0.100000,-0.100000)"
fill="#ffffff" fill-opacity="0.25" stroke="none">
<path d="M1232 3542 l-333 -197 -154 -205 c-84 -112 -151 -208 -149 -212 8
-13 61 -9 73 6 7 8 34 16 60 18 l48 3 9 -88 c9 -84 8 -88 -11 -92 -11 -2 -81
-17 -155 -34 -96 -22 -160 -31 -222 -31 l-87 0 -6 -34 c-6 -30 -14 -36 -79
-65 -82 -36 -226 -125 -226 -140 0 -6 31 10 69 34 70 45 212 118 218 111 3 -2
-68 -241 -84 -282 -4 -10 3 -14 21 -14 l26 0 0 -180 0 -180 149 0 149 0 -4
-47 c-1 -27 -1 -38 2 -27 3 12 14 30 25 40 15 14 22 15 32 5 6 -7 8 -11 2 -9
-5 2 -10 -1 -10 -7 0 -5 5 -9 11 -7 12 3 26 -36 18 -50 -3 -4 -20 -8 -37 -9
l-32 -1 30 -13 c19 -8 37 -10 52 -4 20 7 23 4 33 -29 5 -20 10 -43 10 -50 0
-7 4 -10 10 -7 5 3 10 15 10 26 0 11 7 19 16 19 12 0 15 -6 10 -22 -3 -13 -6
-31 -6 -42 0 -12 -5 -16 -15 -12 -8 3 -15 1 -15 -4 0 -5 11 -12 25 -16 14 -3
25 -10 25 -15 0 -14 50 -11 51 4 1 6 1 31 -1 55 -2 46 4 50 59 31 17 -6 31
-18 32 -27 0 -10 5 -5 11 11 13 36 37 36 30 0 -2 -16 -11 -33 -19 -40 -12 -9
-9 -14 21 -28 54 -26 64 -17 68 60 l3 66 -55 -8 c-76 -10 -85 -9 -167 13 -78
22 -96 37 -139 122 -13 26 -24 48 -24 49 0 1 13 8 30 16 20 10 32 12 36 5 4
-6 25 -8 53 -4 64 10 66 10 159 8 81 -2 85 -3 118 -36 38 -38 44 -70 14 -86
-16 -9 -18 -15 -10 -36 6 -14 7 -30 4 -36 -5 -7 -2 -8 5 -3 7 4 11 18 8 31 -3
15 0 24 8 24 15 0 25 22 25 56 l0 24 408 1 c224 1 495 5 602 9 190 6 187 6
-150 10 -190 1 -336 5 -325 7 11 2 108 7 215 12 l195 8 -189 1 c-104 1 -187 4
-185 7 3 2 87 5 187 6 l182 1 0 354 0 353 -92 4 -93 3 98 2 97 2 0 -98 c0 -54
3 -215 8 -358 l7 -259 5 175 6 175 4 -190 4 -190 6 160 c4 88 8 267 9 398 l1
237 -470 0 -470 0 -2 -402 -3 -403 -28 -3 c-20 -2 -38 5 -63 27 -29 26 -43 31
-88 31 l-53 0 -6 48 c-4 26 -20 201 -38 390 l-31 343 78 107 c43 59 98 135
123 170 42 59 65 76 308 233 l262 169 255 -158 256 -158 73 -99 c40 -55 101
-139 136 -187 l63 -87 -27 -320 c-15 -175 -25 -329 -23 -342 2 -13 9 41 17
121 8 80 16 149 18 153 3 4 11 3 19 -4 11 -9 14 -40 14 -131 0 -105 -3 -123
-20 -145 -28 -36 -26 -78 5 -109 21 -21 23 -29 14 -40 -14 -17 -41 -18 -57 -2
-7 7 -13 39 -14 72 l-1 61 -6 -65 c-5 -50 -3 -68 8 -77 21 -18 51 -16 74 5 10
9 46 22 79 28 55 10 60 9 74 -10 8 -11 14 -25 14 -31 0 -6 16 -37 35 -69 19
-32 35 -71 35 -86 0 -15 3 -42 6 -60 6 -26 11 -31 30 -27 16 3 24 -2 28 -16 3
-13 10 -18 21 -13 9 3 27 6 40 6 22 0 24 5 27 58 l3 57 40 3 c54 4 135 -31
135 -58 0 -15 7 -20 25 -20 14 0 25 -4 25 -10 0 -5 20 -10 45 -10 25 0 45 3
45 8 0 4 -17 6 -38 4 l-39 -4 -7 63 c-6 61 -23 98 -33 72 -3 -9 -32 -13 -98
-13 l-92 0 -8 53 c-6 47 -8 50 -17 27 -6 -14 -8 -64 -4 -117 l5 -93 -24 0
c-21 0 -25 5 -25 30 0 52 -21 134 -31 119 -15 -24 -41 2 -85 85 -46 88 -57 98
-96 90 -23 -4 -27 -3 -22 10 6 15 -29 84 -50 98 -5 3 2 20 17 38 15 17 27 36
27 41 0 5 9 4 20 -3 16 -10 24 -10 40 0 26 16 31 15 24 -3 -4 -8 0 -23 7 -32
12 -15 11 -16 -8 -11 -29 8 -31 -17 -4 -32 16 -8 23 -6 33 7 12 16 33 18 208
18 310 -1 314 -4 307 -265 -4 -156 -3 -161 9 -100 7 36 13 78 14 94 l0 29 23
-20 c32 -30 97 -35 97 -8 0 10 -10 15 -29 15 -36 0 -40 10 -33 87 4 48 1 68
-12 87 -9 14 -16 28 -16 31 0 3 29 5 65 5 l65 0 0 -68 c0 -54 4 -72 18 -85 21
-19 50 -22 72 -7 11 8 9 9 -11 5 -52 -12 -56 4 -58 224 -2 190 -1 200 18 210
25 14 27 14 45 -5 13 -12 16 -42 17 -152 0 -75 4 -155 8 -177 l9 -40 1 48 1
47 65 0 65 0 0 -68 c0 -54 4 -72 18 -85 21 -19 50 -22 72 -7 11 8 9 9 -11 5
-17 -4 -32 -1 -43 10 -14 14 -16 44 -16 215 0 187 1 200 19 210 43 22 48 8 55
-163 4 -89 11 -166 16 -171 7 -7 10 2 10 22 l0 32 64 0 c62 0 63 0 58 -25 -7
-37 7 -113 24 -130 22 -22 58 -18 80 8 19 22 19 22 -2 5 -24 -21 -48 -23 -61
-5 -12 14 -24 299 -16 370 4 33 12 51 25 58 37 20 48 -4 49 -115 1 -55 5 -132
8 -171 7 -66 7 -68 15 -32 8 37 9 37 57 37 37 0 49 4 49 15 0 11 -12 15 -50
15 l-50 0 0 40 0 40 53 2 52 2 -47 3 -48 4 0 47 c-1 61 -15 123 -32 133 -22
15 -64 10 -81 -9 -13 -14 -17 -38 -17 -95 l0 -77 -60 0 -60 0 0 66 c0 91 -19
124 -71 124 -45 0 -59 -27 -59 -114 0 -76 -1 -78 -22 -72 -13 3 -40 6 -60 6
l-38 0 0 68 c0 84 -16 112 -65 112 -50 0 -68 -32 -63 -112 l3 -63 -62 -3 -63
-3 0 68 c0 85 -16 113 -65 113 -52 0 -68 -30 -59 -114 l7 -66 -67 0 -66 0 0
68 c0 83 -16 112 -64 112 -50 0 -60 -20 -57 -106 l2 -74 -66 0 -65 0 0 73 c0
82 -15 107 -63 107 -44 0 -57 -23 -57 -105 l0 -73 -65 0 -65 -1 0 73 c0 58 -4
76 -18 89 -10 10 -24 17 -30 17 -7 0 -12 8 -12 18 1 38 28 273 32 278 11 10
534 -77 770 -129 66 -15 112 -20 122 -15 8 5 61 27 116 49 152 60 335 103 563
134 33 4 47 11 47 22 0 20 -69 13 -270 -27 -156 -31 -293 -73 -405 -124 l-70
-32 -105 23 c-129 27 -541 97 -670 114 l-95 12 9 92 10 93 40 5 c30 3 46 -1
62 -15 22 -19 59 -24 69 -9 3 6 -70 102 -162 214 -125 151 -181 211 -218 234
-406 245 -605 363 -616 363 -8 0 -164 -89 -347 -198z m573 36 c116 -68 260
-153 320 -188 109 -63 111 -65 268 -247 86 -100 160 -189 163 -198 10 -26 -34
-18 -52 10 -13 19 -21 23 -45 18 -56 -11 -74 3 -186 143 l-108 136 -285 171
c-156 94 -292 171 -300 171 -8 1 -146 -77 -305 -173 l-290 -173 -94 -130 c-52
-72 -105 -137 -117 -145 -12 -8 -37 -13 -54 -11 l-32 3 126 164 c69 90 134
170 144 176 43 30 613 355 622 355 5 0 40 -19 77 -41 38 -23 176 -105 308
-182 183 -106 249 -150 280 -186 81 -93 105 -114 44 -37 -35 43 -77 89 -94
102 -16 12 -162 102 -322 199 l-293 176 -321 -192 -321 -193 -141 -183 c-133
-172 -160 -202 -171 -185 -2 4 63 93 144 197 l149 190 328 192 c180 106 333
191 338 189 6 -2 105 -60 220 -128z m62 -176 l282 -167 111 -133 c109 -132
110 -133 110 -186 0 -29 -3 -55 -6 -59 -4 -3 -62 70 -131 163 l-125 170 -258
155 c-142 85 -263 155 -269 155 -12 0 -496 -314 -529 -344 -13 -12 -72 -85
-130 -164 l-107 -143 -8 64 -9 64 100 129 101 129 283 166 c156 92 288 167
293 168 6 0 137 -75 292 -167z m-501 -669 l-199 -3 4 -355 4 -355 175 -1 c96
0 184 -4 195 -9 12 -5 -59 -9 -181 -9 l-201 -1 -6 152 c-9 191 -9 467 -1 536
l7 52 201 -2 201 -3 -199 -2z m245 -275 c1 -156 3 -322 5 -370 4 -86 3 -88
-19 -88 l-22 0 -3 370 c-3 367 -3 370 18 370 20 0 20 -5 21 -282z m-51 -50 c0
-166 -1 -300 -3 -297 -3 2 -39 60 -82 129 l-78 125 73 140 c40 77 68 136 63
130 -17 -16 -153 -255 -153 -268 0 -6 39 -76 86 -155 47 -78 84 -149 82 -158
-2 -8 -43 53 -93 136 -49 82 -92 150 -95 150 -3 0 -41 -66 -84 -147 -44 -80
-82 -141 -84 -135 -2 6 31 79 73 161 l77 148 -77 147 c-44 84 -75 155 -73 167
2 15 27 -24 83 -129 43 -84 83 -152 87 -152 4 0 22 28 39 63 77 154 132 247
144 247 11 0 14 -54 15 -302z m398 294 c-1 -5 -36 -68 -77 -141 l-73 -133 -32
59 c-18 32 -51 93 -73 135 l-42 77 47 4 c95 7 254 7 250 -1z m32 -17 c0 -14
-38 -93 -85 -174 l-86 -149 81 -147 c45 -80 80 -151 78 -157 -2 -6 -41 56 -87
137 -74 130 -84 145 -95 128 -7 -10 -46 -79 -87 -153 -49 -90 -75 -128 -77
-114 -2 11 33 84 76 163 l79 143 -79 143 c-57 104 -79 151 -76 172 2 23 17 1
87 -131 69 -132 86 -157 95 -144 7 9 45 82 86 162 41 80 78 146 83 146 4 0 7
-11 7 -25z m-510 -42 c-90 -161 -114 -203 -119 -203 -4 0 -36 59 -73 130 l-67
130 146 0 145 0 -32 -57z m-673 33 c2 -1 7 -61 13 -132 5 -71 12 -147 14 -169
l5 -40 -313 0 -312 0 27 85 c15 47 41 126 58 175 l31 90 237 -3 c131 -2 239
-4 240 -6z m1181 -246 c0 -85 -3 -188 -7 -228 l-6 -72 -67 116 -67 117 67 127
c48 91 69 123 74 112 4 -10 6 -87 6 -172z m-723 56 l66 -118 -40 -77 c-22 -42
-53 -101 -70 -131 l-31 -55 0 254 c0 140 2 252 4 250 3 -2 34 -58 71 -123z
m439 1 c36 -63 66 -119 66 -126 0 -12 -129 -241 -136 -241 -3 0 -1 480 3 480
1 0 31 -51 67 -113z m914 -79 c8 -8 12 -48 12 -115 0 -90 -2 -103 -17 -103
-23 0 -53 29 -47 45 3 7 1 16 -5 20 -6 3 -11 32 -11 63 0 80 34 124 68 90z
m243 2 c17 -10 19 -22 19 -110 l0 -100 -40 0 -40 0 0 94 c0 73 4 98 16 110 18
19 20 19 45 6z m253 -6 c13 -12 16 -41 16 -145 0 -71 -2 -129 -6 -129 -3 0
-21 12 -40 28 l-34 27 0 102 c0 79 3 105 16 117 8 9 19 16 24 16 5 0 16 -7 24
-16z m-2696 -91 l-48 -4 0 -126 0 -126 82 7 c44 4 84 9 88 11 4 2 10 55 14
117 4 71 11 115 19 120 7 4 69 8 138 8 l126 0 7 -82 c3 -46 9 -111 12 -146 l6
-63 -38 1 c-22 1 -59 -4 -83 -10 -31 -8 -47 -8 -57 1 -7 6 -23 8 -36 4 -41
-12 -78 -30 -78 -37 0 -5 -67 -8 -149 -8 l-148 0 -7 31 c-3 17 -6 94 -6 170
l0 139 103 -2 c56 -1 81 -3 55 -5z m1027 -153 l74 -125 -151 -3 c-83 -1 -153
-1 -155 2 -7 6 141 256 150 253 4 -1 41 -58 82 -127z m438 -2 l66 -118 -145 0
-146 0 22 38 c13 20 45 77 73 125 27 48 53 84 57 80 4 -4 37 -61 73 -125z"/>
<path d="M600 2184 l0 -127 82 7 c46 4 86 10 89 14 4 4 10 58 14 120 l7 112
-96 0 -96 0 0 -126z"/>
<path d="M1333 3293 c4 -3 69 -9 144 -13 l138 -7 -152 -1 -153 -2 -2 -202 -2
-203 -6 195 c-6 235 -20 207 -20 -41 l0 -169 293 3 292 4 3 222 2 221 -271 0
c-150 0 -269 -3 -266 -7z m35 -54 c-8 -6 0 -9 25 -9 l37 0 0 -156 0 -155 -35
3 -36 3 -3 95 c-2 52 -4 124 -5 159 -2 102 -12 64 -20 -76 l-8 -128 -2 96 c0
53 2 116 5 141 6 41 8 44 31 40 18 -3 21 -7 11 -13z m482 -174 l0 -195 -82 2
-83 2 70 6 c46 4 -17 8 -180 10 -137 2 -232 5 -210 7 83 7 82 6 81 75 -1 35 0
111 2 171 l2 107 38 0 c27 0 33 -3 22 -10 -10 -7 11 -10 68 -10 l82 0 1 -82
c0 -46 4 -92 9 -103 6 -13 9 20 9 93 1 82 4 112 14 112 9 0 11 -40 9 -176 l-3
-177 38 7 c21 3 46 6 56 6 12 0 17 8 17 30 0 38 17 39 23 3 2 -16 5 50 6 145
0 94 3 172 6 172 3 0 5 -88 5 -195z m-52 8 l3 -153 -39 0 -39 0 -6 135 c-7
170 -5 177 42 173 l36 -3 3 -152z"/>
<path d="M2610 1266 c0 -132 -1 -136 -21 -136 -16 0 -20 5 -16 19 2 10 1 25
-4 32 -9 15 -9 16 -13 -36 -2 -27 -36 -33 -36 -6 0 12 -5 21 -11 21 -6 0 -9
-9 -6 -19 3 -13 -1 -21 -14 -24 -20 -5 -25 13 -20 80 1 17 -3 34 -9 38 -6 4
-10 -12 -10 -44 0 -27 -3 -56 -6 -65 -9 -24 -30 -19 -30 7 -1 117 -5 158 -15
151 -7 -4 -9 -20 -6 -40 3 -18 3 -58 0 -88 l-6 -54 -41 -6 c-22 -3 -187 -26
-366 -52 -179 -25 -349 -46 -379 -45 -30 0 -60 -4 -66 -9 -12 -10 -215 -43
-222 -36 -3 2 6 19 19 36 16 22 23 45 23 76 0 40 -5 48 -67 111 -60 61 -66 70
-50 80 24 15 4 47 -32 51 -15 2 -30 10 -33 18 -8 23 -30 16 -37 -11 -7 -29
-40 -34 -67 -9 -24 21 -53 11 -46 -17 4 -13 -3 -29 -21 -46 l-26 -26 -170 9
c-388 20 -496 9 -563 -54 -15 -15 -45 -34 -65 -44 -64 -29 -79 -66 -76 -186 3
-93 1 -105 -16 -118 -11 -8 -32 -14 -47 -14 -33 0 -48 -17 -24 -27 16 -5 16
-7 1 -15 -9 -5 -16 -16 -16 -23 0 -12 15 -15 65 -15 l65 0 0 -62 c0 -35 -4
-68 -8 -74 -4 -6 -33 -19 -65 -28 -31 -9 -57 -21 -57 -27 0 -6 8 -8 18 -5 137
40 286 70 462 92 336 42 1253 23 1755 -36 200 -24 608 -98 1168 -211 325 -65
593 -117 595 -115 2 2 -5 7 -15 10 -20 6 -1039 215 -1175 242 l-87 16 2 210 2
210 -28 24 c-45 39 -98 31 -123 -17 -11 -23 -13 -49 -8 -119 l7 -90 -107 0
-106 0 0 100 c0 94 -2 103 -25 125 -15 16 -36 25 -55 25 -19 0 -40 -9 -55 -25
-23 -23 -25 -31 -25 -130 l0 -105 -100 0 -100 0 0 96 c0 95 -8 128 -39 151
-27 20 -75 15 -99 -10 -20 -21 -22 -34 -22 -130 l0 -107 -90 0 -90 0 0 98 c0
72 -4 103 -15 119 -20 28 -43 23 320 73 970 132 1559 187 1901 178 95 -2 134
0 134 8 0 42 -530 19 -1084 -47 -93 -11 -171 -17 -173 -15 -3 3 -6 57 -7 120
-2 64 -5 118 -8 121 -3 3 -7 -51 -10 -120 -3 -69 -8 -128 -11 -131 -16 -17
-27 14 -27 77 0 39 -4 68 -9 65 -5 -3 -8 -35 -8 -72 1 -46 -3 -68 -13 -74 -8
-5 -16 -7 -18 -5 -2 2 -4 60 -4 129 0 69 -4 129 -9 132 -5 3 -9 -53 -9 -130z
m-1440 23 c0 -11 19 -40 41 -64 l42 -45 -24 -19 c-14 -10 -35 -40 -48 -67 -20
-39 -22 -52 -13 -76 l10 -28 -38 6 c-69 11 -87 0 -124 -73 l-34 -67 -7 52 c-5
39 -13 57 -32 72 -32 25 -74 26 -104 1 -22 -18 -24 -26 -24 -123 l0 -103 -42
-3 -43 -3 0 50 c0 28 -4 51 -10 51 -5 0 -10 -23 -10 -51 l0 -50 -37 3 -38 3
-3 100 c-2 93 -4 102 -28 123 -33 29 -78 29 -109 -3 -23 -22 -25 -31 -25 -125
l0 -100 -90 0 -90 0 0 100 c0 94 -2 103 -25 125 -13 14 -31 25 -40 25 -39 0 1
132 50 164 57 37 133 48 320 45 99 -2 228 -3 287 -3 96 1 107 -1 111 -17 7
-27 52 -25 71 3 20 28 17 30 -22 16 -41 -16 -51 -4 -22 26 16 18 21 32 16 50
-8 31 1 33 30 5 26 -24 74 -17 81 12 6 23 23 15 23 -12z m134 -160 c31 -36 34
-87 9 -118 -16 -19 -25 -21 -65 -15 -28 4 -48 12 -48 19 0 7 -3 26 -6 43 -5
27 -1 36 32 66 22 20 42 36 46 36 3 0 18 -14 32 -31z m-1056 -171 c8 -8 12
-62 12 -178 l0 -167 -54 -9 -53 -10 -5 100 c-6 140 3 254 22 266 21 14 64 12
78 -2z m340 0 c8 -8 12 -57 12 -155 l0 -143 -24 0 c-13 0 -38 -3 -55 -6 l-31
-6 0 145 c0 119 3 148 16 161 18 19 65 21 82 4z m340 0 c8 -8 12 -55 12 -145
l0 -133 -55 0 -55 0 0 127 c0 104 3 130 17 145 18 20 63 24 81 6z m340 -1 c6
-6 12 -72 14 -145 l3 -132 -57 0 -58 0 0 127 c0 104 3 130 17 145 19 21 66 24
81 5z m346 -9 c10 -17 14 -59 14 -150 l0 -128 -59 0 -59 0 0 128 c0 99 3 132
16 150 21 30 69 30 88 0z m340 0 c13 -18 16 -52 16 -167 l0 -144 -46 7 c-26 3
-53 6 -60 6 -11 0 -14 28 -14 138 0 155 9 182 60 182 18 0 34 -8 44 -22z m363
10 c4 -7 10 -91 13 -186 l5 -173 -55 7 c-30 3 -57 8 -59 11 -3 2 -5 72 -5 156
-1 176 6 197 59 197 18 0 37 -6 42 -12z m360 0 c6 -7 13 -104 17 -216 l7 -203
-48 7 c-26 3 -54 11 -60 16 -10 8 -13 59 -13 191 0 154 2 183 17 199 18 21 66
24 80 6z m-1182 -105 c0 -125 4 -121 -111 -108 l-63 6 -3 94 -3 94 60 9 c33 5
74 10 90 11 l31 1 -1 -107z m-341 20 c3 -21 6 -57 6 -80 l0 -43 -90 0 c-65 0
-90 3 -90 13 0 6 14 39 31 72 31 62 46 72 105 74 29 1 32 -2 38 -36z m1046
-199 l0 -56 -77 7 c-125 10 -123 9 -123 60 l0 45 100 0 100 0 0 -56z m361 52
c2 -2 2 -29 1 -60 l-4 -56 -99 0 -99 0 0 60 0 60 98 0 c54 0 101 -2 103 -4z
m-2091 -40 c0 -37 0 -37 -100 -51 -25 -4 -53 -9 -62 -11 -16 -5 -18 2 -18 45
l0 51 90 0 90 0 0 -34z"/>
<path d="M3513 1059 c-6 -6 -41 -17 -77 -24 -62 -11 -68 -11 -77 6 -10 20 -54
26 -64 9 -3 -5 -17 -10 -29 -10 -13 0 -29 -7 -36 -15 -7 -8 -21 -15 -31 -15
-22 0 -30 -12 -20 -29 5 -7 -4 -24 -26 -46 -29 -29 -33 -39 -32 -81 1 -27 3
-40 6 -29 10 46 27 77 54 96 l28 20 15 -23 c8 -13 22 -43 32 -68 9 -25 21 -50
26 -57 15 -19 -30 -36 -84 -31 -47 5 -47 5 -26 -11 26 -18 103 -20 120 -3 16
16 28 15 28 -2 0 -7 7 -19 15 -26 9 -8 15 -31 16 -59 1 -25 4 -57 8 -71 6 -20
9 -12 15 36 6 59 8 61 33 56 25 -5 25 -6 20 -69 -6 -76 -17 -93 -50 -75 -22
13 -22 13 1 -7 17 -15 29 -18 45 -12 19 7 23 18 29 80 3 40 8 75 11 78 3 2 15
2 28 -2 21 -7 21 -11 15 -88 -4 -44 -9 -84 -13 -89 -3 -6 -16 -8 -29 -5 -20 3
-22 2 -13 -9 15 -19 44 -18 64 2 13 14 15 30 9 95 -8 90 -7 91 80 65 27 -8 54
-12 62 -9 10 4 14 -5 15 -33 l1 -39 11 43 c9 37 13 42 37 42 27 0 27 -1 23
-47 -6 -58 -25 -82 -47 -63 -10 8 -16 9 -16 2 0 -17 34 -32 58 -25 22 5 29 27
34 107 2 28 10 43 27 54 l23 16 -3 -92 c-4 -100 -16 -125 -49 -104 -16 10 -18
9 -14 -3 8 -21 51 -30 69 -15 12 10 15 34 14 107 -2 72 1 97 12 104 10 6 5 9
-16 9 -17 0 -40 -6 -51 -14 -30 -21 -157 -22 -229 -1 -33 9 -82 21 -110 27
-73 15 -96 26 -102 48 -3 10 -15 25 -27 33 -11 8 -29 37 -39 65 -10 28 -31 67
-47 88 l-28 38 23 18 c13 10 29 18 37 18 8 0 23 6 34 14 17 13 21 12 39 -5 18
-16 28 -17 77 -9 31 5 69 15 84 23 18 10 35 11 53 6 14 -5 84 -12 154 -15
l128 -6 49 -48 c45 -44 50 -53 50 -92 0 -48 -13 -68 -43 -68 -14 0 -17 -4 -12
-17 21 -53 23 -73 9 -88 -9 -8 -11 -15 -6 -15 21 0 34 30 28 64 -6 29 -3 36
13 41 20 6 41 52 41 87 0 38 -34 91 -84 130 l-50 40 -136 -3 c-74 -1 -144 1
-155 5 -11 4 -25 2 -32 -5z"/>
</g>
</svg>
