<?xml version="1.0" standalone="no"?>
<!DOCTYPE svg PUBLIC "-//W3C//DTD SVG 20010904//EN"
 "http://www.w3.org/TR/2001/REC-SVG-20010904/DTD/svg10.dtd">
<svg version="1.0" xmlns="http://www.w3.org/2000/svg"
 width="1280.000000pt" height="640.000000pt" viewBox="0 0 1280.000000 640.000000"
 preserveAspectRatio="xMidYMid meet">
<metadata>
Created by potrace 1.15, written by Peter Selinger 2001-2017
</metadata>
<g transform="translate(0.000000,640.000000) scale(0.100000,-0.100000)"
fill="#000000" stroke="none">
<path d="M8582 5192 c-1 -19 -29 -142 -63 -275 -54 -215 -62 -259 -73 -409
-11 -156 -14 -170 -35 -184 -149 -105 -327 -311 -516 -602 -1 -1 -29 -9 -61
-18 -32 -8 -89 -29 -127 -46 -37 -17 -70 -29 -72 -26 -3 3 -3 24 1 48 l7 42
64 -4 c68 -4 65 5 -5 17 -24 4 -46 13 -48 19 -3 7 4 72 16 146 11 76 20 182
20 248 l0 115 48 45 c42 39 136 114 188 150 40 27 -31 1 -128 -48 l-98 -48 0
30 c0 28 2 30 28 25 l27 -6 -29 12 c-28 12 -28 12 -24 79 3 38 1 68 -3 68 -5
0 -9 -11 -9 -24 0 -24 -18 -86 -29 -98 -3 -4 -47 0 -96 9 -169 29 -343 -1
-484 -84 -134 -80 -281 -246 -375 -423 -77 -146 -92 -137 -48 29 18 65 32 122
32 127 0 5 -13 -14 -28 -42 -51 -96 -87 -154 -94 -154 -7 0 -14 322 -8 374 1
11 -3 15 -9 12 -6 -4 -11 -19 -11 -34 0 -15 -24 -121 -53 -236 l-53 -209 -37
-13 c-21 -8 -37 -9 -37 -3 0 5 9 50 20 100 22 97 22 128 1 57 -7 -24 -34 -77
-59 -119 -43 -72 -49 -78 -116 -110 -73 -35 -168 -99 -223 -152 l-33 -31 0 25
c0 13 7 65 16 114 16 95 33 212 34 232 0 16 37 40 107 69 70 28 49 32 -33 5
-32 -11 -59 -19 -60 -18 0 1 3 99 7 217 4 118 8 256 7 305 l0 90 -13 -60 c-7
-33 -19 -73 -25 -90 -49 -123 -135 -393 -144 -455 l-11 -74 -62 -39 -62 -38
-60 12 c-34 6 -61 15 -61 20 0 4 61 164 135 354 117 303 143 379 200 602 36
141 64 257 62 260 -3 2 -9 -9 -15 -26 -6 -16 -68 -122 -137 -235 l-127 -205
-143 -377 -142 -376 -44 -20 c-24 -10 -59 -34 -77 -51 -31 -30 -38 -32 -105
-33 -53 0 -83 -6 -113 -22 -42 -21 -122 -102 -184 -185 -19 -25 -37 -47 -40
-47 -3 0 -1 71 4 157 8 141 11 159 30 175 l21 17 -22 -6 c-17 -4 -21 -1 -18
14 2 10 6 63 8 118 l5 100 -18 -65 c-9 -36 -31 -96 -47 -135 -27 -65 -34 -72
-89 -103 -32 -18 -76 -45 -96 -59 l-38 -26 -102 28 c-57 16 -107 32 -111 35
-18 16 73 139 188 254 121 122 247 220 343 266 28 14 51 28 52 32 0 9 -156
-40 -214 -68 -27 -13 -51 -22 -53 -20 -7 7 181 177 240 216 32 22 55 40 49 40
-29 0 -183 -76 -263 -131 -89 -60 -240 -209 -347 -343 -52 -65 -143 -170 -201
-234 -58 -63 -127 -141 -153 -173 -46 -56 -48 -57 -83 -49 -20 5 -38 10 -40
12 -6 6 6 48 14 48 4 0 16 7 27 16 18 15 18 15 -3 9 -16 -4 -23 -2 -23 8 0 11
48 250 67 335 9 37 -6 24 -16 -15 -6 -21 -59 -119 -119 -218 l-108 -180 -157
0 c-86 0 -157 1 -157 2 0 1 14 24 31 51 l31 50 56 -13 c88 -20 154 -26 192
-16 42 10 31 15 -73 31 -43 6 -94 17 -113 23 l-34 12 43 52 c47 57 159 159
225 205 24 16 80 48 125 69 71 34 76 41 17 21 -41 -14 16 23 105 68 55 27 97
50 93 50 -25 0 -192 -45 -247 -67 -130 -52 -293 -156 -437 -281 l-81 -70 -54
9 c-108 18 -206 -14 -267 -88 -30 -35 -63 -57 -167 -107 -71 -35 -156 -73
-187 -85 -68 -24 -211 -95 -251 -123 -16 -11 -30 -19 -32 -17 -5 6 134 171
242 288 l96 103 50 -5 c28 -2 43 -1 35 4 -7 5 -22 9 -34 9 -11 0 -23 3 -26 6
-10 9 158 161 265 241 55 40 150 99 211 129 87 43 102 54 71 48 -215 -37 -435
-150 -648 -334 l-59 -50 -73 0 c-104 0 -218 -24 -304 -65 -40 -19 -69 -29 -63
-22 22 26 208 116 292 141 47 14 73 25 58 25 -56 2 -287 -51 -368 -84 -46 -19
-86 -33 -87 -31 -2 2 8 56 21 122 14 65 23 120 21 123 -3 2 -5 -2 -6 -10 0 -8
-4 -6 -9 6 -7 18 -8 17 -15 -10 -4 -16 -43 -94 -88 -171 -65 -115 -83 -140
-98 -137 -23 6 -22 -12 -4 212 15 173 15 240 1 152 -3 -22 -37 -111 -75 -198
-67 -151 -71 -158 -113 -179 -24 -12 -72 -52 -108 -88 -35 -36 -67 -66 -70
-66 -4 0 -1 35 6 78 7 42 13 83 13 91 1 10 13 12 54 8 l52 -6 -47 15 c-35 11
-48 20 -48 34 0 10 31 229 69 487 69 466 69 469 74 733 3 146 3 252 0 235 -2
-16 -42 -142 -88 -280 l-83 -250 -63 -458 -63 -458 -46 6 c-86 12 -226 -16
-354 -70 -16 -7 -18 -5 -13 8 10 27 26 266 30 457 l4 175 -17 -65 c-10 -36
-45 -146 -79 -245 -50 -143 -67 -208 -82 -314 l-19 -133 -69 -73 c-38 -40 -92
-106 -121 -147 l-52 -73 7 80 c3 44 17 220 31 390 22 279 24 340 17 610 -5
213 -10 287 -16 255 -4 -25 -35 -153 -67 -285 l-59 -240 -26 -355 c-14 -195
-34 -456 -45 -580 l-18 -225 -66 -190 c-74 -215 -129 -422 -176 -670 -18 -94
-39 -175 -46 -181 -10 -8 -14 -34 -14 -81 0 -39 -11 -164 -25 -279 -14 -115
-25 -235 -25 -266 0 -52 2 -58 21 -58 11 0 28 -4 37 -9 9 -4 38 -11 64 -14 43
-6 48 -5 48 13 0 16 7 20 30 20 17 0 30 -4 30 -10 0 -11 64 -30 103 -30 21 0
27 5 27 21 0 21 3 21 93 16 105 -7 121 -10 160 -26 36 -14 34 -15 40 9 5 18
14 20 81 20 52 0 92 -6 128 -20 44 -17 55 -18 62 -7 7 11 18 12 64 1 51 -12
54 -12 59 7 5 19 12 20 122 16 64 -2 134 -8 156 -14 22 -6 61 -14 88 -18 43
-6 47 -4 47 14 0 20 6 21 93 21 51 0 97 -4 103 -9 16 -15 94 -30 100 -19 3 5
13 6 23 3 9 -4 63 -9 119 -11 97 -4 104 -3 109 16 5 19 14 20 152 20 119 0
157 -4 205 -20 58 -20 75 -17 76 13 0 4 98 7 218 7 190 0 226 -3 275 -19 40
-14 57 -16 60 -8 3 9 14 9 48 0 41 -11 45 -10 60 9 15 20 23 21 104 14 49 -3
93 -10 99 -15 6 -4 30 -11 53 -15 34 -5 44 -3 52 11 9 17 12 17 57 0 46 -17
47 -17 61 3 13 19 25 20 164 20 124 0 160 -3 210 -20 57 -19 62 -20 73 -4 10
12 17 14 32 7 10 -6 31 -13 46 -17 21 -5 28 -2 33 14 6 18 15 20 109 20 77 0
118 -5 161 -20 32 -11 59 -20 60 -20 2 0 5 9 8 20 5 19 14 20 295 20 245 0
291 -2 302 -15 14 -17 60 -20 60 -4 0 6 7 3 16 -5 23 -24 54 -20 54 5 0 20 4
21 123 18 74 -3 130 -9 138 -16 8 -6 40 -14 72 -18 54 -7 57 -6 57 14 0 20 4
21 149 21 100 0 172 -5 217 -16 37 -8 102 -17 146 -19 74 -4 78 -3 78 16 0 19
5 20 43 16 23 -3 80 -13 126 -22 60 -11 86 -13 91 -5 5 8 15 8 34 0 35 -13 33
-14 39 11 6 21 9 22 139 17 73 -3 144 -10 158 -15 14 -6 44 -13 68 -17 38 -6
42 -4 42 14 0 16 7 20 34 20 19 0 37 -4 40 -9 3 -5 22 -12 42 -15 19 -4 41 -9
49 -12 7 -3 16 3 20 15 5 18 9 19 38 6 18 -7 51 -16 73 -20 37 -6 42 -4 47 16
6 21 10 21 91 17 46 -2 90 -9 98 -15 7 -6 32 -13 54 -17 37 -5 42 -3 47 15 5
19 11 21 44 15 21 -3 47 -7 58 -9 11 -1 22 -5 25 -8 3 -3 17 -9 33 -13 23 -5
27 -3 27 15 0 22 2 22 106 16 58 -3 111 -10 117 -15 7 -5 31 -12 54 -16 36 -5
44 -3 53 14 11 20 70 30 70 11 0 -5 28 -14 63 -20 81 -14 77 -15 77 10 0 21 3
22 81 16 45 -3 85 -9 88 -15 3 -5 27 -12 54 -15 38 -5 47 -4 47 9 0 10 6 14
18 10 60 -18 107 -24 113 -14 5 8 16 8 38 0 27 -10 33 -8 44 8 15 25 39 25
112 0 32 -11 59 -20 60 -20 2 0 5 9 8 20 7 26 32 25 98 0 l52 -21 14 21 c13
19 24 20 206 20 154 0 205 -4 257 -18 78 -22 129 -21 142 1 8 15 34 17 228 17
176 0 221 -3 227 -14 5 -8 34 -17 71 -21 59 -7 62 -6 62 14 0 12 5 21 10 21 6
0 10 -4 10 -10 0 -10 63 -30 97 -30 13 0 24 8 28 20 8 24 61 28 79 6 6 -8 36
-17 67 -21 51 -6 57 -4 62 14 5 19 13 21 92 21 64 0 90 -4 102 -15 8 -8 27
-15 41 -14 15 0 46 -3 70 -7 38 -6 42 -5 42 15 0 17 5 20 23 16 152 -35 150
-35 162 -18 11 15 16 15 58 0 45 -15 47 -15 57 4 14 26 92 26 162 -1 29 -11
54 -20 54 -20 1 0 4 9 7 20 5 19 14 20 121 20 l116 0 0 297 0 297 42 70 c49
84 196 304 208 311 4 3 28 -19 54 -49 37 -44 119 -106 139 -106 2 0 -28 50
-69 112 l-73 112 40 48 c137 163 224 235 259 213 16 -10 98 -136 180 -275 98
-168 154 -245 203 -281 22 -16 42 -28 44 -26 6 6 -178 339 -227 412 -62 91
-105 131 -214 199 -134 83 -153 79 -290 -65 l-87 -91 -17 23 c-32 47 -113 126
-147 145 -19 10 -33 23 -31 29 3 5 19 54 37 108 23 66 38 97 49 97 11 0 12 2
2 8 -10 7 -10 19 0 61 l12 52 53 -7 c29 -3 53 -4 53 -1 0 3 15 41 34 86 l35
80 -57 -28 c-31 -16 -67 -32 -79 -36 -21 -6 -22 -4 -16 27 4 18 21 103 38 188
18 85 31 156 30 158 -1 1 -10 -19 -20 -44 -17 -45 -145 -267 -150 -262 -2 2 3
32 11 68 18 86 17 104 -4 54 -32 -78 -106 -195 -119 -190 -30 12 -144 28 -158
22 -10 -3 -15 1 -15 13 0 29 159 182 254 246 48 31 116 70 154 86 96 41 52 36
-88 -11 -124 -41 -207 -79 -272 -124 l-38 -25 0 37 c0 20 3 67 6 104 6 54 11
68 28 77 20 10 20 10 -4 7 -23 -3 -49 -11 -75 -24 -36 -18 23 25 95 69 47 28
76 49 65 45 -95 -27 -187 -60 -222 -80 -24 -14 -43 -21 -43 -17 0 15 176 177
229 211 28 19 49 35 48 37 -8 7 -153 -60 -208 -96 -64 -43 -65 -42 -48 41 8
40 17 59 33 66 17 9 18 11 4 11 -23 1 -23 8 11 181 16 80 28 146 26 148 -2 2
-9 -14 -15 -35 -15 -46 -175 -326 -197 -345 -14 -11 -15 -9 -10 17 4 17 16 84
28 150 21 115 24 122 70 181 132 167 289 275 465 319 73 18 241 24 304 10 19
-4 32 -4 29 -1 -10 10 -198 53 -266 60 -35 4 -99 2 -144 -4 -153 -21 -270 -78
-391 -189 l-69 -64 -67 26 c-72 29 -166 52 -247 63 l-49 6 24 19 c51 40 202
108 275 124 54 12 108 16 194 14 66 -2 118 -3 117 -1 -2 1 -45 12 -97 23 -138
31 -309 32 -409 1 -98 -31 -178 -76 -267 -151 l-73 -61 0 89 0 89 63 50 c34
27 73 55 85 61 13 7 22 14 20 17 -5 4 -97 -30 -138 -51 -26 -13 -28 -13 -34 8
-3 12 -6 63 -7 112 -2 85 -2 87 -9 35 -12 -85 -47 -213 -62 -221 -21 -12 -92
-70 -161 -132 l-65 -58 -58 13 -59 13 60 38 c33 21 77 45 97 55 21 9 38 20 38
24 0 11 -161 -42 -246 -81 -44 -21 -104 -41 -133 -45 -63 -8 -166 -46 -239
-87 -29 -16 -57 -27 -62 -24 -6 4 -10 0 -10 -8 0 -8 -12 -23 -27 -33 -16 -10
-52 -40 -82 -68 l-54 -51 7 35 c4 19 9 44 12 55 4 22 -3 7 -41 -81 -13 -29
-50 -85 -83 -125 -80 -98 -173 -240 -247 -376 -57 -105 -63 -112 -114 -137
-29 -15 -55 -25 -57 -24 -2 2 0 37 3 77 6 67 10 78 52 134 74 99 229 254 318
319 46 33 83 62 83 63 0 8 -127 -47 -188 -80 -157 -87 -331 -251 -495 -469
-20 -27 -37 -46 -37 -42 0 24 103 284 155 391 89 182 171 303 284 415 181 180
346 247 591 241 36 -1 79 -4 95 -7 70 -14 10 9 -86 32 -101 25 -113 26 -449
27 -378 1 -404 -2 -527 -58 -92 -42 -148 -82 -235 -164 l-70 -66 7 110 c15
212 12 204 77 249 32 22 56 41 54 43 -2 2 -24 -6 -50 -17 -26 -11 -49 -20 -51
-20 -2 0 -1 102 1 228 4 183 -9 655 -14 534z m-937 -772 c4 -6 -1 -34 -11 -63
-14 -43 -36 -70 -134 -167 -65 -64 -157 -170 -209 -240 -51 -69 -102 -131
-114 -138 -15 -8 -41 -11 -77 -7 -61 7 -273 45 -278 50 -7 7 79 145 139 224
169 225 380 339 646 350 17 0 35 -4 38 -9z m1369 -188 c-75 -50 -124 -95 -186
-170 -46 -55 -78 -82 -121 -104 -33 -16 -60 -28 -62 -26 -8 8 110 138 170 188
61 51 207 140 230 140 6 0 -8 -12 -31 -28z m-604 -212 c-14 -169 -20 -212 -38
-245 -26 -49 -26 -35 -2 80 10 49 17 91 16 93 -2 1 -13 -24 -25 -55 -28 -76
-104 -198 -122 -196 -27 3 -164 27 -168 29 -6 5 101 174 180 285 74 104 170
223 174 217 1 -2 -6 -95 -15 -208z m2143 142 c-17 -66 -18 -67 -58 -52 l-26
10 47 55 c26 31 48 54 50 52 2 -1 -4 -31 -13 -65z m-1434 -24 c-104 -100 -215
-258 -296 -423 -29 -58 -44 -77 -67 -85 -16 -5 -31 -10 -33 -10 -2 0 14 35 36
78 87 172 222 347 344 444 64 50 71 48 16 -4z m1122 -125 c-90 -112 -191 -262
-277 -410 -54 -92 -63 -102 -99 -113 -22 -7 -62 -24 -90 -39 -27 -14 -53 -27
-57 -29 -3 -2 -2 14 3 35 5 21 9 58 9 83 1 94 9 114 96 223 46 58 131 155 189
215 115 120 131 128 252 131 l53 1 -79 -97z m959 86 c27 -6 50 -14 50 -17 -1
-4 -13 -21 -28 -38 -20 -23 -46 -38 -99 -53 -171 -51 -322 -126 -424 -212
l-49 -41 6 64 c3 34 7 77 10 95 6 41 87 151 122 165 107 43 301 61 412 37z
m-678 -18 c4 -4 -19 -26 -51 -49 -32 -24 -80 -64 -106 -88 -60 -58 -56 -47 24
66 62 88 65 91 95 84 17 -3 34 -9 38 -13z m-3002 -81 c-5 -30 -14 -94 -20
-141 l-12 -86 -76 -6 c-43 -2 -78 -3 -80 -2 -2 2 15 33 38 70 50 81 151 227
155 223 2 -2 -1 -28 -5 -58z m3616 -72 c-53 -77 -143 -246 -186 -349 -30 -75
-32 -77 -76 -88 -24 -6 -69 -22 -99 -36 l-55 -24 -45 20 c-26 12 -45 27 -45
36 0 26 45 77 104 118 59 41 68 57 17 30 -17 -8 -31 -13 -31 -9 0 15 112 143
162 185 97 81 251 178 285 179 7 0 -7 -28 -31 -62z m-2492 -134 c-23 -43 -56
-106 -71 -140 -15 -35 -31 -64 -36 -64 -14 0 -19 30 -12 76 5 38 19 59 76 125
39 43 74 79 79 79 4 0 -12 -34 -36 -76z m1768 -41 c-16 -32 -39 -83 -51 -114
-22 -55 -24 -57 -72 -66 -27 -6 -49 -8 -49 -6 0 16 183 243 196 243 3 0 -9
-26 -24 -57z m-4777 37 c21 0 16 -7 -34 -55 -32 -30 -63 -55 -69 -55 -15 0
-15 1 4 52 19 48 41 71 62 63 8 -3 24 -5 37 -5z m1446 -13 l86 -2 -15 -23 c-8
-12 -36 -34 -63 -48 -55 -30 -215 -211 -314 -354 -33 -47 -74 -103 -92 -126
-18 -23 -54 -72 -79 -110 -45 -69 -45 -69 -38 -29 11 60 61 255 67 262 3 3 27
-2 53 -11 64 -22 66 -14 4 13 -27 12 -50 27 -50 34 0 20 65 214 100 297 17 41
34 83 37 92 7 23 23 25 128 15 49 -5 129 -9 176 -10z m-1297 -233 c-18 -124
-38 -232 -45 -240 -7 -8 -44 -36 -82 -62 -78 -52 -192 -161 -263 -253 -26 -32
-49 -58 -51 -56 -16 17 196 527 219 527 5 0 7 3 4 8 -2 4 17 39 42 77 33 48
56 73 77 80 17 5 32 12 35 16 3 3 14 11 25 18 17 10 14 11 -20 6 l-39 -7 49
54 c55 59 66 68 76 63 3 -3 -9 -106 -27 -231z m641 154 c-5 -41 -22 -81 -71
-164 -35 -60 -64 -102 -64 -93 0 22 49 261 55 267 11 11 80 50 83 47 2 -2 1
-28 -3 -57z m-1681 -10 c-12 -27 -21 -34 -36 -30 -18 4 -16 8 13 38 18 19 34
32 36 30 2 -2 -4 -19 -13 -38z m-2290 -70 c-49 -51 -91 -93 -94 -93 -3 0 -35
7 -72 14 -80 17 -78 22 22 81 58 34 196 89 224 90 5 0 -31 -42 -80 -92z m5026
77 c0 -16 -17 -19 -46 -8 -16 6 -16 7 2 14 30 12 44 10 44 -6z m-4259 -99
c-43 -44 -83 -76 -99 -79 -15 -3 -28 -4 -29 -3 -1 1 17 27 41 58 30 37 62 64
97 82 29 14 55 24 57 21 3 -2 -28 -38 -67 -79z m1266 73 c35 -6 63 -13 63 -16
0 -3 -32 -35 -71 -71 -76 -70 -181 -192 -272 -313 -49 -64 -157 -163 -146
-132 2 6 35 76 73 157 66 139 70 145 95 140 25 -5 26 -5 4 8 -22 13 -22 13 38
126 l60 112 46 0 c26 0 75 -5 110 -11z m-3102 -26 c-9 -49 -45 -305 -45 -316
0 -9 -46 -12 -158 -12 -124 -1 -166 -5 -201 -18 -24 -10 -46 -16 -48 -13 -2 2
2 45 9 95 l12 92 60 46 c76 58 205 119 288 137 89 20 88 20 83 -11z m6820 18
c-54 -13 -79 -32 -198 -150 l-118 -116 65 125 c40 77 73 130 88 137 13 8 58
12 108 12 58 -1 75 -3 55 -8z m-3007 -9 c-1 -4 -22 -39 -46 -79 -38 -63 -49
-73 -90 -87 -25 -9 -47 -16 -49 -16 -10 0 89 120 126 153 37 33 68 49 59 29z
m2233 -13 l37 -9 -27 -65 c-22 -55 -29 -65 -46 -60 -11 3 -62 8 -112 12 l-93
6 27 49 c45 83 94 98 214 67z m-2721 -29 c0 -12 -12 -26 -32 -36 -18 -9 -61
-36 -96 -60 -72 -50 -70 -42 11 50 47 53 64 66 88 66 22 0 29 -5 29 -20z
m4054 -27 c-9 -21 -19 -42 -24 -46 -9 -10 -50 0 -50 12 0 6 79 71 86 71 2 0
-4 -17 -12 -37z m-3456 -31 c-7 -18 -16 -32 -21 -32 -5 0 -7 3 -5 8 34 69 47
82 26 24z m-2400 -54 c-34 -46 -69 -89 -78 -95 -23 -20 -120 -66 -125 -61 -9
9 128 139 166 159 22 11 39 22 39 25 0 3 -6 2 -12 -1 -7 -4 3 7 22 24 58 52
54 35 -12 -51z m4892 67 c0 -3 -20 -41 -44 -83 -24 -42 -55 -98 -67 -124 -19
-40 -30 -50 -66 -62 l-43 -15 6 57 c8 74 19 90 117 167 76 60 97 73 97 60z
m-1666 -40 c-9 -14 -27 -54 -39 -88 -22 -62 -23 -62 -65 -65 -38 -3 -40 -2
-31 15 10 20 140 163 147 163 3 0 -3 -11 -12 -25z m-3885 -136 l-98 -115 -98
-37 c-92 -35 -123 -43 -123 -33 0 3 9 21 21 40 18 31 25 35 47 30 15 -4 35
-11 45 -16 10 -5 21 -7 25 -4 3 4 -13 14 -36 23 -23 9 -42 19 -42 23 0 12 71
103 122 156 l49 51 93 -1 93 -1 -98 -116z m2417 79 c-5 -30 -15 -38 -73 -67
l-67 -33 38 44 c43 49 99 98 105 93 2 -2 1 -19 -3 -37z m4037 -37 c-14 -36
-42 -119 -62 -185 -34 -109 -39 -119 -69 -132 -27 -11 -32 -11 -32 1 0 13 96
310 118 366 9 21 15 25 40 21 l30 -4 -25 -67z m-5177 54 c-11 -8 -27 -15 -35
-14 -9 0 -2 7 14 14 39 18 45 18 21 0z m373 -64 c-19 -27 -35 -48 -37 -46 -1
1 3 23 10 48 9 34 18 47 32 49 12 2 23 3 25 1 2 -1 -11 -25 -30 -52z m3507 24
c-4 -19 -31 -67 -61 -107 -30 -40 -55 -76 -55 -79 0 -4 -34 7 -75 24 -74 31
-76 32 -71 62 l5 30 -11 -27 c-7 -16 -15 -28 -19 -28 -19 0 -18 22 3 64 19 40
29 48 72 62 28 10 86 20 131 24 44 4 82 8 84 9 2 0 0 -15 -3 -34z m-3937 18
c0 -9 -130 -95 -135 -90 -10 9 33 50 74 72 50 26 62 29 61 18z m1801 -9 c0
-15 -22 -43 -45 -58 l-26 -17 17 33 c16 32 31 48 47 48 4 0 7 -3 7 -6z m5001
-76 l-28 -83 -54 -6 c-30 -4 -69 -10 -86 -13 l-33 -6 32 64 c32 65 60 90 128
113 71 23 72 22 41 -69z m406 61 l28 -11 -35 -18 c-46 -25 -47 -25 -42 10 5
33 8 35 49 19z m205 -33 c-12 -31 -54 -83 -138 -170 -67 -68 -125 -122 -128
-119 -3 4 -6 36 -6 73 l0 67 58 45 c66 53 211 148 223 148 5 0 1 -20 -9 -44z
m-9227 2 c-8 -36 -20 -48 -48 -48 -15 0 -12 7 15 40 18 22 34 40 36 40 2 0 0
-15 -3 -32z m1367 -35 c-27 -38 -61 -68 -68 -60 -8 8 32 59 59 74 30 17 31 16
9 -14z m8437 -152 c-51 -123 -97 -199 -85 -141 10 51 16 195 6 175 -5 -11 -9
-28 -9 -38 -1 -29 -144 -340 -175 -380 -16 -21 -31 -36 -33 -33 -2 2 26 98 62
212 75 236 78 241 211 320 53 32 70 38 72 26 2 -8 -20 -71 -49 -141z m-6836
22 c-12 -71 -23 -129 -23 -130 0 -1 -14 -10 -31 -18 l-31 -17 6 89 c4 69 3 80
-4 48 -6 -22 -22 -68 -36 -101 l-26 -62 -60 19 c-33 10 -62 20 -65 23 -11 11
264 275 288 276 3 0 -5 -57 -18 -127z m3729 95 c-8 -8 -9 -4 -5 13 4 13 8 18
11 10 2 -7 -1 -18 -6 -23z m694 -5 c-37 -101 -54 -130 -81 -135 -19 -4 -25 -2
-21 8 7 19 105 164 111 164 2 0 -2 -17 -9 -37z m-5410 -43 c-13 -38 -28 -62
-40 -66 -10 -3 -39 -27 -64 -53 -25 -25 -41 -39 -37 -31 20 35 153 210 160
210 1 0 -7 -27 -19 -60z m1340 -38 l-44 -87 -48 4 -48 3 86 84 c48 46 90 84
93 84 3 0 -15 -39 -39 -88z m4523 6 c-9 -39 -13 -45 -30 -41 -18 5 -18 8 -6
27 8 11 19 32 26 44 18 34 21 24 10 -30z m-8169 33 c0 -5 -28 -20 -62 -34
l-63 -24 -38 19 c-22 11 -37 21 -34 24 15 15 197 29 197 15z m1620 3 c0 -10
-55 -84 -62 -84 -4 0 5 20 20 45 24 40 42 57 42 39z m463 -73 c-29 -36 -56
-60 -68 -60 -15 0 -3 15 45 59 36 33 66 60 68 60 1 0 -19 -27 -45 -59z m3801
28 l38 -32 -69 -27 c-37 -14 -69 -26 -71 -25 -1 1 2 24 8 51 17 73 36 80 94
33z m-6441 -30 c-5 -23 -25 -49 -58 -79 -33 -30 -44 -37 -34 -20 9 14 34 53
55 88 41 65 49 68 37 11z m522 16 c-16 -13 -36 -24 -44 -25 -17 0 -11 7 26 31
41 26 52 23 18 -6z m8899 -63 c-37 -53 -39 -55 -42 -29 -7 59 1 80 38 92 21 7
36 8 39 3 2 -5 -14 -35 -35 -66z m-8128 -14 c-34 -46 -88 -119 -119 -163 -30
-44 -67 -91 -82 -105 l-27 -25 6 25 c4 14 13 56 21 93 15 76 36 107 71 107 13
0 25 4 28 9 4 5 -4 7 -16 4 -20 -4 -18 0 12 27 41 37 148 110 161 110 5 0 -20
-37 -55 -82z m522 -8 c-36 -52 -66 -86 -71 -81 -13 13 9 48 71 114 30 31 57
57 58 57 2 0 -24 -40 -58 -90z m5006 13 c-20 -43 -38 -80 -41 -83 -2 -2 -1 20
2 50 6 45 13 60 38 83 17 15 32 27 34 27 1 0 -14 -35 -33 -77z m-6101 31 c-11
-17 -19 -22 -21 -14 -3 7 3 19 14 27 26 19 27 17 7 -13z m8622 -40 l-24 -59
-1 53 c0 46 3 54 23 61 12 5 23 8 24 7 2 -2 -8 -29 -22 -62z m-9177 25 c-13
-18 -24 -25 -27 -18 -2 7 6 21 19 31 32 26 34 22 8 -13z m284 15 c3 -3 -29
-40 -71 -82 -99 -100 -230 -274 -285 -380 -10 -19 -19 -32 -21 -30 -2 1 1 26
5 55 16 95 196 330 320 417 37 27 44 29 52 20z m5972 -106 c-51 -100 -124
-191 -124 -155 0 37 23 117 33 117 8 0 8 3 -1 8 -7 5 -10 15 -7 23 5 13 132
108 146 109 3 0 -18 -46 -47 -102z m2842 16 c-29 -66 -39 -80 -60 -82 l-25 -3
31 71 c21 47 40 76 57 85 14 7 27 12 28 11 2 -2 -12 -38 -31 -82z m-4068 -41
c-36 -105 -114 -263 -129 -263 -3 0 3 57 14 128 l19 127 61 63 c34 34 65 62
69 62 4 0 -11 -53 -34 -117z m2962 103 c0 -2 -8 -10 -17 -17 -16 -13 -17 -12
-4 4 13 16 21 21 21 13z m-586 -54 c-4 -20 -11 -29 -20 -25 -11 4 -11 10 2 35
19 36 26 32 18 -10z m-5020 -4 c-12 -20 -76 -108 -78 -108 -1 0 0 17 2 38 5
42 36 82 64 82 13 0 17 -4 12 -12z m4649 -44 c-9 -27 -39 -76 -66 -109 -59
-72 -76 -88 -56 -55 69 115 134 218 136 216 2 -1 -5 -25 -14 -52z m-3088 -5
l-26 -51 -42 7 c-23 4 -44 9 -45 10 -2 2 -1 17 3 33 7 32 41 49 103 51 l32 1
-25 -51z m225 -21 c-12 -35 -26 -73 -31 -85 -6 -16 -14 -20 -29 -16 -18 5 -21
11 -16 36 6 31 85 142 94 132 3 -2 -5 -33 -18 -67z m5350 62 c0 -5 -5 -10 -11
-10 -5 0 -7 5 -4 10 3 6 8 10 11 10 2 0 4 -4 4 -10z m-7429 -63 c-10 -9 -11
-8 -5 6 3 10 9 15 12 12 3 -3 0 -11 -7 -18z m-2293 -77 c-6 -43 -21 -82 -41
-115 -17 -27 -64 -113 -104 -190 l-74 -140 6 60 c7 66 30 133 83 240 32 65
132 219 137 213 2 -2 -2 -32 -7 -68z m3690 55 c2 -2 -34 -41 -79 -88 -46 -46
-112 -122 -145 -170 -60 -84 -62 -85 -73 -61 -6 14 -11 30 -11 37 0 18 128
247 154 276 19 21 26 23 86 17 35 -4 66 -9 68 -11z m-1944 -10 c4 -12 -71
-185 -87 -202 -2 -1 0 24 5 58 7 55 53 159 69 159 4 0 9 -7 13 -15z m7966 -31
c0 -11 -5 -14 -16 -10 -9 3 -18 6 -20 6 -3 0 -2 5 1 10 10 16 35 12 35 -6z
m-1584 -36 c-14 -24 -36 -63 -51 -88 l-26 -45 6 45 c5 34 17 55 48 88 23 23
43 42 45 42 1 0 -8 -19 -22 -42z m-1570 -32 c-6 -30 -23 -68 -38 -87 l-28 -34
19 50 c28 74 51 125 55 125 2 0 -2 -24 -8 -54z m1244 -40 c-12 -52 -27 -87
-51 -117 -18 -23 -35 -37 -37 -31 -2 6 4 45 13 87 15 65 22 79 53 105 20 17
37 30 38 30 1 0 -6 -33 -16 -74z m3120 49 c0 -5 -20 -40 -36 -64 -5 -6 -104
31 -104 39 0 13 51 28 98 29 23 1 42 -1 42 -4z m-6902 -35 c-14 -22 -24 -19
-15 5 4 8 11 15 17 15 6 0 6 -7 -2 -20z m5682 5 c0 -17 -2 -18 -24 -9 -23 9
-20 24 4 24 11 0 20 -7 20 -15z m-502 -13 c-1 -4 -11 -28 -21 -53 -15 -38 -23
-46 -38 -42 -11 3 -18 11 -15 17 3 6 10 28 17 49 10 29 17 37 36 37 14 0 23
-3 21 -8z m-4898 -15 c0 -14 -33 -97 -39 -97 -4 0 -3 23 3 50 6 29 15 50 23
50 7 0 13 -1 13 -3z m5359 -38 c-13 -26 -20 -21 -12 9 3 12 9 19 14 16 5 -3 4
-14 -2 -25z m-8338 -8 c-44 -81 -126 -329 -151 -454 -10 -50 -26 -78 -103
-182 -51 -68 -93 -123 -94 -122 -4 5 59 221 92 316 55 158 117 278 192 374 69
88 82 102 64 68z m9500 7 c37 -10 38 -13 26 -32 -8 -12 -27 -59 -42 -106 -19
-56 -40 -99 -64 -127 -20 -22 -37 -40 -39 -38 -3 3 45 277 53 303 5 15 17 15
66 0z m-1671 -80 c0 -20 -78 -133 -87 -125 -2 3 8 36 23 76 20 54 31 71 45 71
13 0 19 -7 19 -22z m-4921 -77 c-29 -80 -35 -73 -8 8 12 34 23 60 26 57 3 -2
-5 -32 -18 -65z m-876 -82 c-20 -37 -32 -49 -50 -49 -12 0 -23 2 -23 5 0 3 14
33 31 66 29 59 31 60 49 44 19 -18 19 -19 -7 -66z m-772 11 c-11 -30 -24 -56
-30 -58 -6 -2 -11 -1 -11 2 0 9 54 116 57 113 1 -2 -6 -28 -16 -57z m3662 -42
c-29 -100 -97 -378 -113 -468 -15 -77 -62 -160 -92 -160 -14 0 -18 5 -14 15 3
8 52 160 110 337 120 370 116 358 126 358 4 0 -3 -37 -17 -82z m-1333 42 c0
-11 -4 -20 -9 -20 -5 0 -7 9 -4 20 3 11 7 20 9 20 2 0 4 -9 4 -20z m-2965 -52
c-9 -43 -16 -49 -39 -33 -17 13 -17 15 7 39 34 34 40 33 32 -6z m4528 -40
c-13 -57 -67 -147 -81 -134 -5 6 84 196 91 196 2 0 -2 -28 -10 -62z m-1577 10
c-3 -24 -8 -66 -12 -93 -4 -36 -14 -60 -36 -84 -16 -18 -31 -31 -34 -28 -2 2
11 57 31 120 19 64 35 119 35 122 0 3 5 5 11 5 7 0 9 -14 5 -42z m-1586 -3 c0
-24 -89 -180 -97 -171 -4 4 42 158 53 178 4 5 44 -1 44 -7z m3715 -62 c-13
-38 -45 -108 -70 -156 -45 -86 -47 -88 -62 -67 -20 29 -15 44 64 176 78 131
104 149 68 47z m4101 -65 l55 -78 -64 -82 c-67 -87 -164 -230 -211 -310 -26
-45 -31 -48 -68 -48 -34 0 -39 3 -33 18 4 9 52 150 106 312 54 162 102 302
105 310 7 18 25 -3 110 -122z m-5752 40 c-4 -24 -30 -97 -59 -163 -28 -66 -63
-150 -76 -187 -13 -38 -27 -68 -31 -68 -5 0 -8 3 -8 6 0 9 174 454 177 454 2
0 0 -19 -3 -42z m-3495 -154 c-10 -46 -24 -95 -31 -109 -14 -25 -14 -25 -56
50 l-42 76 40 69 41 68 33 -36 33 -36 -18 -82z m7781 84 c0 -18 -2 -20 -9 -8
-6 8 -7 18 -5 22 9 14 14 9 14 -14z m-32 -84 l22 -45 -67 -125 c-64 -118 -90
-147 -86 -93 1 13 5 63 8 111 6 83 9 91 48 143 22 30 43 55 47 55 3 0 16 -20
28 -46z m-9287 -199 c-26 -127 -30 -140 -51 -143 -14 -2 -21 1 -18 10 9 36 92
278 94 275 2 -1 -10 -65 -25 -142z m1393 103 c11 -18 32 -52 48 -76 l28 -43
-31 -90 c-30 -86 -33 -90 -58 -85 -14 3 -57 8 -94 11 l-69 7 7 36 c7 36 132
272 145 272 3 0 14 -15 24 -32z m-1669 -15 c-4 -10 -23 -58 -41 -108 -25 -65
-32 -79 -28 -50 5 36 62 175 72 175 2 0 1 -8 -3 -17z m4778 -40 c-10 -68 -13
-73 -38 -73 -31 0 -31 1 1 61 29 52 44 57 37 12z m2027 5 c0 -7 -5 -20 -10
-28 -8 -12 -10 -9 -10 13 0 15 5 27 10 27 6 0 10 -6 10 -12z m1669 -94 c-6
-38 -12 -70 -13 -71 0 -1 -13 -4 -29 -8 -22 -6 -27 -4 -27 11 0 17 72 145 78
139 2 -1 -2 -34 -9 -71z m-344 -184 c-3 -5 -10 -10 -16 -10 -5 0 -9 5 -9 10 0
6 7 10 16 10 8 0 12 -4 9 -10z"/>
<path d="M12097 3148 c-21 -50 -36 -92 -34 -95 2 -2 18 12 35 31 37 42 59 107
46 135 -7 16 -16 4 -47 -71z"/>
</g>
</svg>
