<?xml version="1.0" standalone="no"?>
<!DOCTYPE svg PUBLIC "-//W3C//DTD SVG 20010904//EN"
 "http://www.w3.org/TR/2001/REC-SVG-20010904/DTD/svg10.dtd">
<svg version="1.0" xmlns="http://www.w3.org/2000/svg"
 width="1280.000000pt" height="640.000000pt" viewBox="0 0 1280.000000 640.000000"
 preserveAspectRatio="xMidYMid meet">
<metadata>
Created by potrace 1.15, written by Peter Selinger 2001-2017
</metadata>
<g transform="translate(0.000000,640.000000) scale(0.100000,-0.100000)"
fill="#000000" stroke="none">
<path d="M2028 4182 c-109 -140 -217 -295 -295 -428 -60 -100 -72 -115 -103
-124 -19 -5 -38 -10 -41 -10 -4 0 -40 39 -79 88 -40 48 -93 108 -118 133 -50
53 -50 55 4 144 42 71 11 48 -37 -26 -17 -27 -36 -49 -43 -49 -6 0 -47 13 -90
30 -44 16 -81 28 -83 26 -2 -2 34 -19 79 -38 53 -22 82 -39 81 -49 -1 -7 -12
-41 -24 -74 -20 -50 -24 -79 -24 -175 0 -68 6 -134 14 -162 l13 -47 -37 -38
c-21 -21 -56 -62 -77 -90 -22 -29 -41 -53 -43 -53 -1 0 -23 31 -48 69 l-46 70
49 36 c28 20 50 39 50 41 0 6 -12 -1 -67 -38 l-41 -28 -33 43 c-18 23 -67 82
-109 131 -138 163 -144 167 -59 41 56 -84 141 -235 137 -246 -2 -4 -51 -43
-111 -88 l-108 -81 -39 25 c-27 17 -62 60 -115 142 -101 154 -228 319 -368
478 -155 176 -212 228 -125 115 76 -98 207 -294 265 -395 55 -95 106 -198 96
-193 -158 77 -339 158 -351 158 -4 0 34 -22 83 -48 99 -53 147 -82 248 -151
72 -48 70 -45 129 -189 l29 -74 -69 -76 c-176 -197 -279 -363 -350 -564 -34
-94 -62 -227 -62 -289 l0 -40 102 3 101 3 -2 75 c-3 103 21 213 73 341 40 100
171 332 222 397 l22 27 12 -30 c9 -24 8 -35 -3 -55 -31 -52 -50 -141 -43 -203
l6 -59 -53 -59 c-89 -97 -161 -263 -168 -385 l-3 -49 87 -3 c48 -1 87 -1 87 0
0 2 -4 18 -10 37 -19 69 24 269 75 348 15 22 15 22 67 -28 l52 -50 2 -152 3
-152 166 -3 166 -2 -8 77 c-10 99 -7 394 4 453 l9 45 32 -55 c17 -30 34 -68
36 -85 15 -106 30 -301 28 -362 l-2 -73 201 0 201 0 -5 48 c-24 225 -30 412
-19 569 7 91 16 172 20 180 6 10 28 -16 81 -95 l72 -110 -6 -153 c-6 -145 -35
-325 -65 -404 -5 -14 -10 -28 -10 -31 0 -2 54 -4 120 -4 l120 0 0 28 c0 16 -5
77 -11 136 -6 59 -8 110 -6 113 7 7 35 -130 42 -210 l7 -67 915 0 c833 0 915
1 909 16 -16 42 -16 70 -1 166 11 68 26 123 46 163 31 64 74 123 82 115 9 -9
29 -311 25 -384 l-3 -71 309 -3 309 -2 -6 144 c-4 80 -14 198 -22 262 -15 111
-15 118 3 146 l19 30 12 -74 c20 -130 32 -280 30 -393 l-3 -110 319 0 318 0 0
75 -1 75 11 -77 10 -78 319 0 318 0 0 38 c0 21 -9 75 -20 119 -28 108 -18 172
49 307 37 75 353 569 388 606 3 3 -4 -18 -15 -46 -47 -119 -108 -363 -137
-544 -14 -91 -35 -348 -35 -437 l0 -43 168 0 169 0 6 118 c10 187 63 384 149
555 37 76 38 77 13 61 -31 -20 -93 -106 -159 -221 -26 -46 -51 -85 -54 -87 -4
-2 -6 42 -4 97 3 94 6 107 38 165 36 66 35 76 -3 40 -28 -27 -29 -25 -8 115
31 210 76 386 150 585 64 173 77 202 90 202 20 0 376 -89 445 -112 128 -41
243 -113 282 -176 11 -18 19 -34 17 -36 -2 -2 -31 -21 -64 -43 -33 -22 -98
-70 -145 -106 -47 -36 -86 -62 -88 -58 -2 5 -11 89 -21 187 l-17 179 -8 -210
-8 -210 -66 -67 c-37 -38 -69 -68 -73 -68 -5 0 -19 132 -43 420 -12 138 -13
142 -19 80 -3 -36 -18 -195 -33 -355 l-28 -290 -62 -90 c-136 -198 -213 -398
-239 -622 l-6 -53 106 0 105 0 0 98 c0 62 7 127 20 181 24 100 43 139 35 71
-7 -54 -35 -332 -35 -342 0 -5 299 -8 665 -8 366 0 665 3 665 8 0 4 -11 52
-25 107 -13 55 -34 165 -45 245 -12 80 -27 171 -34 203 l-13 57 49 78 c26 42
52 78 56 79 18 5 173 -274 216 -389 l25 -68 -24 -117 c-13 -65 -26 -137 -30
-160 l-7 -43 459 0 460 0 -1 173 c-1 108 4 201 13 251 14 78 14 78 29 50 8
-16 28 -64 44 -107 26 -72 28 -88 28 -222 l0 -145 254 0 255 0 -2 103 c-1 91
2 112 31 197 54 155 161 351 252 460 l21 25 -4 -30 c-3 -16 -24 -82 -47 -145
-63 -174 -112 -385 -133 -568 l-5 -42 295 2 296 3 -2 85 c-1 48 5 107 13 135
14 50 14 49 15 -87 l1 -138 396 0 397 0 -8 52 c-24 182 -36 568 -17 568 12 0
106 -183 136 -261 37 -99 49 -212 31 -279 -8 -30 -15 -61 -15 -67 0 -10 33
-13 130 -13 142 0 138 -3 119 64 -22 79 30 277 95 361 14 19 15 15 15 -55 0
-71 -11 -215 -25 -322 l-7 -48 417 0 416 0 -6 43 c-27 197 -55 327 -104 481
-17 54 -30 100 -28 102 2 2 30 -46 62 -106 67 -128 119 -273 135 -380 6 -41
14 -90 17 -107 l5 -33 100 0 99 0 -6 28 c-23 96 -112 340 -158 432 -59 119
-154 263 -223 340 l-43 48 31 89 c67 190 226 504 315 620 51 67 17 40 -56 -44
-107 -123 -248 -316 -325 -443 -37 -60 -71 -110 -74 -110 -15 0 -60 59 -105
140 -69 121 -146 238 -243 368 -46 63 -83 115 -81 116 2 1 64 16 138 35 74 18
149 39 165 47 17 8 21 12 10 8 -35 -10 -238 -51 -291 -58 -50 -7 -51 -7 -86
36 -20 24 -70 81 -112 128 -42 47 -76 89 -76 93 0 11 84 158 142 247 63 97 19
48 -94 -102 -44 -60 -83 -108 -86 -108 -3 0 -17 10 -30 23 l-25 22 23 -32 23
-32 -37 -56 -36 -55 -53 77 c-87 128 -243 333 -253 333 -3 0 13 -26 34 -57 48
-72 148 -244 196 -341 l36 -72 -50 -85 c-27 -47 -62 -109 -76 -137 -17 -33
-67 -92 -138 -163 -61 -60 -134 -144 -162 -186 -37 -55 -55 -75 -65 -69 -10 7
-3 30 33 107 96 203 117 373 65 522 -31 87 -33 83 76 127 37 15 65 29 63 31
-4 5 -148 -47 -163 -59 -8 -6 -22 6 -46 44 -20 29 -47 67 -62 83 l-27 30 22
-37 c12 -21 18 -43 14 -49 -4 -8 -3 -9 4 -5 11 7 52 -60 52 -85 0 -6 -26 -41
-58 -78 -72 -81 -192 -233 -255 -323 -58 -81 -83 -90 -150 -56 l-45 23 60 105
c73 126 188 297 220 327 13 12 54 34 91 48 37 15 66 29 64 32 -3 2 -42 -10
-88 -28 -64 -24 -95 -43 -129 -78 -54 -55 -223 -260 -258 -314 l-26 -39 -17
24 c-10 12 -23 51 -30 87 -23 126 7 276 79 387 l32 49 -38 -42 c-70 -76 -142
-238 -142 -320 0 -39 -5 -41 -32 -10 -22 25 -15 6 14 -35 11 -15 18 -44 18
-70 0 -23 8 -72 18 -108 27 -93 13 -121 -28 -55 -12 19 -57 82 -100 141 l-79
106 61 91 c33 50 96 138 140 196 l79 106 -82 -85 c-44 -47 -115 -125 -157
-173 l-76 -89 -55 64 c-77 88 -123 134 -141 140 -16 5 55 138 157 296 29 46
49 81 44 77 -6 -3 -68 -82 -137 -175 -70 -94 -131 -170 -135 -170 -3 0 -23 7
-42 15 -55 23 -58 16 -5 -8 l48 -22 -54 -85 c-29 -47 -72 -117 -94 -156 l-41
-71 -81 23 c-45 13 -127 33 -183 44 -68 13 -106 26 -115 37 -7 10 -47 72 -89
138 -41 66 -127 189 -190 272 -118 158 -166 210 -96 107 91 -135 284 -496 271
-509 -4 -5 -192 32 -253 49 -11 4 -5 -1 14 -9 18 -9 81 -28 140 -42 58 -14
111 -32 118 -41 10 -12 -2 -31 -67 -108 -43 -52 -86 -104 -94 -116 -10 -13
-19 -18 -24 -13 -31 36 -72 95 -72 103 0 6 20 41 45 78 25 37 44 68 42 70 -2
2 -28 -26 -58 -61 l-54 -65 -63 67 -63 68 51 -78 c45 -69 50 -81 38 -97 -7
-10 -46 -63 -87 -118 l-75 -100 -73 50 c-40 27 -75 53 -78 58 -3 5 7 18 21 29
31 24 24 28 -10 6 -26 -17 -19 -23 -103 94 -10 14 -44 58 -76 99 -32 40 -57
75 -55 76 2 2 36 13 77 25 40 12 72 24 70 26 -2 2 -38 -5 -79 -16 -41 -10 -78
-19 -81 -19 -3 0 -25 22 -48 50 l-41 49 80 108 81 108 -91 -95 -91 -95 -80 84
c-45 47 -78 89 -75 97 9 24 -20 4 -38 -27 l-18 -30 -34 38 -35 38 27 -43 c27
-42 27 -44 10 -70 -48 -74 -96 -210 -96 -273 0 -24 -6 -28 -64 -43 -81 -22
-181 -72 -239 -120 -24 -20 -48 -36 -54 -36 -15 0 -52 42 -165 185 -156 198
-207 245 -302 278 -44 15 -81 26 -83 24 -2 -2 29 -17 67 -32 83 -33 109 -59
201 -200 89 -137 86 -130 63 -121 -55 22 -221 60 -394 91 -107 20 -203 38
-212 41 -15 5 -11 18 33 107 58 115 153 282 211 372 36 55 37 57 8 25 -55 -61
-206 -266 -276 -376 -62 -96 -70 -105 -93 -100 -26 6 -26 6 -4 -7 l23 -12 -22
-35 c-11 -19 -42 -74 -67 -121 l-46 -86 -1 121 c0 107 -3 129 -27 190 -28 72
-100 188 -138 221 -13 12 -6 -5 20 -44 77 -120 104 -273 72 -411 -23 -102
-113 -265 -231 -420 -123 -162 -232 -316 -305 -432 -27 -43 -50 -76 -52 -74
-7 7 47 216 83 324 71 211 192 462 303 627 64 95 69 107 27 60 -141 -158 -268
-325 -376 -499 -66 -105 -183 -334 -216 -421 l-19 -50 -6 105 c-4 58 -7 186
-8 286 0 99 -4 243 -8 320 l-7 139 -47 -465 c-26 -256 -48 -467 -48 -469 -1
-2 -9 3 -18 11 -10 9 -36 25 -59 36 -57 29 -98 93 -91 143 6 44 46 129 64 136
7 3 13 9 13 15 0 12 -48 -22 -87 -62 l-30 -30 -12 108 -12 108 31 80 c17 43
58 133 91 200 54 111 62 122 99 139 22 10 38 20 36 22 -2 3 -14 -1 -26 -7 -12
-6 -24 -9 -27 -6 -13 13 210 350 252 380 16 13 56 33 88 46 32 12 56 24 54 27
-6 5 -166 -57 -173 -68 -3 -5 -10 -9 -16 -9 -5 0 14 30 43 68 28 37 56 73 62
80 5 6 7 12 4 12 -8 0 -241 -260 -323 -360 -42 -52 -108 -139 -146 -192 -39
-54 -73 -98 -78 -98 -11 0 -188 -98 -237 -132 -23 -15 -44 -28 -47 -28 -2 0
13 39 33 88 21 48 46 117 55 153 21 84 21 229 0 300 -22 76 -80 182 -126 232
l-38 42 32 -49 c104 -160 114 -363 27 -546 -39 -84 -98 -180 -109 -180 -8 0
-99 129 -134 187 -4 8 8 20 34 33 22 11 40 22 40 25 0 5 -41 -10 -70 -25 -16
-8 -27 2 -81 73 -34 45 -66 87 -70 93 -6 7 27 19 104 38 135 32 250 66 245 71
-2 2 -37 -4 -78 -15 -41 -10 -118 -26 -170 -35 -52 -9 -102 -18 -111 -21 -11
-3 -45 28 -107 98 -49 57 -122 137 -162 178 l-71 75 64 -85 c35 -47 94 -129
131 -182 l66 -96 -57 -12 c-32 -6 -73 -15 -90 -20 -44 -11 -133 12 -156 42
-10 13 -45 67 -79 121 l-60 98 27 39 c15 22 34 45 41 51 8 6 14 16 14 22 0 6
-21 -13 -47 -42 l-48 -53 -65 93 c-71 101 -200 266 -200 255 0 -4 22 -39 48
-79 27 -40 77 -123 112 -185 73 -130 73 -119 -18 -219 l-57 -63 -75 19 c-80
20 -109 20 -41 0 64 -19 41 -22 -29 -4 -34 9 -64 14 -67 11 -3 -2 15 -10 38
-16 24 -6 68 -18 97 -27 l52 -15 -52 -66 c-28 -37 -54 -69 -56 -72 -2 -3 -16
11 -31 30 -14 19 -61 76 -104 128 l-78 93 20 27 c31 44 52 59 124 87 37 15 66
29 64 31 -9 10 -172 -61 -201 -86 l-31 -28 -31 28 c-30 26 -191 96 -200 87 -2
-2 28 -17 66 -32 89 -36 163 -110 130 -130 -20 -12 -201 -245 -275 -355 -43
-63 -82 -119 -86 -124 -4 -4 -23 26 -43 68 l-35 77 41 67 c22 37 54 86 70 110
50 73 27 56 -52 -38 -41 -49 -77 -89 -80 -90 -3 0 -22 33 -42 73 -58 112 -162
281 -250 407 -81 114 -217 290 -225 290 -2 0 14 -26 35 -57 97 -145 225 -385
297 -558 48 -116 95 -245 95 -261 0 -7 -25 -49 -55 -93 -31 -44 -84 -127 -119
-185 l-63 -105 -106 142 c-160 213 -223 346 -242 503 l-7 62 52 17 c28 9 49
19 47 21 -2 3 -16 0 -31 -6 -15 -5 -36 -10 -46 -10 -17 0 -17 3 -4 63 18 74
52 153 91 204 23 32 24 35 5 18 -40 -34 -112 -151 -139 -227 -15 -40 -27 -74
-27 -75 -2 -4 -340 -63 -348 -61 -17 6 182 392 272 528 75 113 67 108 -32 -18z
m6027 -259 c36 -47 65 -90 65 -96 0 -5 -15 -27 -34 -47 l-34 -38 -22 60 c-12
33 -35 83 -51 110 -16 27 -29 53 -29 59 0 16 24 48 32 43 5 -3 38 -44 73 -91z
m-85 -63 c11 -36 21 -89 22 -119 3 -60 5 -58 -84 -75 l-38 -7 0 39 c0 55 15
128 40 196 26 67 30 64 60 -34z m3707 -72 c37 -54 65 -99 62 -101 -2 -2 -37
-10 -77 -19 l-72 -15 -45 78 -45 78 32 66 33 66 23 -28 c12 -15 53 -72 89
-125z m-1743 -28 c36 -54 66 -104 66 -109 0 -6 -28 -48 -62 -94 -35 -46 -70
-94 -79 -107 l-15 -24 -66 56 c-36 31 -73 60 -82 65 -15 8 -12 20 27 114 24
57 59 133 76 167 31 61 33 63 51 47 10 -9 48 -61 84 -115z m-8535 17 c30 -45
69 -106 88 -134 l33 -53 -48 -24 c-27 -14 -63 -37 -81 -52 -18 -14 -34 -24
-36 -22 -12 12 -45 166 -45 208 0 52 19 160 29 160 3 0 30 -37 60 -83z m2531
1 c21 -46 38 -84 36 -85 -1 -2 -40 4 -87 12 -46 8 -85 15 -87 15 -3 0 92 139
96 140 2 0 21 -37 42 -82z m7057 -103 c-6 -111 -37 -202 -113 -332 -30 -51
-57 -93 -60 -93 -2 0 -35 18 -73 41 l-68 40 36 69 c31 60 42 72 83 91 55 26
59 37 5 14 -21 -8 -37 -13 -37 -10 0 12 145 246 189 304 l25 34 9 -34 c5 -19
7 -74 4 -124z m-2810 80 c20 -31 21 -34 5 -39 -37 -10 -92 -17 -92 -11 0 9 52
85 59 85 3 0 16 -16 28 -35z m-4701 -152 l71 -117 -61 -92 -61 -92 -5 121 c-6
140 -13 123 -31 -73 -6 -69 -17 -136 -24 -150 -15 -28 -172 -186 -178 -179 -6
6 -37 314 -37 363 0 38 57 147 166 318 l47 73 21 -28 c12 -15 53 -80 92 -144z
m8007 65 l15 -37 -45 -15 c-24 -8 -43 -12 -41 -8 2 4 12 31 22 60 22 56 26 56
49 0z m-9347 -61 c2 -173 57 -309 234 -576 l101 -153 -45 -106 c-24 -59 -48
-119 -51 -134 -4 -16 -10 -28 -14 -28 -3 0 -26 34 -50 75 -25 41 -65 94 -89
117 -24 24 -43 39 -40 33 2 -5 22 -48 45 -95 57 -120 97 -245 89 -281 -3 -17
-20 -62 -38 -102 -17 -40 -37 -97 -43 -127 l-12 -55 -12 75 c-59 352 -202 723
-402 1042 -47 74 -53 90 -58 155 -8 89 -21 107 -21 27 0 -54 -1 -57 -15 -37
-12 17 -12 27 -3 54 6 19 15 38 19 43 5 6 9 19 9 31 0 46 23 58 192 101 89 23
172 43 183 43 19 1 20 -6 21 -102z m6098 60 c79 -133 156 -273 156 -283 0 -7
-30 -34 -67 -60 -38 -26 -99 -72 -136 -101 -79 -63 -73 -65 -143 38 l-47 69
27 89 c15 50 30 126 33 169 l6 79 61 15 c86 22 89 22 110 -15z m-4238 -40 c1
-1 4 -11 8 -22 5 -17 -5 -28 -58 -63 -35 -23 -97 -73 -139 -112 l-75 -70 -15
24 c-15 23 -15 25 21 50 43 30 34 35 -13 6 l-32 -20 -22 30 c-25 34 -27 27 50
157 l49 81 112 -29 c61 -16 112 -30 114 -32z m5359 -2 c83 -24 205 -73 205
-82 0 -2 -17 -38 -38 -81 -22 -42 -49 -103 -62 -134 -13 -32 -27 -58 -30 -58
-4 0 -15 21 -25 48 -10 26 -50 110 -89 187 -39 77 -72 143 -74 148 -2 4 2 5
10 2 7 -3 54 -16 103 -30z m2477 -83 c65 -114 148 -276 148 -287 0 -4 -12 2
-27 13 -16 10 -74 45 -131 76 l-103 57 -54 108 -54 108 72 21 c40 11 74 21 77
21 3 1 35 -52 72 -117z m-7413 57 c17 -28 31 -52 31 -55 0 -2 -31 12 -70 31
-38 19 -76 35 -85 35 -46 0 16 30 81 39 6 0 25 -22 43 -50z m3519 -4 c-36 -49
-48 -55 -48 -26 0 11 -3 26 -6 35 -4 11 4 18 28 25 57 16 60 12 26 -34z m1273
-131 c40 -114 99 -332 99 -363 0 -10 -20 -36 -44 -59 l-44 -42 -41 75 c-23 41
-75 125 -116 186 -41 62 -75 115 -75 119 0 4 35 65 77 136 l77 129 14 -35 c8
-19 32 -85 53 -146z m-1392 57 l12 -69 -57 -86 c-36 -54 -61 -83 -68 -78 -67
42 -166 114 -166 122 0 28 214 179 256 180 6 0 16 -31 23 -69z m2276 -21 c20
-36 56 -106 80 -157 l45 -92 -23 -40 c-19 -33 -94 -101 -111 -101 -2 0 -16 21
-31 48 -15 26 -52 80 -82 121 l-55 73 23 50 c19 41 33 55 79 78 60 32 63 39 7
15 -20 -8 -39 -15 -42 -15 -2 0 9 23 26 51 18 28 35 47 40 42 4 -4 24 -37 44
-73z m1443 31 c8 -23 12 -45 9 -47 -3 -3 -27 4 -53 15 -69 31 -64 19 7 -15 41
-19 65 -37 71 -54 39 -98 110 -399 124 -527 l6 -62 -42 -48 c-23 -26 -72 -99
-108 -160 -37 -62 -69 -113 -72 -113 -14 0 -31 77 -59 266 -17 111 -31 213
-31 228 0 14 -4 26 -9 26 -10 0 -19 -61 -28 -191 l-6 -98 -58 77 c-41 52 -59
85 -59 105 0 81 105 498 140 555 18 30 124 94 144 88 6 -1 16 -21 24 -45z
m-7299 0 c25 -17 64 -48 85 -70 38 -39 39 -42 21 -55 -11 -8 -24 -12 -31 -9
-14 5 -138 163 -128 163 4 0 28 -13 53 -29z m-64 -27 c15 -25 24 -48 22 -51
-3 -3 -17 18 -31 46 -33 63 -27 67 9 5z m-2607 2 c9 -21 4 -41 -37 -136 l-48
-111 -25 38 c-52 79 -59 98 -42 121 17 24 122 112 133 112 4 0 13 -11 19 -24z
m2517 -130 c27 -89 33 -122 24 -132 -24 -30 -213 -167 -216 -158 -2 6 -23 45
-47 87 l-44 78 58 77 c69 91 168 188 180 176 5 -5 25 -62 45 -128z m4768 -87
c-32 -48 -62 -88 -66 -88 -4 -1 -23 11 -42 26 l-33 27 30 60 c17 34 46 89 65
124 l36 63 34 -62 34 -62 -58 -88z m856 134 c23 -27 41 -50 41 -53 0 -4 -122
-75 -152 -88 -8 -4 13 77 38 146 9 23 19 42 24 42 5 0 27 -21 49 -47z m-5464
-43 c9 -18 11 -31 5 -35 -7 -5 -40 53 -40 72 0 11 22 -11 35 -37z m140 9 c-4
-5 -13 -9 -22 -9 -13 0 -13 3 -3 15 13 15 35 11 25 -6z m6125 -15 c0 -13 -31
0 -40 17 -11 20 -11 20 14 4 14 -10 26 -19 26 -21z m-6905 -15 c-10 -15 -25
-10 -19 6 4 8 10 12 15 9 5 -3 7 -10 4 -15z m826 -16 c13 -15 12 -15 -8 -4
-24 12 -29 21 -14 21 5 0 15 -7 22 -17z m3259 -102 c0 -3 -4 -11 -8 -18 -5 -8
-28 14 -66 64 l-58 76 66 -58 c36 -31 66 -60 66 -64z m-4575 -208 c-4 -62 -10
-113 -13 -113 -6 0 -52 139 -69 208 -4 15 10 58 38 125 l44 101 3 -104 c2 -58
0 -156 -3 -217z m4177 255 c-26 -35 -62 -86 -80 -113 -35 -56 -112 -217 -112
-234 0 -6 -4 -11 -10 -11 -5 0 -10 19 -10 43 0 23 -3 59 -6 79 -6 37 -5 39
123 168 72 71 133 130 137 130 3 0 -15 -28 -42 -62z m3256 42 c-13 -20 -28
-27 -28 -12 0 10 22 32 32 32 5 0 3 -9 -4 -20z m-6909 -28 l20 -39 -34 -51
c-36 -52 -127 -230 -140 -270 -5 -19 -9 -21 -21 -11 -21 17 -28 4 -11 -23 12
-20 11 -29 -4 -73 l-18 -50 1 103 c0 97 3 110 43 216 23 62 48 124 55 137 11
21 79 99 87 99 1 0 11 -17 22 -38z m4756 11 c-3 -16 -14 -125 -26 -243 -11
-118 -22 -216 -23 -218 -2 -1 -16 17 -31 40 -15 24 -57 83 -93 131 l-65 89
114 114 c63 62 117 114 121 114 4 0 5 -12 3 -27z m225 -41 c0 -4 -4 -13 -9
-20 -6 -10 -17 1 -40 39 l-33 52 41 -32 c23 -18 41 -36 41 -39z m-7606 -16
c52 -114 52 -109 11 -191 l-37 -75 -93 78 c-51 42 -94 80 -94 84 -1 7 169 178
176 178 2 0 19 -33 37 -74z m8714 -8 c-28 -46 -79 -140 -113 -211 -35 -70 -66
-124 -68 -119 -17 27 -18 91 -1 168 16 81 20 88 63 124 53 45 153 118 163 119
3 1 -16 -36 -44 -81z m2090 41 c31 -22 94 -70 139 -107 l83 -67 34 -105 c19
-58 33 -107 31 -109 -3 -2 -20 10 -40 28 -46 40 -52 39 -20 -3 39 -51 58 -119
52 -185 -5 -54 -24 -111 -37 -111 -3 0 -16 20 -27 44 -12 24 -42 68 -66 98
-37 46 -50 74 -76 164 -29 103 -89 274 -125 357 -9 20 -14 37 -10 37 3 0 31
-18 62 -41z m-10119 -48 c33 -79 33 -80 26 -186 -4 -58 -8 -105 -10 -103 -38
42 -114 157 -111 168 2 8 14 57 27 108 12 50 25 92 28 92 3 0 21 -36 40 -79z
m2751 21 c58 -44 82 -71 107 -117 18 -33 33 -65 33 -71 0 -19 -41 -61 -46 -47
-10 23 -136 228 -160 261 -14 17 -21 32 -17 32 4 -1 42 -27 83 -58z m627 -3
c-18 -30 -49 -82 -68 -116 -18 -35 -36 -63 -39 -63 -3 0 -23 17 -43 38 l-38
39 63 49 c73 58 152 113 156 109 2 -2 -12 -27 -31 -56z m-3716 -21 c17 -35 40
-75 50 -89 20 -29 21 -25 -56 -264 l-13 -40 -25 55 c-14 30 -44 89 -67 130
l-41 75 21 44 c24 50 87 151 95 151 2 0 19 -28 36 -62z m1476 -25 l20 -88 -40
-80 c-22 -44 -54 -113 -72 -152 l-32 -73 -31 39 -32 40 31 93 c18 51 49 134
71 183 22 50 42 98 45 108 10 33 20 16 40 -70z m5641 -14 l40 -97 -40 -73
c-22 -41 -42 -76 -44 -78 -2 -2 -4 76 -4 174 0 98 2 176 4 174 2 -2 22 -47 44
-100z m530 -31 c61 -150 105 -278 98 -285 -3 -3 -18 10 -33 28 -15 19 -66 75
-114 124 l-88 90 36 83 c19 45 39 82 43 82 4 0 30 -55 58 -122z m-4623 -103
c59 -160 66 -189 48 -215 -15 -22 -18 -18 -54 106 -21 71 -53 170 -72 221 -23
61 -31 93 -23 96 12 4 51 -75 101 -208z m6335 167 c25 -20 47 -37 48 -38 5 -4
-79 -114 -87 -114 -3 0 -21 24 -39 54 l-32 54 20 47 c22 51 20 51 90 -3z
m-3206 -185 l29 -85 -45 -110 c-37 -88 -215 -398 -224 -389 -1 1 6 43 17 92
23 109 60 220 99 300 16 33 27 61 25 63 -5 5 -99 -110 -145 -178 -59 -87 -73
-81 -50 24 35 160 106 339 183 466 l21 34 31 -66 c16 -37 43 -105 59 -151z
m2912 96 c-5 -5 -46 65 -46 80 0 7 12 -8 25 -32 14 -24 24 -46 21 -48z m-506
-36 l48 -100 -67 -76 c-83 -95 -139 -168 -186 -246 l-36 -60 6 40 c17 96 78
313 116 412 22 59 43 116 46 125 9 29 23 10 73 -95z m-1912 -45 c-14 -16 -17
-15 -72 35 l-45 43 21 36 21 35 43 -68 c32 -51 40 -71 32 -81z m726 43 c-10
-20 -22 -39 -26 -41 -4 -3 -16 12 -27 33 -17 35 -18 42 -5 73 l15 34 31 -32
32 -31 -20 -36z m-4575 -12 c28 -151 41 -256 51 -412 l10 -164 -32 -69 -31
-69 -33 118 c-40 146 -93 297 -138 396 l-34 76 21 28 c24 32 158 162 168 163
3 0 11 -30 18 -67z m6921 2 c-6 -15 -13 -25 -16 -23 -2 3 1 17 7 32 16 34 23
27 9 -9z m-7358 -193 c-27 -31 -63 -77 -80 -101 -18 -24 -32 -39 -32 -33 0 35
83 286 107 325 4 6 17 -21 31 -61 l24 -72 -50 -58z m1179 113 c12 -17 1 -10
-25 18 -25 27 -46 54 -46 60 1 13 37 -28 71 -78z m5986 74 c9 -9 6 -23 -11
-58 -13 -25 -34 -74 -46 -108 -12 -35 -27 -60 -32 -57 -5 4 -18 20 -28 36
l-18 31 55 83 c31 46 59 84 63 84 3 0 11 -5 17 -11z m-2977 -99 c6 -11 -4 -29
-34 -64 l-42 -49 -21 56 -20 55 26 42 26 41 28 -33 c16 -18 32 -40 37 -48z
m2403 22 c9 -31 17 -61 17 -67 -1 -12 -86 -224 -93 -231 -9 -10 -29 97 -23
124 16 65 70 232 75 232 3 0 14 -26 24 -58z m-9478 -31 c112 -119 107 -108 86
-182 -21 -71 -15 -75 -59 36 -11 28 -37 87 -59 133 -22 45 -38 82 -36 82 2 0
33 -31 68 -69z m4329 -3 c-4 -29 -10 -62 -14 -73 -7 -17 -9 -18 -15 -4 -6 16
21 129 31 129 3 0 2 -24 -2 -52z m3769 -79 l88 -131 -18 -27 c-9 -14 -36 -59
-60 -100 -24 -43 -44 -68 -47 -60 -2 8 -10 32 -16 54 -7 22 -30 87 -52 144
l-41 104 23 73 c13 41 26 74 29 74 3 0 46 -59 94 -131z m-1932 -173 l-9 -215
-33 -58 -34 -58 -21 210 -21 210 61 94 c74 115 71 124 57 -183z m1086 247 c6
-10 34 -52 63 -93 50 -73 46 -70 -46 37 -41 49 -54 73 -36 73 4 0 12 -8 19
-17z m2483 -48 c0 -7 -6 -18 -14 -24 -11 -9 -16 -6 -23 16 -5 15 -7 37 -5 48
4 18 5 18 23 -4 11 -13 19 -29 19 -36z m-8732 -82 c17 -62 29 -113 28 -113 -2
0 -14 17 -28 38 -19 28 -27 57 -32 117 -4 44 -5 77 -2 75 2 -3 18 -56 34 -117z
m9173 26 c-11 -41 -27 -110 -37 -153 -12 -57 -19 -74 -26 -63 -9 18 9 118 44
235 28 96 45 79 19 -19z m-1705 25 c-10 -30 -16 -35 -21 -22 -4 9 1 28 11 43
23 35 27 27 10 -21z m-8166 -21 c0 -50 -2 -55 -14 -43 -12 12 -13 23 -3 58 6
23 12 42 14 42 2 0 3 -26 3 -57z m3501 -14 c-9 -22 -10 -22 -10 -3 -1 11 2 24
6 27 12 12 14 0 4 -24z m3909 -100 c-11 -41 -17 -56 -14 -34 7 54 24 118 30
113 2 -3 -5 -38 -16 -79z m3101 -188 c-39 -37 -71 -65 -71 -61 0 18 52 154 85
225 l38 80 10 -87 9 -88 -71 -69z m-7871 2 c-39 -36 -83 -86 -97 -110 -14 -24
-27 -42 -29 -40 -11 10 122 290 160 336 8 11 14 -1 24 -52 l13 -66 -71 -68z
m-865 92 c-3 -11 -13 -31 -24 -44 -18 -23 -18 -22 -2 59 15 82 16 83 24 44 4
-21 5 -48 2 -59z m9064 -5 c21 -54 27 -78 19 -87 -19 -23 -25 -14 -37 55 -6
37 -14 78 -17 92 -12 44 4 17 35 -60z m-11292 48 c-3 -8 -6 -5 -6 6 -1 11 2
17 5 13 3 -3 4 -12 1 -19z m4020 -20 c-3 -8 -6 -5 -6 6 -1 11 2 17 5 13 3 -3
4 -12 1 -19z m5969 -134 l4 -39 -15 45 c-18 54 -18 57 -5 44 6 -6 13 -28 16
-50z m-5586 -66 c0 -47 -16 -39 -28 13 -7 28 -12 58 -12 67 1 28 39 -50 40
-80z m-2505 -83 c-33 -143 -34 -145 -28 -55 3 55 11 91 21 103 8 9 16 16 18
14 2 -1 -3 -29 -11 -62z"/>
</g>
</svg>
