<?xml version="1.0" standalone="no"?>
<!DOCTYPE svg PUBLIC "-//W3C//DTD SVG 20010904//EN"
 "http://www.w3.org/TR/2001/REC-SVG-20010904/DTD/svg10.dtd">
<svg version="1.0" xmlns="http://www.w3.org/2000/svg"
 width="1280.000000pt" height="1280.000000pt" viewBox="0 0 1280.000000 1280.000000"
 preserveAspectRatio="xMidYMid meet">
<metadata>
Created by potrace 1.15, written by Peter Selinger 2001-2017
</metadata>
<g transform="translate(0.000000,1280.000000) scale(0.100000,-0.100000)"
fill="#ffffff" fill-opacity="0.25" stroke="none">
<path d="M 2235 12523 c -38 -7 -73 -17 -79 -23 c -5 -5 -27 -10 -47 -10 c -38 0 -58 -13 -39 -25 c 6 -4 8 -11 5 -16 c -4 -5 0 -9 7 -9 c 10 0 10 -2 -1 -9 c -11 -7 -9 -10 9 -16 c 15 -5 19 -10 12 -17 c -7 -7 1 -21 26 -44 c 20 -19 40 -34 45 -34 c 11 0 8 -17 -5 -32 c -14 -14 -18 -33 -20 -83 c -1 -45 12 -75 33 -75 c 12 0 16 -5 13 -15 c -4 -8 -1 -15 5 -15 c 6 0 8 -7 5 -15 c -4 -8 -1 -15 6 -15 c 20 0 130 -72 124 -81 c -3 -5 -31 -9 -62 -9 c -64 0 -104 -8 -97 -20 c 3 -4 -3 -18 -13 -30 c -19 -23 -19 -70 0 -70 c 5 0 6 -4 3 -10 c -3 -5 -1 -10 4 -10 c 6 0 11 -9 11 -19 c 0 -11 9 -22 19 -26 c 11 -3 23 -15 26 -26 c 4 -10 13 -19 21 -19 c 8 0 14 -4 14 -10 c 0 -5 6 -10 14 -10 c 8 0 16 -6 19 -14 c 3 -8 19 -17 35 -21 c 17 -3 33 -13 36 -21 c 5 -12 1 -14 -17 -8 c -12 5 -33 7 -47 5 c -14 -1 -44 -3 -67 -4 c -36 -1 -43 -5 -43 -22 c 0 -12 -5 -26 -12 -33 c -18 -18 -20 -52 -3 -58 c 8 -4 13 -10 10 -14 c -2 -4 4 -15 15 -25 c 11 -10 20 -24 20 -32 c 0 -7 4 -13 9 -13 c 5 0 12 -11 15 -25 c 4 -14 13 -25 22 -25 c 14 0 48 -15 94 -41 c 8 -5 39 -21 68 -35 c 28 -15 52 -30 52 -34 c 0 -4 -32 -10 -71 -13 c -39 -3 -77 -11 -84 -17 c -8 -7 -29 -10 -47 -9 c -46 4 -65 -9 -41 -27 c 14 -10 14 -13 4 -14 c -11 0 -9 -4 5 -15 c 15 -11 16 -15 4 -15 c -8 -1 -1 -8 15 -15 c 17 -8 24 -14 18 -15 c -18 0 -16 -29 2 -36 c 8 -4 15 -11 15 -18 c 0 -6 12 -19 28 -28 c 15 -9 39 -27 54 -41 c 15 -14 52 -33 82 -42 c 31 -10 56 -20 56 -24 c -1 -26 -22 -31 -130 -29 c -82 2 -115 -1 -118 -10 c -2 -6 -11 -12 -20 -13 c -11 0 -12 -2 -4 -6 c 6 -2 12 -21 12 -40 c 0 -23 9 -48 25 -69 c 14 -18 25 -37 25 -43 c 0 -6 14 -11 30 -11 c 20 0 30 -5 30 -15 c 0 -8 4 -15 9 -15 c 5 0 11 -9 14 -20 c 3 -11 13 -20 24 -20 c 10 -1 36 -9 58 -20 c 39 -19 33 -26 -18 -20 c -10 1 -24 -3 -30 -8 c -17 -12 -154 -35 -167 -27 c -5 3 -10 2 -10 -4 c 0 -5 -9 -8 -20 -6 c -11 2 -20 0 -20 -6 c 0 -5 -8 -9 -17 -9 c -14 0 -18 -8 -17 -38 c 0 -50 12 -82 30 -82 c 8 0 12 -4 9 -10 c -3 -5 -2 -10 4 -10 c 5 0 12 -9 16 -19 c 3 -10 18 -22 32 -26 c 15 -3 34 -14 42 -24 c 9 -10 29 -21 45 -25 c 15 -4 35 -13 42 -21 c 7 -7 32 -16 54 -20 c 45 -8 56 -32 13 -29 c -16 1 -30 3 -33 4 c -3 1 -9 1 -15 0 c -5 -1 -38 -3 -72 -3 c -35 -1 -63 -6 -63 -11 c 0 -4 -6 -4 -12 2 c -15 11 -82 11 -94 0 c -4 -5 -24 -8 -45 -8 c -30 0 -38 -4 -37 -17 c 0 -10 -2 -37 -6 -60 c -5 -36 -3 -43 14 -48 c 11 -4 18 -11 14 -16 c -3 -5 8 -15 25 -22 c 17 -7 28 -16 24 -20 c -3 -4 -1 -7 6 -7 c 7 0 9 -4 6 -10 c -3 -5 3 -10 15 -10 c 12 0 19 -4 16 -8 c -10 -17 25 -53 45 -47 c 11 4 19 2 19 -4 c 0 -6 9 -11 20 -11 c 11 0 20 -4 20 -10 c 0 -5 11 -10 24 -10 c 27 0 43 -15 27 -24 c -5 -4 -12 -2 -15 2 c -5 9 -120 7 -156 -1 c -8 -2 -33 -7 -55 -12 c -22 -4 -48 -14 -57 -22 c -10 -9 -28 -13 -41 -11 c -13 3 -32 -1 -41 -8 c -16 -11 -16 -13 5 -19 c 17 -6 19 -9 8 -16 c -11 -7 -9 -10 9 -15 c 24 -7 29 -20 10 -27 c -7 -3 3 -6 22 -7 c 29 0 32 -3 20 -13 c -21 -17 -23 -37 -3 -37 c 9 0 14 -3 10 -6 c -7 -8 17 -34 32 -34 c 6 0 11 -4 11 -10 c 0 -5 7 -10 15 -10 c 8 0 15 -4 15 -9 c 0 -5 9 -11 21 -14 c 12 -3 18 -10 15 -15 c -3 -5 16 -17 42 -27 c 76 -28 154 -66 148 -72 c -3 -3 -18 -1 -33 6 c -15 6 -37 11 -48 11 c -11 -1 -39 1 -62 3 c -24 3 -43 0 -43 -5 c 0 -5 -35 -9 -77 -8 c -43 1 -91 -2 -108 -6 c -35 -9 -60 -30 -45 -39 c 5 -3 10 -24 10 -46 c 0 -21 4 -39 9 -39 c 5 0 20 -20 32 -45 c 19 -38 27 -45 52 -45 c 22 0 28 -4 23 -15 c -3 -9 0 -15 9 -15 c 8 0 15 -9 15 -20 c 0 -12 7 -20 17 -20 c 9 0 67 -25 130 -56 c 62 -30 140 -61 173 -67 c 46 -10 57 -15 50 -27 c -6 -10 -12 -11 -22 -3 c -7 6 -40 13 -73 17 c -33 4 -77 9 -97 12 c -21 4 -46 3 -55 -1 c -10 -5 -27 -9 -38 -11 c -11 -1 -31 -6 -45 -9 c -14 -4 -37 -8 -52 -8 c -16 -1 -28 -5 -28 -9 c 0 -4 -9 -8 -21 -8 c -11 0 -18 -4 -15 -9 c 4 -5 -3 -7 -14 -4 c -18 5 -19 2 -12 -18 c 5 -13 6 -33 3 -43 c -9 -23 19 -87 33 -79 c 5 4 7 -1 3 -10 c -3 -10 -2 -17 3 -17 c 5 0 11 -8 14 -18 c 4 -11 18 -25 31 -32 c 14 -8 24 -18 22 -24 c -4 -12 17 -36 31 -36 c 12 0 82 -63 82 -74 c 0 -4 -10 -4 -22 0 c -13 4 -57 9 -98 11 c -98 4 -100 4 -135 -1 c -16 -2 -35 -5 -41 -5 c -6 -1 -15 -38 -21 -83 c -11 -78 -10 -83 10 -101 c 15 -13 18 -20 9 -26 c -8 -5 -6 -12 8 -24 c 11 -9 26 -17 32 -17 c 7 0 3 -7 -8 -15 c -17 -13 -17 -14 -2 -15 c 11 0 15 -5 12 -15 c -4 -9 0 -15 9 -15 c 9 0 13 -8 12 -25 c -2 -14 1 -25 6 -25 c 5 0 8 -3 8 -7 c -4 -22 3 -32 16 -27 c 9 4 15 0 15 -10 c 0 -9 6 -16 14 -16 c 8 0 17 -7 20 -16 c 3 -9 13 -14 21 -11 c 8 4 17 -2 21 -15 c 8 -27 36 -58 52 -58 c 7 0 15 -6 18 -14 c 8 -21 82 -48 126 -48 c 20 1 36 -18 16 -19 c -7 0 -23 -2 -35 -3 c -13 -2 -23 2 -23 7 c 0 5 -11 6 -25 3 c -14 -4 -25 -3 -25 2 c 0 4 -17 8 -37 7 c -21 0 -44 4 -51 9 c -7 5 -15 6 -19 3 c -3 -4 -11 -3 -17 2 c -10 8 -35 5 -116 -13 c -41 -9 -60 -20 -60 -33 c 0 -11 -9 -14 -34 -11 c -40 4 -66 -22 -41 -42 c 8 -6 12 -17 9 -24 c -3 -7 2 -19 11 -26 c 12 -10 13 -15 4 -21 c -8 -4 -2 -12 17 -23 c 16 -8 23 -15 17 -16 c -16 0 -17 -40 -2 -40 c 6 0 9 -7 5 -15 c -3 -8 -1 -15 4 -15 c 6 0 10 -7 10 -15 c 0 -7 8 -19 18 -24 c 9 -6 14 -11 10 -11 c -4 0 6 -13 22 -29 c 15 -17 31 -39 35 -50 c 3 -12 11 -21 16 -21 c 5 0 20 -9 32 -20 c 12 -12 32 -23 44 -26 c 13 -4 23 -10 23 -15 c 0 -5 9 -9 19 -9 c 11 0 22 -4 25 -8 c 3 -5 20 -10 38 -11 c 56 -3 58 -4 58 -13 c 0 -5 25 -7 55 -5 c 30 2 55 0 55 -4 c 0 -5 23 -7 50 -5 c 28 2 67 0 88 -4 c 20 -5 62 -12 92 -15 c 159 -18 164 -23 24 -21 c -77 2 -146 6 -152 10 c -7 4 -18 4 -25 -1 c -7 -5 -30 -8 -52 -6 c -215 20 -324 20 -335 2 c -8 -12 -46 -19 -95 -19 c -31 0 -95 -31 -95 -47 c 0 -7 -5 -13 -12 -13 c -7 0 -5 -7 5 -17 c 8 -10 18 -33 20 -51 c 3 -19 13 -42 22 -52 c 9 -10 14 -23 11 -28 c -3 -6 1 -12 9 -16 c 8 -3 21 -17 27 -32 c 9 -19 18 -25 35 -21 c 17 3 23 0 23 -14 c 0 -11 6 -19 14 -19 c 8 0 16 -10 18 -22 c 2 -17 11 -24 33 -26 c 17 -2 34 -8 39 -13 c 6 -5 20 -9 32 -9 c 12 0 24 -5 26 -11 c 2 -6 16 -11 31 -11 c 15 0 27 -4 27 -9 c 0 -11 97 -38 145 -40 c 70 -2 105 -11 105 -25 c 0 -10 -8 -12 -30 -8 c -17 4 -36 1 -45 -6 c -8 -6 -19 -9 -25 -5 c -5 3 -10 2 -10 -3 c 0 -5 -6 -9 -12 -9 c -99 -7 -123 -13 -141 -37 c -10 -15 -24 -26 -30 -26 c -7 0 -23 -12 -36 -25 c -13 -14 -34 -28 -46 -31 c -13 -3 -26 -12 -29 -20 c -3 -8 -13 -14 -22 -14 c -13 0 -14 -3 -4 -15 c 10 -13 9 -15 -8 -15 c -21 0 -21 0 -3 -32 c 10 -18 17 -40 17 -48 c -1 -20 55 -72 71 -66 c 7 3 13 -1 13 -10 c 0 -8 4 -12 10 -9 c 6 3 10 -1 10 -10 c 0 -9 4 -14 9 -11 c 5 4 11 2 13 -4 c 2 -6 18 -11 36 -13 c 19 -1 32 -7 32 -16 c 0 -8 6 -11 15 -7 c 8 3 15 2 15 -2 c 0 -4 17 -7 38 -7 c 20 0 45 -5 56 -12 c 10 -6 23 -10 30 -7 c 6 2 40 7 76 10 c 107 9 116 10 126 17 c 6 3 16 2 23 -3 c 8 -4 28 -4 45 1 c 40 12 107 8 103 -5 c -2 -6 -10 -11 -18 -11 c -8 0 -19 -6 -25 -14 c -6 -8 -16 -11 -22 -7 c -7 4 -12 2 -12 -4 c 0 -6 -5 -8 -10 -5 c -6 3 -13 0 -16 -8 c -3 -9 -17 -18 -30 -21 c -14 -4 -22 -11 -18 -17 c 4 -7 -1 -9 -15 -4 c -12 4 -21 2 -21 -4 c 0 -6 -3 -10 -7 -9 c -16 3 -43 -15 -43 -28 c 0 -8 -8 -18 -17 -21 c -47 -18 -47 -33 -1 -113 c 5 -8 11 -23 14 -32 c 6 -17 22 -23 53 -19 c 7 2 10 -2 6 -8 c -3 -7 2 -11 14 -11 c 12 0 21 -5 21 -11 c 0 -8 6 -7 17 2 c 15 12 16 12 10 -3 c -4 -12 -2 -15 9 -11 c 9 3 14 -1 14 -11 c 0 -13 4 -14 18 -7 c 18 10 47 -10 34 -25 c -4 -4 -1 -4 7 1 c 8 4 17 2 21 -6 c 6 -9 12 -10 22 -2 c 7 6 32 9 55 7 c 23 -2 44 0 48 5 c 3 6 16 6 33 0 c 18 -6 62 -6 115 -1 c 48 4 87 5 87 2 c 0 -3 -16 -18 -35 -35 c -19 -16 -35 -35 -35 -42 c 0 -7 -13 -19 -29 -27 c -36 -19 -48 -46 -21 -46 c 11 0 20 -7 20 -15 c 0 -10 10 -15 28 -15 c 22 0 24 -2 12 -11 c -11 -8 -6 -9 23 -5 c 29 4 36 2 29 -7 c -13 -16 6 -32 38 -32 c 14 0 28 -4 32 -10 c 4 -5 22 -10 40 -11 c 18 -1 35 -3 38 -4 c 3 -1 15 -1 28 0 c 12 1 22 -4 22 -10 c 0 -6 4 -9 8 -6 c 5 3 30 7 58 11 c 27 3 57 8 67 11 c 11 3 29 7 40 9 c 12 2 48 10 80 18 c 48 12 57 12 57 1 c 0 -8 -7 -14 -15 -14 c -8 0 -15 -4 -15 -8 c 0 -5 -19 -18 -43 -30 c -40 -20 -91 -74 -92 -97 c 0 -5 11 -19 25 -30 c 14 -10 29 -25 33 -32 c 4 -7 22 -13 39 -13 c 17 0 28 -3 24 -7 c -4 -4 12 -12 36 -18 c 35 -9 46 -8 60 3 c 14 12 20 12 33 2 c 9 -7 18 -10 22 -7 c 3 4 13 2 22 -3 c 12 -6 39 -1 86 15 c 37 13 71 24 74 23 c 3 -1 13 2 21 5 c 8 3 40 15 70 25 c 30 10 63 22 73 27 c 14 6 16 4 10 -11 c -4 -11 -14 -24 -22 -31 c -9 -7 -12 -13 -7 -13 c 6 0 1 -7 -10 -15 c -11 -9 -14 -14 -6 -15 c 7 0 24 -12 38 -27 c 25 -27 29 -28 159 -34 c 25 -2 111 13 120 20 c 8 7 53 20 85 26 c 16 2 140 78 155 95 c 10 11 22 20 27 20 c 5 0 16 7 24 15 c 9 8 22 15 29 15 c 16 0 11 -20 -13 -58 c -13 -21 -13 -24 4 -38 c 37 -28 55 -35 77 -28 c 26 9 25 9 105 28 c 58 15 142 59 142 76 c 0 4 14 13 30 20 c 40 17 150 126 228 225 c 34 44 83 105 107 135 c 25 30 50 65 55 78 c 5 12 14 22 20 22 c 5 0 10 6 10 13 c 0 7 11 24 24 38 c 13 14 31 39 39 56 c 9 16 37 61 64 100 c 26 38 63 102 82 141 l 35 72 l 41 0 c 50 0 72 20 114 105 c 34 70 47 116 57 203 c 4 34 10 62 14 62 c 4 0 28 -44 53 -99 c 43 -91 47 -105 47 -177 c 0 -138 56 -423 108 -550 c 31 -75 133 -233 178 -276 c 16 -14 51 -37 79 -50 c 50 -23 50 -24 62 -88 c 17 -94 16 -185 -3 -223 c -9 -18 -39 -64 -66 -104 c -48 -70 -91 -112 -243 -238 c -38 -32 -92 -79 -120 -106 c -27 -26 -68 -55 -89 -64 c -58 -25 -130 -90 -175 -159 c -85 -131 -106 -224 -97 -431 c 4 -82 9 -164 12 -182 l 6 -32 l -123 -60 l -124 -59 l -121 -4 c -116 -3 -123 -4 -200 -42 c -71 -35 -96 -56 -242 -205 c -90 -91 -189 -199 -220 -239 c -72 -91 -187 -181 -211 -163 c -77 56 -101 62 -139 35 c -70 -49 -72 -176 -3 -238 c 25 -23 26 -46 5 -88 c -29 -56 -12 -186 27 -211 c 24 -15 67 0 75 26 c 11 37 73 106 112 125 c 62 31 145 83 187 116 c 110 89 238 173 329 216 c 56 26 153 75 216 110 c 219 121 227 124 291 111 c 30 -6 75 -11 98 -11 c 51 0 157 26 188 46 c 12 7 43 18 69 24 c 46 10 48 10 81 -22 l 33 -32 l 0 36 l 0 35 l 78 12 c 42 7 94 17 115 22 c 30 8 49 6 96 -12 c 51 -18 78 -40 198 -158 c 76 -75 185 -180 241 -234 c 108 -104 160 -179 209 -302 l 28 -70 l 0 -260 c 1 -239 3 -266 23 -333 c 32 -105 65 -173 184 -382 c 58 -102 149 -267 202 -368 c 52 -100 136 -247 185 -325 c 101 -161 211 -390 237 -490 c 15 -62 15 -72 0 -132 c -34 -135 -18 -172 127 -295 c 42 -36 98 -96 125 -135 c 53 -76 123 -145 147 -145 c 8 0 29 -16 46 -35 c 37 -40 75 -47 87 -15 c 7 20 9 19 31 -10 c 26 -36 59 -37 77 -3 l 11 23 l 22 -30 c 24 -33 61 -40 81 -15 c 11 13 15 12 36 -10 c 28 -30 47 -32 73 -4 c 15 17 23 19 39 10 c 29 -16 74 -14 100 5 c 37 26 29 66 -26 127 c -27 29 -63 73 -79 98 c -17 24 -73 85 -123 134 c -57 56 -107 116 -132 160 c -22 39 -65 108 -94 155 c -29 47 -66 119 -83 160 c -16 41 -74 163 -128 270 c -194 382 -251 530 -348 890 c -26 96 -66 225 -90 285 c -52 134 -107 310 -135 430 c -12 50 -30 118 -42 151 c -20 60 -20 65 -3 168 c 23 151 4 272 -65 406 c -16 30 -41 84 -55 120 c -44 106 -180 370 -230 443 c -25 37 -46 72 -48 77 c -1 4 30 31 69 59 c 40 27 89 72 110 98 c 21 26 54 65 72 87 c 41 47 82 134 87 188 c 2 22 -3 75 -12 118 c -14 71 -14 92 0 236 c 14 132 29 207 87 434 c 39 151 83 336 99 410 c 26 128 31 140 86 223 c -1 105 38 224 -102 701 c -170 193 -192 246 -261 306 c -31 27 -56 55 -56 63 c 0 8 -10 32 -22 53 l -22 38 l 43 66 c 78 120 258 278 407 358 c 39 21 57 40 88 93 c 36 62 70 104 280 345 c 85 98 209 210 356 322 c 74 57 92 77 122 135 c 20 38 50 113 67 167 c 17 53 40 112 51 129 c 39 65 36 148 -6 148 c -19 0 -59 -64 -79 -125 c -9 -27 -27 -63 -41 -80 l -24 -30 l 0 33 c 0 18 -9 58 -19 90 c -12 34 -21 97 -24 154 c -4 95 -15 128 -42 128 c -6 0 -18 -26 -25 -57 c -7 -32 -19 -83 -27 -113 c -8 -30 -18 -80 -23 -110 c -4 -30 -14 -71 -23 -90 c -20 -45 -43 -128 -58 -207 c -13 -71 -23 -82 -149 -170 c -47 -33 -139 -98 -205 -146 c -66 -47 -153 -110 -194 -139 c -82 -58 -180 -151 -255 -241 c -41 -50 -63 -66 -140 -101 c -105 -50 -270 -159 -337 -223 l -47 -45 l -31 29 l -31 28 l -1 163 c -1 145 1 166 18 184 c 18 20 18 20 31 -9 l 13 -28 l -6 30 c -16 78 -17 90 -9 82 c 5 -5 14 -30 20 -55 c 7 -26 12 -37 13 -24 c 0 12 6 22 12 22 c 8 0 7 6 -2 17 c -10 11 -10 14 -1 9 c 8 -5 12 -1 12 12 c 0 11 9 22 20 25 c 12 3 20 14 20 25 c 0 11 5 22 11 24 c 6 2 11 29 11 63 c 0 82 -2 95 -24 118 c -29 28 -12 34 17 7 l 25 -24 l -15 31 c -8 17 -23 37 -33 44 c -15 13 -16 12 -3 -3 c 7 -10 9 -18 5 -18 c -5 0 -15 9 -22 21 c -8 12 -9 18 -3 14 c 30 -18 5 21 -42 66 c -28 28 -43 46 -31 41 c 11 -6 26 -18 34 -26 c 16 -20 31 -21 24 -1 c -8 20 -3 19 36 -10 c 18 -14 35 -23 37 -21 c 3 2 -6 26 -18 53 c -12 26 -22 55 -21 65 c 0 9 -16 36 -36 60 c -37 43 -37 43 -7 24 c 17 -10 38 -27 48 -38 c 9 -11 17 -16 17 -12 c 0 5 7 0 15 -10 c 13 -17 15 -18 15 -3 c 0 10 -9 25 -19 34 c -11 9 -18 20 -16 23 c 3 4 -7 18 -21 31 c -15 14 -24 18 -21 9 c 2 -8 2 -11 -1 -7 c -2 4 -21 19 -42 32 c -21 13 -45 39 -54 57 l -17 32 l 32 -29 c 18 -17 29 -23 24 -15 c -4 8 4 2 17 -14 c 14 -16 30 -26 36 -22 c 6 3 13 2 17 -4 c 3 -5 12 -10 18 -10 c 7 0 4 5 -6 11 c -13 7 -15 14 -8 23 c 7 8 5 12 -9 13 c -21 2 -69 50 -70 70 c 0 7 -13 27 -29 45 c -28 32 -28 36 -36 198 c -10 228 -18 855 -16 1210 c 3 333 -9 445 -60 603 c -58 176 -192 387 -247 387 c -22 0 -62 58 -77 110 c -13 45 -58 80 -183 141 c -135 65 -168 71 -189 29 c -26 -52 -16 -101 37 -182 c 28 -42 50 -86 50 -97 c 0 -31 61 -148 107 -205 c 36 -45 39 -52 29 -78 c -10 -26 -6 -39 34 -116 c 24 -47 59 -103 77 -122 c 30 -34 31 -39 21 -73 c -10 -33 -8 -42 33 -122 c 24 -48 61 -107 82 -131 c 38 -43 39 -47 33 -94 c -6 -43 -2 -59 27 -124 l 35 -74 l -14 -328 c -7 -181 -13 -406 -14 -500 c 0 -94 -3 -173 -6 -177 c -4 -3 -22 0 -41 8 c -44 18 -78 20 -48 3 c 10 -6 33 -14 49 -18 c 24 -4 31 -11 33 -32 c 2 -31 -14 -29 -54 8 c -13 12 -39 26 -56 30 c -28 6 -30 8 -12 15 c 11 4 15 8 9 8 c -5 1 -29 -8 -52 -19 c -22 -11 -50 -20 -61 -20 c -11 0 -59 -20 -107 -45 c -48 -24 -91 -42 -97 -38 c -6 3 -7 1 -3 -5 c 4 -7 1 -12 -8 -12 c -8 0 -22 -8 -31 -17 c -16 -16 -18 -15 -27 1 c -9 17 -11 16 -25 -3 c -8 -12 -22 -21 -31 -21 c -9 0 -30 -8 -47 -19 c -48 -30 -146 -132 -143 -149 c 3 -14 5 -14 19 1 c 16 15 17 14 15 -8 c 0 -16 -6 -23 -14 -20 c -8 3 -7 -4 4 -20 c 14 -21 14 -27 0 -57 c -24 -52 -56 -138 -56 -150 c 0 -6 7 -5 17 3 c 15 12 16 12 8 -1 c -5 -8 -17 -21 -27 -28 c -18 -13 -26 -38 -9 -28 c 5 3 -9 -42 -30 -99 c -31 -86 -37 -113 -33 -149 c 5 -32 10 -43 20 -39 c 8 3 14 1 14 -5 c 0 -6 -5 -12 -12 -14 c -7 -3 -8 -9 -3 -19 c 5 -8 8 -26 6 -40 c -1 -18 6 -35 23 -50 c 13 -13 26 -35 28 -49 c 2 -14 9 -24 15 -23 c 7 2 21 -9 31 -22 c 11 -14 25 -25 31 -25 c 6 0 17 -11 23 -25 c 6 -14 15 -25 20 -25 c 4 0 8 -8 8 -17 c 0 -14 2 -15 9 -4 c 5 8 18 12 31 8 c 17 -4 19 -3 10 8 c -21 25 -7 34 29 19 c 28 -12 33 -18 29 -39 c -4 -20 -3 -23 8 -14 c 21 17 65 3 58 -19 c -5 -16 -5 -16 5 0 c 8 11 20 15 38 12 c 35 -7 63 -22 63 -35 c 0 -6 10 -19 23 -30 c 12 -10 16 -18 10 -19 c -7 0 -13 5 -13 10 c 0 6 -18 -7 -41 -28 c -32 -31 -47 -39 -72 -37 c -19 1 -34 10 -39 21 c -12 25 -119 94 -146 94 c -20 0 -47 21 -128 97 c -13 12 -24 18 -24 12 c 0 -5 -12 -3 -27 5 c -79 40 -212 65 -363 67 c -100 2 -111 4 -225 49 c -66 26 -156 57 -201 69 c -140 37 -221 68 -337 130 c -129 69 -488 198 -662 237 c -60 14 -111 27 -114 29 c -6 7 76 339 151 609 c 108 388 346 1348 363 1462 c 37 247 8 408 -108 598 c -153 252 -267 378 -535 586 c -208 163 -254 192 -321 208 c -65 15 -158 73 -174 110 c -36 84 -190 162 -467 237 c -36 10 -92 28 -125 40 c -33 13 -71 26 -85 30 c -14 4 -30 11 -36 16 c -6 5 -24 10 -40 12 c -16 2 -47 12 -69 21 c -56 25 -96 38 -125 40 c -14 1 -31 6 -38 10 c -7 4 -16 5 -21 2 c -5 -3 -22 -1 -37 4 c -45 16 -183 17 -259 3 z m 285 -2227 c 0 -3 -4 -8 -10 -11 c -5 -3 -10 -1 -10 4 c 0 6 5 11 10 11 c 6 0 10 -2 10 -4 z m 85 -15 c -3 -6 -14 -9 -25 -8 c -24 2 -15 17 11 17 c 11 0 18 -4 14 -9 z m 40 -11 c 3 -6 -1 -7 -9 -4 c -18 7 -21 14 -7 14 c 6 0 13 -4 16 -10 z m 305 -70 c 0 -5 -4 -10 -10 -10 c -5 0 -10 5 -10 10 c 0 6 5 10 10 10 c 6 0 10 -4 10 -10 z m 30 0 c 0 -5 -4 -10 -10 -10 c -5 0 -10 5 -10 10 c 0 6 5 10 10 10 c 6 0 10 -4 10 -10 z m 85 -11 c 13 -13 -22 -16 -45 -4 c -24 13 -24 13 7 11 c 18 -1 34 -4 38 -7 z m -258 -715 c -3 -3 -12 -4 -19 -1 c -8 3 -5 6 6 6 c 11 1 17 -2 13 -5 z m 4050 -440 c -7 -7 -37 7 -37 17 c 0 6 9 5 21 -1 c 11 -7 19 -14 16 -16 z m -472 -83 c -3 -6 -11 -11 -17 -11 c -6 0 -6 6 2 15 c 14 17 26 13 15 -4 z m 784 -256 c 20 -35 14 -57 -9 -30 c -11 14 -23 65 -15 65 c 2 0 12 -16 24 -35 z m -4499 -105 c 0 -5 -5 -10 -11 -10 c -5 0 -7 5 -4 10 c 3 6 8 10 11 10 c 2 0 4 -4 4 -10 z m 60 -14 c 0 -3 -4 -8 -10 -11 c -5 -3 -10 -1 -10 4 c 0 6 5 11 10 11 c 6 0 10 -2 10 -4 z m 4521 -38 c 17 -32 -6 -19 -26 15 c -17 28 -17 30 -1 18 c 9 -8 22 -23 27 -33 z m -2970 -348 c 84 -33 190 -82 234 -107 c 116 -69 179 -97 273 -123 c 45 -13 81 -25 78 -27 c -11 -11 -436 -54 -556 -56 c -150 -2 -169 3 -197 56 c -15 26 -17 54 -15 157 c 2 124 7 160 21 160 c 4 0 77 -27 162 -60 z m -1809 -53 c 20 -1 35 -5 32 -8 c -7 -13 52 -27 69 -17 c 11 6 17 5 17 -2 c 0 -6 4 -9 9 -6 c 4 3 22 2 38 -3 c 17 -5 37 -5 46 1 c 13 7 17 5 17 -9 c 0 -17 -7 -18 -105 -11 c -58 4 -110 10 -115 13 c -6 3 -10 1 -10 -6 c 0 -8 -5 -8 -16 2 c -9 7 -26 15 -37 16 c -12 2 -26 8 -31 13 c -6 6 -18 10 -29 10 c -10 0 -16 4 -12 10 c 3 5 25 7 48 4 c 23 -3 59 -6 79 -7 z m 291 -51 c 21 4 21 4 2 -5 c -11 -4 -23 -7 -27 -4 c -5 2 -8 -1 -8 -7 c 0 -6 -5 -8 -10 -5 c -8 5 -7 12 2 22 c 7 8 14 11 16 5 c 1 -5 13 -8 25 -6 z m 3389 -22 c -4 -21 -7 -23 -13 -11 c -10 17 -1 50 11 42 c 4 -2 5 -16 2 -31 z m 48 -45 c 0 -10 -4 -19 -10 -19 c -5 0 -10 12 -10 26 c 0 14 4 23 10 19 c 6 -3 10 -15 10 -26 z m 134 -65 c 3 -8 2 -12 -4 -9 c -6 3 -10 10 -10 16 c 0 14 7 11 14 -7 z m -64 -26 c 0 -13 -23 -5 -28 10 c -2 7 2 10 12 6 c 9 -3 16 -11 16 -16 z m 318 -94 c 7 -14 17 -22 23 -18 c 7 4 7 -1 -1 -15 c -15 -29 -35 -21 -35 13 c 1 23 -1 25 -11 12 c -16 -23 -24 -20 -24 9 c 0 34 33 33 48 -1 z m -3553 -1104 c 3 -5 -1 -10 -10 -10 c -9 0 -13 5 -10 10 c 3 6 8 10 10 10 c 2 0 7 -4 10 -10 z m -84 -23 c -10 -9 -11 -8 -5 6 c 3 10 9 15 12 12 c 3 -3 0 -11 -7 -18 z m -121 -27 c 0 -5 -5 -10 -11 -10 c -5 0 -7 5 -4 10 c 3 6 8 10 11 10 c 2 0 4 -4 4 -10 z m 4563 -2015 c -3 -9 -8 -14 -10 -11 c -3 3 -2 9 2 15 c 9 16 15 13 8 -4 z"/>
<path d="M7175 8890 c3 -5 15 -15 26 -20 15 -8 19 -7 19 4 0 10 -6 13 -15 10
-8 -4 -15 -1 -15 5 0 6 -5 11 -11 11 -5 0 -7 -4 -4 -10z"/>
<path d="M6136 8757 c3 -10 9 -15 12 -12 3 3 0 11 -7 18 -10 9 -11 8 -5 -6z"/>
<path d="M7320 8430 c0 -5 5 -10 11 -10 5 0 7 5 4 10 -3 6 -8 10 -11 10 -2 0
-4 -4 -4 -10z"/>
<path d="M6081 8004 c0 -11 3 -14 6 -6 3 7 2 16 -1 19 -3 4 -6 -2 -5 -13z"/>
<path d="M6115 7960 c-3 -5 -1 -10 4 -10 6 0 11 5 11 10 0 6 -2 10 -4 10 -3 0
-8 -4 -11 -10z"/>
</g>
</svg>
