<?xml version="1.0" encoding="utf-8"?>
<svg viewBox="12.568 13.432 948.233 254.083" xmlns="http://www.w3.org/2000/svg">
  <path stroke="rgb(255,0,0)" stroke-width="0" d="M 17.797 20.592 C 18.296 16.995 956.522 34.001 958.148 36.403 C 959.865 38.939 959.194 203.827 958.516 211.63 C 957.948 218.17 957.8 231.677 955.301 237.518 C 952.411 244.271 947.471 230.282 942.437 235.468 C 938.126 239.904 932.731 259.676 919.238 260.826 C 902.122 262.285 894.302 220.751 890.989 217.806 C 888.018 215.165 880.335 220.12 875.466 219.571 C 870.807 219.045 866.473 217.44 862.329 214.865 C 857.799 212.049 852.826 208.124 849.581 202.807 C 845.922 196.812 845.356 186.784 842.435 179.869 C 839.727 173.456 837.685 165.382 832.917 162.517 C 828.235 159.706 819.071 160.882 814.263 162.517 C 810.311 163.862 808.565 166.196 805.265 169.87 C 800.595 175.068 794.068 183.848 789.451 192.808 C 784.25 202.903 780.822 220.47 776.338 228.099 C 773.377 233.136 770.868 235.223 767.307 237.804 C 763.651 240.454 758.778 242.742 754.599 243.685 C 750.723 244.56 747.205 244.336 743.118 243.685 C 738.497 242.949 732.15 241.249 728.259 238.981 C 724.933 237.041 723.055 235.063 720.612 231.629 C 717.458 227.192 712.144 220.329 711.68 213.394 C 710.416 194.507 705.253 145.012 700.17 153.106 C 699.111 154.792 697.896 150.9 696.176 151.343 C 693.295 152.082 689.369 146.208 683.853 149.275 C 678.57 152.212 673.275 145.658 675.023 171.677 C 675.744 182.407 664.974 194.882 661.097 194.842 C 657.051 194.8 650.76 192.143 650.548 187.933 C 642.651 31.317 634.603 99.574 620.484 178.911 C 619.655 183.57 615.87 201.332 611.318 199.807 C 603.951 197.338 603.899 179.404 605.433 171.004 C 607.448 159.968 604.916 140.959 602.616 130.462 C 601.207 124.027 601.239 119.79 597.92 117.228 C 594.288 114.423 585.548 114.506 580.725 115.463 C 576.584 116.285 574.144 120.252 570.313 121.345 C 566.305 122.488 562.151 122.532 557.102 121.933 C 550.85 121.192 540.174 115.896 535.372 116.051 C 532.442 116.146 531.075 116.738 529.309 118.698 C 526.821 121.459 526.231 128.843 523.367 133.402 C 520.358 138.191 513.923 140.598 511.418 146.637 C 502.32 168.567 484.356 180.902 480.718 156.553 C 479.701 149.747 470.806 140.46 465.545 139.545 C 461.217 138.792 447.727 149.584 444.522 147.638 C 441.388 145.736 440.212 138.534 436.981 133.824 C 430.733 124.72 432.296 98.725 424.335 93.112 C 419.888 89.979 415.665 93.552 411.108 94.877 C 406.089 96.336 401.361 98.312 395.514 101.935 C 387.908 106.648 377.637 119.329 369.4 122.521 C 362.782 125.087 355.538 123.863 350.451 123.109 C 346.457 122.518 343.564 121.329 340.742 119.581 C 337.987 117.872 336.001 116.374 333.661 112.816 C 330.19 107.543 326.427 100.98 322.101 95.449 C 318.683 91.077 316.771 82.506 311.437 80.173 C 304.145 76.983 292.076 64.48 281.655 75.467 C 274.254 83.27 254.171 79.537 248.275 81.937 C 245.297 83.149 245.212 83.922 243.343 85.76 C 240.757 88.306 238.121 93.472 234.297 96.642 C 230.075 100.14 220.224 99.479 218.678 105.464 C 211.776 132.191 198.415 132.801 196.283 106.052 C 193.968 77.014 165.566 94.662 165.278 113.885 C 165.154 122.172 157.563 131.327 151.334 139.873 C 146.817 146.069 143.394 150.697 139.377 153.694 C 136.126 156.122 133.328 157.078 129.562 157.812 C 125.239 158.655 119.472 158.772 114.639 157.812 C 109.738 156.839 103.652 154.088 100.37 151.93 C 97.993 150.368 96.108 149.412 95.56 146.931 C 86.103 104.114 77.211 142.496 76.433 160.459 C 75.768 175.799 79.564 187.865 76.081 201.16 C 72.189 216.014 66.942 216.687 61.268 218.084 C 58.922 218.662 51.366 208.85 49.267 205.529 C 46.913 201.804 44.042 235.782 44.411 240.366 C 44.615 242.897 34.308 255.812 28.388 248.827 C 25.641 245.586 20.006 240.813 19.261 236.408 C 18.434 231.515 14.022 218.513 14.319 211.042 C 14.78 199.499 17.419 23.318 17.797 20.592 Z"
  style="stroke: rgb(0,0,0); stroke-width: 2px; stroke-opacity: 0; fill: rgb(0,0,0);"
  transform="matrix(0.9999, -0.014115, 0.014115, 0.9999, -2.01842, 6.878715)"/>
</svg>