<?xml version="1.0" encoding="utf-8"?>
<svg viewBox="-137.432 -254.206 947.441 244.086" xmlns="http://www.w3.org/2000/svg">
  <defs>
    <radialGradient gradientUnits="userSpaceOnUse" cx="470.867" cy="-161.166" r="472.139" id="gradient-1" gradientTransform="matrix(1.108764, 0.018668, -0.016834, 0.999858, -201.956211, -277.087746)">
      <stop offset="0" style="stop-color: rgb(126, 115, 160);"/>
      <stop offset="1" style="stop-color: rgb(57, 37, 117);"/>
    </radialGradient>
  </defs>
  <path stroke="rgb(255,0,0)" stroke-width="0" d="M -132.358 -247.056 C -131.859 -250.653 806.367 -233.647 807.993 -231.245 C 809.71 -228.709 805.646 -118.746 807.669 -111.18 C 810.937 -98.956 800.614 -36.955 792.855 -45.011 C 768.994 -69.786 791.081 -138.849 780.862 -164.024 C 774.401 -179.94 765.3 -115.7 765.233 -111.268 C 764.729 -77.719 742.033 -34.393 735.987 -75.135 C 731.055 -108.375 725.492 -94.574 710.506 -68.361 C 707.347 -62.835 694.302 -62.184 691.472 -82.643 C 690.518 -89.539 691.354 -103.863 691.647 -109.418 C 697.521 -220.949 662.444 -114.487 661.251 -111.054 C 628.287 -16.178 606.268 -342.12 597.087 -114.232 C 596.852 -108.401 582.673 -87.914 577.288 -129.039 C 569.398 -189.297 560.772 -137.669 556.042 -124.752 C 545.312 -95.449 541.041 -126.29 539.021 -130.799 C 536.55 -136.315 523.12 -121.99 524.868 -95.971 C 525.589 -85.241 512.601 -69.302 510.942 -72.806 C 489.124 -118.88 488.128 -228.168 474.204 -154.865 C 473.321 -150.216 474.206 -135.996 463.469 -135.56 C 459.115 -135.383 447.954 -140.831 447.765 -150.42 C 447.674 -155.008 435.393 -153.142 430.57 -152.185 C 426.429 -151.363 423.989 -147.396 420.158 -146.303 C 416.15 -145.16 411.996 -145.116 406.947 -145.715 C 400.695 -146.456 390.019 -151.752 385.217 -151.597 C 382.287 -151.502 380.92 -150.91 379.154 -148.95 C 376.666 -146.189 376.076 -138.805 373.212 -134.246 C 370.203 -129.457 363.768 -127.05 361.263 -121.011 C 352.165 -99.081 334.201 -86.746 330.563 -111.095 C 329.546 -117.901 320.651 -127.188 315.39 -128.103 C 311.062 -128.856 297.572 -118.064 294.367 -120.01 C 291.233 -121.912 290.057 -129.114 286.826 -133.824 C 280.578 -142.928 282.141 -168.923 274.18 -174.536 C 269.733 -177.669 265.51 -174.096 260.953 -172.771 C 255.934 -171.312 248.265 -159.479 245.359 -165.713 C 239.45 -178.39 227.915 -152.76 219.245 -145.127 C 213.917 -140.437 205.383 -143.785 200.296 -144.539 C 196.302 -145.13 193.409 -146.319 190.587 -148.067 C 187.832 -149.776 185.846 -151.274 183.506 -154.832 C 180.035 -160.105 176.272 -166.668 171.946 -172.199 C 168.528 -176.571 166.616 -185.142 161.282 -187.475 C 153.99 -190.665 141.921 -203.168 131.5 -192.181 C 124.099 -184.378 104.016 -188.111 98.12 -185.711 C 95.142 -184.499 95.057 -183.726 93.188 -181.888 C 90.602 -179.342 87.966 -174.176 84.142 -171.006 C 79.92 -167.508 70.069 -168.169 68.523 -162.184 C 61.621 -135.457 48.26 -134.847 46.128 -161.596 C 43.813 -190.634 15.411 -172.986 15.123 -153.763 C 14.999 -145.476 7.408 -136.321 1.179 -127.775 C -3.338 -121.579 -6.761 -116.951 -10.778 -113.954 C -14.029 -111.526 -19.613 -128.637 -23.285 -127.523 C -26.133 -126.659 -26.786 -146.711 -28.276 -153.856 C -37.616 -198.656 -43.405 -150.298 -41.397 -136.925 C -37.697 -112.289 -46.723 -85.435 -52.441 -117.01 C -60.255 -160.157 -72.944 -125.152 -73.722 -107.189 C -74.387 -91.849 -72.73 -80.166 -74.074 -66.488 C -76.678 -39.994 -87.226 -40.928 -88.887 -49.564 C -97.663 -95.188 -108.726 -90.363 -104.606 -59.23 C -104.028 -54.862 -106.113 -31.866 -105.744 -27.282 C -105.54 -24.751 -115.847 -11.836 -121.767 -18.821 C -124.514 -22.062 -130.149 -26.835 -130.894 -31.24 C -131.721 -36.133 -136.133 -49.135 -135.836 -56.606 C -135.375 -68.149 -132.736 -244.33 -132.358 -247.056 Z" style="stroke: rgb(129, 151, 57); stroke-width: 2px; stroke-opacity: 0; fill-rule: evenodd; paint-order: fill; fill: url(#gradient-1);" transform="matrix(0.9999, -0.014115, 0.014115, 0.9999, 1.898984, 4.733549)"/>
</svg>