<?xml version="1.0" encoding="utf-8"?>
<svg viewBox="12.568 13.441 947.441 244.086" xmlns="http://www.w3.org/2000/svg">
  <defs>
    <linearGradient gradientUnits="userSpaceOnUse" x1="0" y1="0" x2="0" y2="500" id="gradient-0" spreadMethod="pad" gradientTransform="matrix(0.999975, 0.007065, -0.004565, 0.646242, 0.254851, 15.380975)">
      <stop offset="0%" style="stop-color: rgb(0,0,0)"/>
      <stop offset="50%" style="stop-color: rgb(255, 255, 255);"/>
    </linearGradient>
  </defs>
  <path stroke="rgb(255,0,0)" stroke-width="0" d="M 17.797 20.592 C 18.296 16.995 956.522 34.001 958.148 36.403 C 959.865 38.939 955.801 148.902 957.824 156.468 C 961.092 168.692 950.769 230.693 943.01 222.637 C 919.149 197.862 941.236 128.799 931.017 103.624 C 924.556 87.708 915.455 151.948 915.388 156.38 C 914.884 189.929 892.188 233.255 886.142 192.513 C 881.21 159.273 875.647 173.074 860.661 199.287 C 857.502 204.813 844.457 205.464 841.627 185.005 C 840.673 178.109 841.509 163.785 841.802 158.23 C 847.676 46.699 812.599 153.161 811.406 156.594 C 778.442 251.47 756.423 -74.472 747.242 153.416 C 747.007 159.247 732.828 179.734 727.443 138.609 C 719.553 78.351 710.927 129.979 706.197 142.896 C 695.467 172.199 691.196 141.358 689.176 136.849 C 686.705 131.333 673.275 145.658 675.023 171.677 C 675.744 182.407 662.756 198.346 661.097 194.842 C 639.279 148.768 638.283 39.48 624.359 112.783 C 623.476 117.432 624.361 131.652 613.624 132.088 C 609.27 132.265 598.109 126.817 597.92 117.228 C 597.829 112.64 585.548 114.506 580.725 115.463 C 576.584 116.285 574.144 120.252 570.313 121.345 C 566.305 122.488 562.151 122.532 557.102 121.933 C 550.85 121.192 540.174 115.896 535.372 116.051 C 532.442 116.146 531.075 116.738 529.309 118.698 C 526.821 121.459 526.231 128.843 523.367 133.402 C 520.358 138.191 513.923 140.598 511.418 146.637 C 502.32 168.567 484.356 180.902 480.718 156.553 C 479.701 149.747 470.806 140.46 465.545 139.545 C 461.217 138.792 447.727 149.584 444.522 147.638 C 441.388 145.736 440.212 138.534 436.981 133.824 C 430.733 124.72 432.296 98.725 424.335 93.112 C 419.888 89.979 415.665 93.552 411.108 94.877 C 406.089 96.336 398.42 108.169 395.514 101.935 C 389.605 89.258 378.07 114.888 369.4 122.521 C 364.072 127.211 355.538 123.863 350.451 123.109 C 346.457 122.518 343.564 121.329 340.742 119.581 C 337.987 117.872 336.001 116.374 333.661 112.816 C 330.19 107.543 326.427 100.98 322.101 95.449 C 318.683 91.077 316.771 82.506 311.437 80.173 C 304.145 76.983 292.076 64.48 281.655 75.467 C 274.254 83.27 254.171 79.537 248.275 81.937 C 245.297 83.149 245.212 83.922 243.343 85.76 C 240.757 88.306 238.121 93.472 234.297 96.642 C 230.075 100.14 220.224 99.479 218.678 105.464 C 211.776 132.191 198.415 132.801 196.283 106.052 C 193.968 77.014 165.566 94.662 165.278 113.885 C 165.154 122.172 157.563 131.327 151.334 139.873 C 146.817 146.069 143.394 150.697 139.377 153.694 C 136.126 156.122 130.542 139.011 126.87 140.125 C 124.022 140.989 123.369 120.937 121.879 113.792 C 112.539 68.992 106.75 117.35 108.758 130.723 C 112.458 155.359 103.432 182.213 97.714 150.638 C 89.9 107.491 77.211 142.496 76.433 160.459 C 75.768 175.799 77.425 187.482 76.081 201.16 C 73.477 227.654 62.929 226.72 61.268 218.084 C 52.492 172.46 41.429 177.285 45.549 208.418 C 46.127 212.786 44.042 235.782 44.411 240.366 C 44.615 242.897 34.308 255.812 28.388 248.827 C 25.641 245.586 20.006 240.813 19.261 236.408 C 18.434 231.515 14.022 218.513 14.319 211.042 C 14.78 199.499 17.419 23.318 17.797 20.592 Z" style="stroke: rgb(129, 151, 57); stroke-width: 2px; stroke-opacity: 0; fill-rule: evenodd; fill: url(#gradient-0); paint-order: fill;" transform="matrix(0.9999, -0.014115, 0.014115, 0.9999, -2.01842, 6.878715)"/>
</svg>
