<?xml version="1.0" encoding="utf-8"?>
<svg viewBox="-3.226 192.825 984.443 308.871" xmlns="http://www.w3.org/2000/svg">
  <path stroke="rgb(255,0,0)" stroke-width="0" d="M -1.438 501.524 C -6.071 501.807 -0.123 259.9 -1.076 197.615 C -1.319 181.722 87.643 210.305 91.366 212.295 C 93.876 213.637 94.183 214.1 96.307 216.656 C 100.215 221.357 107.155 237.163 112.877 241.946 C 117.036 245.422 121.155 241.827 125.668 246.597 C 130.966 252.196 136.93 254.938 142.974 255.916 C 155.446 249.88 166.929 244.59 173.344 242.803 C 180.907 240.696 184.92 243.632 188.242 242.076 C 190.764 240.895 189.462 238.355 192.966 236.262 C 200.648 231.675 229.462 222.79 243.838 220.274 C 255.117 218.3 261.044 218.904 272.907 219.547 C 288.685 220.403 319.782 223.505 331.774 226.815 C 338.624 228.705 339.448 231.459 344.855 233.355 C 351.671 235.745 364.107 236.18 370.291 239.169 C 375.029 241.459 375.987 245.325 380.466 247.89 C 386.046 251.086 390.073 259.13 398.634 259.518 C 409.067 259.992 428.473 248.642 439.332 247.163 C 448.36 245.934 458.647 247.758 463.314 246.437 C 465.949 245.691 466.404 244.831 468.038 243.166 C 470.232 240.932 471.572 235.983 474.942 233.355 C 478.841 230.315 483.553 228.38 490.931 226.815 C 501.904 224.486 517.226 231.546 527.267 228.995 C 533.47 227.418 545.389 219.063 549.07 218.094 C 552.014 217.319 557.587 216.84 560.698 218.094 C 565.379 219.98 579.442 228.056 582.137 230.811 C 583.367 232.07 603.728 245.519 613.024 251.524 C 620.34 256.25 624.481 263.947 629.739 266.059 C 633.802 267.691 636.226 267.442 641.367 266.059 C 649.751 263.803 665.953 255.246 672.254 250.434 C 675.709 247.794 679.249 242.887 682.064 241.35 C 685.588 239.426 691.296 238.075 697.326 239.169 C 705.518 240.655 719.644 251.114 727.123 253.704 C 732.075 255.42 734.616 257.021 738.75 255.884 C 744.023 254.434 753.585 244.372 755.829 242.44 C 756.608 241.769 756.209 242.155 756.919 241.35 C 759.13 238.844 767.401 225.636 773.634 221.001 C 779.169 216.885 785.24 214.979 791.803 213.733 C 798.746 212.416 806.356 214.811 812.152 215.913 C 816.514 216.743 825.214 218.583 830.32 219.547 C 838.854 221.157 855.147 217.814 864.477 218.82 C 870.503 219.471 874.36 220.038 877.559 221.727 C 880.122 223.081 881.949 225.863 883.009 227.178 C 883.642 227.962 893.146 232.648 894.273 233.355 C 897.541 235.406 904.882 234.389 913.169 237.716 C 919.477 240.248 920.471 242.82 926.717 245.488 C 930.961 243.631 937.175 242.747 940.784 241.946 C 948.637 240.204 955.146 242.499 961.133 240.783 C 966.656 239.201 977.853 220.596 980.756 225.377 C 981.49 226.585 981.716 492.757 978.576 497.89 C 975.245 503.336 3.009 501.253 -1.438 501.524 Z" style="stroke: rgb(129, 151, 57); stroke-width: 2px; stroke-opacity: 0; fill: rgb(84, 82, 97);"/>
</svg>