<?xml version="1.0" encoding="utf-8"?>
<svg viewBox="-6.772 213.885 982.587 290.148" xmlns="http://www.w3.org/2000/svg">
  <path stroke="rgb(255,0,0)" stroke-width="0" d="M -4.854 499.796 C -5.446 490.701 -9.105 211.914 -4.418 213.896 C 4.978 217.869 57.261 222.92 70.872 225.233 C 79.089 226.628 84.01 228.475 87.733 230.465 C 90.243 231.807 90.55 232.27 92.674 234.826 C 96.582 239.527 103.522 255.333 109.244 260.116 C 113.403 263.592 117.522 259.997 122.035 264.767 C 139.719 283.456 164.832 270.32 175.523 265.93 C 187.228 271.228 194.91 273.991 199.07 277.849 C 201.624 280.218 201.88 281.678 202.558 284.826 C 203.506 289.226 206.436 297.363 206.628 299.942 C 206.699 300.891 218.357 309.626 219.128 310.116 C 221.756 311.789 224.354 307.021 234.244 309.535 C 243.682 311.934 251.683 317.273 260.988 318.837 C 270.467 320.431 283.554 319.705 290.64 318.837 C 295.381 318.257 296.869 316.472 301.105 315.93 C 306.487 315.241 309.174 328.197 315.058 329.011 C 320.261 329.731 325.924 348.612 331.192 351.25 C 338.231 354.775 342.09 376.588 349.796 379.594 C 356.093 382.05 383.531 357.068 389.622 356.628 C 395.928 356.172 408.138 338.884 413.894 338.169 C 418.82 337.557 428.245 333.79 434.535 334.535 C 444.982 335.773 443.424 340.109 456.337 344.419 C 467.027 347.986 476.858 353.381 483.081 357.209 C 487.354 359.837 490.366 362.502 492.093 364.477 C 493.181 365.72 492.512 367.013 493.837 367.674 C 496.008 368.758 502.242 367.008 506.337 367.674 C 510.48 368.349 513.168 371.174 518.547 371.744 C 526.181 372.554 524.802 373.292 532.645 371.599 C 538.418 370.352 557.544 381.753 562.006 380.901 C 566.265 380.088 595.434 408.041 598.052 411.424 C 601.248 415.555 628.827 444.27 635.552 441.511 C 644.353 437.9 658.857 430.998 666.802 408.373 C 670.358 398.248 698.694 378.973 705.029 380.465 C 708.438 381.268 736.16 369.203 738.895 368.837 C 742.393 368.369 749.4 367.839 751.395 365.64 C 753.008 363.861 750.957 360.664 751.977 358.081 C 753.204 354.975 756.198 351.531 759.244 348.488 C 762.637 345.099 769.466 341.07 771.744 338.895 C 772.965 337.729 771.81 337.585 773.779 336.279 C 780.49 331.827 827.392 314.458 838.895 307.791 C 844.616 304.475 845.48 303.791 848.488 299.942 C 852.393 294.946 855.729 282.39 859.244 278.721 C 861.402 276.469 862.103 276.589 865.64 275.814 C 872.448 274.321 889.878 276.045 901.686 273.488 C 913.723 270.882 927.087 262.349 937.151 260.116 C 945.004 258.374 951.513 260.669 957.5 258.953 C 963.023 257.371 970.586 240.219 973.489 245 C 976.697 250.282 973.407 478.971 975.814 499.943 C 976.723 507.86 529.736 500.466 493.565 500.888 C 266.962 503.53 -4.393 506.873 -4.854 499.796 Z" style="stroke: rgb(129, 151, 57); stroke-width: 2px; stroke-opacity: 0; fill: rgb(47, 45, 58);"/>
</svg>