<?xml version="1.0" encoding="utf-8"?>
<svg viewBox="-6.176 185.203 984.774 315.008" xmlns="http://www.w3.org/2000/svg">
  <path stroke="rgb(255,0,0)" stroke-width="0" d="M 957.5 198.472 C 963.539 197.422 973.805 198.429 977.121 199.927 C 979.741 201.111 978.4 490.779 976.759 494.621 C 975.362 497.891 1.802 502.759 -2.166 498.617 C -5.681 494.948 -6.861 248.06 -5.8 243.894 C -4.819 240.043 1.501 236.934 4.011 234.81 C 6.053 233.082 6.592 232.74 10.552 231.903 C 19.384 230.036 45.818 197.774 63.604 194.839 C 81.907 191.819 98.607 188.255 115.93 185.391 C 131.597 182.801 152.369 207.75 163.168 210.827 C 171.432 213.182 176.439 220.366 180.974 224.999 C 184.71 228.816 186.287 233.922 189.331 236.263 C 191.823 238.18 202.214 244.143 206.046 246.437 C 213.61 250.965 220.892 263.353 233.663 268.24 C 245.234 272.668 259.465 268.535 270 269.693 C 278.87 270.669 284.164 270.067 293.256 274.054 C 306.175 279.719 335.758 302.333 340.131 306.394 C 341.303 307.482 365.13 316.559 373.197 316.932 C 378.814 317.191 382.147 316.26 386.279 314.025 C 390.928 311.51 394.467 304.83 399.36 301.67 C 404.174 298.562 408.93 296.506 415.349 295.129 C 423.177 293.45 436.28 292.02 443.692 293.676 C 449.579 294.991 452.106 300.467 457.5 301.67 C 463.535 303.016 473.173 299.324 478.575 300.217 C 482.645 300.889 484.348 304.654 488.023 304.577 C 492.554 304.482 497.521 298.91 504.011 297.31 C 511.96 295.35 525.265 295.261 533.081 295.129 C 539.001 295.03 543.158 294.55 547.616 295.856 C 551.985 297.136 557.032 300.653 559.607 302.76 C 561.344 304.181 563.829 308.732 565.785 309.664 C 568.806 311.105 572.181 308.117 578.139 308.211 C 585.523 308.327 595.924 304.045 604.302 306.757 C 613.563 309.756 623.124 319.991 630.828 327.47 C 638.155 334.581 640.845 350.865 646.817 353.996 C 650.972 356.175 658.537 351.251 661.715 350.362 C 664.328 349.631 665.814 348.226 667.892 346.365 C 670.408 344.112 671.875 339.995 675.523 337.281 C 680.09 333.882 694.13 325.609 701.685 323.473 C 710.77 320.904 715.866 327.593 727.122 324.199 C 739.644 320.423 754.816 323.464 760.916 317.295 C 764.511 313.659 767.406 298.302 769.636 294.766 C 772.242 290.635 777.774 285.85 781.628 282.775 C 784.879 280.18 787.537 277.951 791.075 276.961 C 794.769 275.927 799.214 276.3 803.43 276.961 C 807.922 277.664 817.794 281.334 823.052 280.594 C 829.834 279.64 838.355 256.608 845.944 249.344 C 855.477 240.22 861.595 233.932 868.11 227.542 C 871.45 224.266 871.712 224.669 876.104 223.182 C 884.333 220.395 905.298 218.643 918.982 214.461 C 932.407 210.358 948.123 200.103 957.5 198.472 Z" style="stroke: rgb(129, 151, 57); stroke-width: 2px; stroke-opacity: 0; fill: rgb(56, 53, 68);"/>
</svg>