<?xml version="1.0" encoding="utf-8"?>
<svg viewBox="10.878 165.127 954.146 521.75" xmlns="http://www.w3.org/2000/svg">
  <defs>
    <linearGradient gradientUnits="userSpaceOnUse" x1="489.383" y1="10" x2="489.383" y2="594.057" id="gradient-0" gradientTransform="matrix(0.99999, 0.004399, -0.004118, 0.936398, -0.393476, 152.382657)">
      <stop offset="35%" style="stop-color: rgb(25, 25, 25);"/>
      <stop offset="85%" style="stop-color: rgb(53, 8, 120);"/>
    </linearGradient>
  </defs>
  <path stroke-width="0" d="M 17.549 172.243 C 18.048 168.646 959.13 186.649 960.756 189.051 C 962.473 191.587 955.461 578.229 957.484 585.795 C 960.752 598.019 950.429 660.02 942.67 651.964 C 918.809 627.189 940.896 558.126 930.677 532.951 C 924.216 517.035 915.115 581.275 915.048 585.707 C 914.544 619.256 891.848 662.582 885.802 621.84 C 880.87 588.6 875.307 602.401 860.321 628.614 C 857.162 634.14 844.117 634.791 841.287 614.332 C 840.333 607.436 841.169 593.112 841.462 587.557 C 847.336 476.026 812.259 582.488 811.066 585.921 C 778.102 680.797 756.083 354.855 746.902 582.743 C 746.667 588.574 732.488 609.061 727.103 567.936 C 719.213 507.678 710.587 559.306 705.857 572.223 C 695.127 601.526 690.856 570.685 688.836 566.176 C 686.365 560.66 672.935 574.985 674.683 601.004 C 675.404 611.734 662.416 627.673 660.757 624.169 C 638.939 578.095 637.943 468.807 624.019 542.11 C 623.136 546.759 624.021 560.979 613.284 561.415 C 608.93 561.592 597.769 556.144 597.58 546.555 C 597.489 541.967 585.208 543.833 580.385 544.79 C 576.244 545.612 573.804 549.579 569.973 550.672 C 565.965 551.815 561.811 551.859 556.762 551.26 C 550.51 550.519 539.834 545.223 535.032 545.378 C 532.102 545.473 530.735 546.065 528.969 548.025 C 526.481 550.786 525.891 558.17 523.027 562.729 C 520.018 567.518 513.583 569.925 511.078 575.964 C 501.98 597.894 484.016 610.229 480.378 585.88 C 479.361 579.074 470.466 569.787 465.205 568.872 C 460.877 568.119 447.387 578.911 444.182 576.965 C 441.048 575.063 439.872 567.861 436.641 563.151 C 430.393 554.047 431.956 528.052 423.995 522.439 C 419.548 519.306 415.325 522.879 410.768 524.204 C 405.749 525.663 398.08 537.496 395.174 531.262 C 389.265 518.585 377.73 544.215 369.06 551.848 C 363.732 556.538 355.198 553.19 350.111 552.436 C 346.117 551.845 343.224 550.656 340.402 548.908 C 337.647 547.199 335.661 545.701 333.321 542.143 C 329.85 536.87 326.087 530.307 321.761 524.776 C 318.343 520.404 316.431 511.833 311.097 509.5 C 303.805 506.31 291.736 493.807 281.315 504.794 C 273.914 512.597 253.831 508.864 247.935 511.264 C 244.957 512.476 244.872 513.249 243.003 515.087 C 240.417 517.633 237.781 522.799 233.957 525.969 C 229.735 529.467 219.884 528.806 218.338 534.791 C 211.437 561.518 198.076 562.128 195.944 535.379 C 193.629 506.341 165.227 523.989 164.939 543.212 C 164.815 551.499 157.224 560.654 150.995 569.2 C 146.478 575.396 143.055 580.024 139.038 583.021 C 135.787 585.449 130.203 568.338 126.531 569.452 C 123.683 570.316 123.03 550.264 121.54 543.119 C 112.2 498.319 106.411 546.677 108.419 560.05 C 112.119 584.686 103.093 611.54 97.375 579.965 C 89.561 536.818 76.872 571.823 76.094 589.786 C 75.429 605.126 77.086 616.809 75.742 630.487 C 73.138 656.981 62.59 656.047 60.929 647.411 C 52.153 601.787 41.09 606.612 45.21 637.745 C 45.788 642.113 43.703 665.109 44.072 669.693 C 44.276 672.224 33.969 685.139 28.049 678.154 C 25.302 674.913 19.667 670.14 18.922 665.735 C 18.095 660.842 13.683 647.84 13.98 640.369 C 14.441 628.826 17.171 174.969 17.549 172.243 Z" style="stroke-width: 2px; stroke-opacity: 0; fill-rule: evenodd; paint-order: fill; stroke: rgb(118, 134, 71); fill: url(#gradient-0);" transform="matrix(0.9999, -0.014115, 0.014115, 0.9999, -5.511174, 6.939859)"/>
</svg>