<?xml version="1.0" encoding="UTF-8" standalone="no"?>
<svg xmlns="http://www.w3.org/2000/svg" version="1.1" width="600" height="257" viewbox="0 0 600 257">
<title>undefined</title><path d="M300,0 L0,0 L0,128.5 L0,257 L300,257 L600,257 L600,128.5 L600,0 L300,0 " fill="rgb(241, 177, 193)" stroke="none" fill-rule="evenodd"></path><path d="M300,0 L0,0 L0,128.5 L0,257 L300,257 L600,257 L600,128.5 L600,0 L300,0 " fill="rgb(255, 255, 255)" stroke="none" fill-rule="evenodd"></path><path d="M19.5,17 C19.225,17,18.55,17.675,18,18.5 C17.45,19.325,16.55,20.675,16,21.5 C15.45,22.325,14.55,23.225,14,23.5 C13.45,23.775,12.775,23.775,12.5,23.5 C12.225,23.225,11.775,23.9,11.5,25 C11.225,26.1,10.775,26.775,10.5,26.5 C10.225,26.225,9.55,26.675,9,27.5 C8.45,28.325,7.775,29.45,7.5,30 C7.225,30.55,6.775,30.775,6.5,30.5 C6.225,30.225,6.45,31.125,7,32.5 C7.55,33.875,7.775,35.45,7.5,36 C7.225,36.55,7.45,36.775,8,36.5 C8.55,36.225,9.225,36.675,9.5,37.5 C9.775,38.325,8.425,40.35,6.5,42 C4.126,44.035,3.644,45.161,5,45.5 C6.1,45.775,7.225,45.55,7.5,45 C7.775,44.45,7.775,45.125,7.5,46.5 C7.225,47.875,6.325,48.55,5.5,48 C4.675,47.45,3.775,47.225,3.5,47.5 C3.225,47.775,2.775,47.775,2.5,47.5 C2.225,47.225,1.775,47.45,1.5,48 C1.225,48.55,1.9,49.45,3,50 C4.1,50.55,5.45,50.775,6,50.5 C6.55,50.225,6.775,50.45,6.5,51 C6.225,51.55,6.225,52.225,6.5,52.5 C6.775,52.775,5.425,53.9,3.5,55 C1.575,56.1,0.225,57.45,0.5,58 C0.775,58.55,1.225,58.775,1.5,58.5 C1.775,58.225,2.225,58.45,2.5,59 C2.775,59.55,3.675,59.1,4.5,58 C5.325,56.9,5.325,57.8,4.5,60 C3.675,62.2,2.325,64.45,1.5,65 C0.675,65.55,0.225,66.9,0.5,68 C0.775,69.1,1.675,69.775,2.5,69.5 C3.325,69.225,4.225,68.55,4.5,68 C4.775,67.45,4.775,66.55,4.5,66 C4.225,65.45,4.45,66.125,5,67.5 C5.55,68.875,5.775,72.025,5.5,74.5 C5.225,76.975,3.875,79.9,2.5,81 C0.785,82.372,0,86.299,0,93.5 C0,99.275,0.225,104.45,0.5,105 C0.775,105.55,0.775,108.025,0.5,110.5 C0.225,112.975,0,139.075,0,168.5 C0,197.925,0.225,222.45,0.5,223 C0.775,223.55,0.775,226.025,0.5,228.5 C0.225,230.975,0,238.4,0,245 L0,257 L300,257 L600,257 L600,170 C600,122.15,599.55,82.775,599,82.5 C598.45,82.225,598.45,81.325,599,80.5 C599.55,79.675,599.775,77.875,599.5,76.5 C599.225,75.125,598.775,73.55,598.5,73 C598.225,72.45,598.45,71.325,599,70.5 C599.594,69.609,598.984,69.203,597.5,69.5 C596.125,69.775,595.225,69.325,595.5,68.5 C595.775,67.675,596.9,66.55,598,66 C599.1,65.45,599.775,64.55,599.5,64 C599.225,63.45,599.225,62.325,599.5,61.5 C599.775,60.675,599.1,59.55,598,59 C596.667,58.333,596.667,57.667,598,57 C599.1,56.45,599.775,55.1,599.5,54 C599.225,52.9,599.225,51.55,599.5,51 C599.775,50.45,599.775,49.775,599.5,49.5 C599.225,49.225,599.225,48.55,599.5,48 C599.775,47.45,599.55,47.675,599,48.5 C598.45,49.325,598.225,50.225,598.5,50.5 C598.775,50.775,598.55,51.225,598,51.5 C597.45,51.775,597.225,52.45,597.5,53 C597.775,53.55,597.55,53.775,597,53.5 C596.45,53.225,596.225,52.775,596.5,52.5 C596.775,52.225,596.55,51.1,596,50 C595.268,48.535,594.866,48.803,594.5,51 C594.225,52.65,593.325,54.45,592.5,55 C591.675,55.55,590.325,55.55,589.5,55 C588.675,54.45,588.9,53.325,590,52.5 C591.1,51.675,591.775,50.1,591.5,49 C591.225,47.9,591.45,46.775,592,46.5 C592.55,46.225,593.225,45.55,593.5,45 C593.775,44.45,593.55,42.875,593,41.5 C592.45,40.125,591.775,37.65,591.5,36 C591.225,34.35,591.225,32.1,591.5,31 C591.775,29.9,590.875,31.475,589.5,34.5 C588.082,37.62,586.567,39.351,586,38.5 C585.45,37.675,585.9,35.65,587,34 C588.1,32.35,588.775,30.55,588.5,30 C588.225,29.45,587.325,30.125,586.5,31.5 L585,34 L584,29 L583,24 L582.5,28 C582.225,30.2,581.325,31.775,580.5,31.5 C579.675,31.225,579.9,32.125,581,33.5 C582.1,34.875,582.775,37.35,582.5,39 L582,42 L580,38.5 C578.9,36.575,577.775,35.45,577.5,36 C577.225,36.55,577.675,38.125,578.5,39.5 C579.325,40.875,580.675,42.9,581.5,44 C582.632,45.509,582.141,45.632,579.5,44.5 L576,43 L577.5,45.5 C578.325,46.875,578.775,48.45,578.5,49 C578.225,49.55,578.675,50.45,579.5,51 C580.325,51.55,580.775,52.225,580.5,52.5 C580.225,52.775,580.225,53.45,580.5,54 C580.775,54.55,580.55,55.675,580,56.5 C579.406,57.391,578.187,56.578,577,54.5 C575.9,52.575,574.775,51.45,574.5,52 C574.225,52.55,574.225,53.225,574.5,53.5 C574.775,53.775,574.1,53.775,573,53.5 C571.667,53.167,571.667,53.667,573,55 C574.333,56.333,574.333,57.5,573,58.5 C571.765,59.427,570.809,59.235,570.5,58 C570.21,56.842,569.579,57.473,569,59.5 C568.45,61.425,568.675,63.45,569.5,64 C570.325,64.55,570.775,65.45,570.5,66 C570.225,66.55,569.55,66.55,569,66 C568.45,65.45,567.775,65.45,567.5,66 C567.225,66.55,565.65,66.1,564,65 L561,63 L564.5,67.5 C566.425,69.975,568.225,72.675,568.5,73.5 C568.775,74.325,567.65,73.425,566,71.5 L563,68 L564,72 C564.55,74.2,564.325,76.225,563.5,76.5 C562.675,76.775,561.325,76.1,560.5,75 C559.675,73.9,558.775,73.45,558.5,74 C558.225,74.55,557.775,75.225,557.5,75.5 C557.225,75.775,557.225,76.225,557.5,76.5 C557.775,76.775,557.55,76.775,557,76.5 C556.45,76.225,555.775,75.55,555.5,75 C555.225,74.45,554.775,74.225,554.5,74.5 C554.225,74.775,553.325,74.1,552.5,73 C551.394,71.526,551.263,71.789,552,74 C552.55,75.65,553.45,77.45,554,78 C554.55,78.55,554.775,79.225,554.5,79.5 C554.225,79.775,554.9,80.45,556,81 C557.216,81.608,557.412,82.98,556.5,84.5 C555.372,86.381,554.381,86.505,552.5,85 C550.833,83.667,550.5,83.667,551.5,85 C552.325,86.1,553.225,87.45,553.5,88 C553.775,88.55,552.65,88.55,551,88 C549.35,87.45,546.875,86.1,545.5,85 C543.785,83.628,543.942,84.414,546,87.5 C547.661,89.992,548.331,92.446,547.5,93 C546.675,93.55,546.675,94.45,547.5,95 C548.325,95.55,549.225,96.45,549.5,97 C549.775,97.55,550.9,98.9,552,100 C553.1,101.1,554.225,101.55,554.5,101 C554.775,100.45,555.675,100.45,556.5,101 C557.325,101.55,557.55,102.225,557,102.5 C556.45,102.775,556.45,103.225,557,103.5 C557.55,103.775,558.225,103.775,558.5,103.5 C558.775,103.225,558.775,103.45,558.5,104 C558.225,104.55,557.325,105.45,556.5,106 C555.675,106.55,555.675,107.45,556.5,108 C557.325,108.55,558.225,109.45,558.5,110 C558.775,110.55,557.65,111.675,556,112.5 C553.687,113.657,553.458,114.343,555,115.5 C556.1,116.325,557.675,117.9,558.5,119 C559.325,120.1,561.125,121.225,562.5,121.5 C564.5,121.9,564.5,122.4,562.5,124 C561.125,125.1,559.775,125.325,559.5,124.5 C559.225,123.675,558.55,122.775,558,122.5 C557.45,122.225,556.55,121.1,556,120 C555.45,118.9,554.325,117.55,553.5,117 C552.675,116.45,551.55,116.675,551,117.5 C550.421,118.369,549.79,117.737,549.5,116 C549.225,114.35,549.225,112.775,549.5,112.5 C549.775,112.225,549.1,111.775,548,111.5 C546.9,111.225,545.55,111.225,545,111.5 C544.45,111.775,543.325,111.1,542.5,110 C541.675,108.9,541.225,107.55,541.5,107 C541.775,106.45,541.325,104.875,540.5,103.5 C539.384,101.64,538.488,101.512,537,103 L535,105 L535.5,102 C535.775,100.35,535.775,98.325,535.5,97.5 C535.225,96.675,535.45,95.325,536,94.5 C536.55,93.675,536.775,92.775,536.5,92.5 C536.225,92.225,536.9,91.55,538,91 C539.41,90.295,538.819,89.705,536,89 C533.8,88.45,532.45,87.775,533,87.5 C533.55,87.225,534.225,87.225,534.5,87.5 C534.775,87.775,534.55,86.2,534,84 C533.45,81.8,532.775,80.225,532.5,80.5 C532.225,80.775,532.225,81.45,532.5,82 C532.775,82.55,532.325,83.9,531.5,85 C530.675,86.1,529.55,86.325,529,85.5 C528.45,84.675,528.225,81.975,528.5,79.5 C528.775,77.025,528.775,74.775,528.5,74.5 C528.225,74.225,528,76.25,528,79 C528,81.75,527.1,85.125,526,86.5 C524.9,87.875,524.45,90.575,525,92.5 C525.55,94.425,525.55,96.675,525,97.5 C524.45,98.325,522.875,99.225,521.5,99.5 C520.125,99.775,519.45,100.225,520,100.5 C520.55,100.775,521.45,101.675,522,102.5 C522.55,103.325,523.45,105.125,524,106.5 C524.55,107.875,525.45,110.35,526,112 L527,115 L524.5,113.5 C522.522,112.313,522.104,112.522,522.5,114.5 C522.816,116.079,522.263,116.816,521,116.5 C519.9,116.225,518.55,117.125,518,118.5 C517.45,119.875,517.45,121.675,518,122.5 C518.55,123.325,518.1,124.675,517,125.5 C515.9,126.325,514.775,126.775,514.5,126.5 C514.225,126.225,513.775,126.225,513.5,126.5 C513.225,126.775,512.775,126.775,512.5,126.5 C512.225,126.225,511.55,126.675,511,127.5 C510.45,128.325,510.675,128.775,511.5,128.5 C512.325,128.225,514.125,129.35,515.5,131 C516.875,132.65,518.675,133.55,519.5,133 C520.325,132.45,521.45,132.675,522,133.5 C522.55,134.325,522.775,135.45,522.5,136 C522.225,136.55,522.45,137.675,523,138.5 C523.55,139.325,523.775,140.675,523.5,141.5 C523.225,142.325,523.45,143.9,524,145 C524.55,146.1,524.55,147.225,524,147.5 C523.45,147.775,522.775,147.55,522.5,147 C522.225,146.45,519.975,145.55,517.5,145 C515.025,144.45,513.225,144.45,513.5,145 C513.775,145.55,513.325,146.225,512.5,146.5 C511.675,146.775,511.45,145.65,512,144 C512.55,142.35,513.225,140.775,513.5,140.5 C513.775,140.225,513.325,139.55,512.5,139 C511.675,138.45,511.675,136.875,512.5,135.5 C513.325,134.125,513.55,133.225,513,133.5 C512.45,133.775,511.55,134.675,511,135.5 C510.45,136.325,509.775,136.325,509.5,135.5 C509.225,134.675,509.45,133.775,510,133.5 C510.55,133.225,510.55,132.775,510,132.5 C509.45,132.225,509.225,131.325,509.5,130.5 C509.775,129.675,509.775,126.975,509.5,124.5 C509.225,122.025,508.775,119.325,508.5,118.5 C508.225,117.675,507.775,119.025,507.5,121.5 C507.225,123.975,506.775,126.675,506.5,127.5 C506.225,128.325,505.55,128.55,505,128 C504.45,127.45,504.225,127.9,504.5,129 C504.775,130.1,505.225,131.225,505.5,131.5 C505.775,131.775,505.55,132.45,505,133 C504.45,133.55,504.225,134.675,504.5,135.5 C504.775,136.325,504.775,137.225,504.5,137.5 C504.225,137.775,504.225,138.45,504.5,139 C504.775,139.55,504.55,140.675,504,141.5 C503.45,142.325,502.55,144.125,502,145.5 C501.45,146.875,501.45,148.45,502,149 C502.55,149.55,502.775,150.225,502.5,150.5 C502.225,150.775,502.45,151.45,503,152 C503.55,152.55,503.325,152.775,502.5,152.5 C501.675,152.225,500.55,152.675,500,153.5 C499.45,154.325,499.675,155.45,500.5,156 C501.325,156.55,502.225,157.675,502.5,158.5 C502.775,159.325,502.55,160.9,502,162 C501.45,163.1,500.325,163.775,499.5,163.5 C498.675,163.225,497.775,163.45,497.5,164 C497.225,164.55,496.775,164.55,496.5,164 C496.225,163.45,496.675,162.325,497.5,161.5 C498.557,160.443,497.967,159.852,495.5,159.5 C493.033,159.148,492.59,158.705,494,158 C495.41,157.295,495.262,157.148,493.5,157.5 C492.125,157.775,490.775,157.55,490.5,157 C490.225,156.45,490.225,155.325,490.5,154.5 C490.775,153.675,490.325,152.55,489.5,152 C488.675,151.45,487.325,150.1,486.5,149 C485.675,147.9,485.225,146.1,485.5,145 C485.775,143.9,486.675,143.45,487.5,144 C488.325,144.55,489.225,144.55,489.5,144 C489.775,143.45,489.1,142.325,488,141.5 C486.9,140.675,486.675,139.55,487.5,139 C488.325,138.45,489.225,137.775,489.5,137.5 C489.775,137.225,488.875,136.55,487.5,136 C486.125,135.45,484.775,134.1,484.5,133 C484.225,131.9,484.45,131.225,485,131.5 C485.55,131.775,486.225,132.45,486.5,133 C486.775,133.55,486.55,132.65,486,131 C485.45,129.35,484.55,127.55,484,127 C483.45,126.45,483.45,125.325,484,124.5 C484.55,123.675,484.55,122.325,484,121.5 C483.45,120.675,481.875,119.1,480.5,118 C478.833,116.667,478.167,116.667,478.5,118 C478.775,119.1,478.55,120.45,478,121 C477.45,121.55,477.675,122.9,478.5,124 C479.427,125.235,479.235,126.191,478,126.5 C476.667,126.833,476.667,127.5,478,128.5 C479.1,129.325,479.775,130.225,479.5,130.5 C479.225,130.775,478.55,130.775,478,130.5 C477.45,130.225,477.675,131.125,478.5,132.5 C479.325,133.875,479.325,135.9,478.5,137 C477.675,138.1,477.45,139.45,478,140 C478.55,140.55,478.1,141.225,477,141.5 C475.9,141.775,474.775,142.45,474.5,143 C474.225,143.55,474.45,144.225,475,144.5 C475.55,144.775,476.45,144.55,477,144 C477.55,143.45,477.55,143.675,477,144.5 C476.45,145.325,475.55,146.225,475,146.5 C474.45,146.775,474.225,147.45,474.5,148 C474.775,148.55,474.775,149.225,474.5,149.5 C474.225,149.775,474.675,149.775,475.5,149.5 C476.325,149.225,476.1,150.575,475,152.5 C473.9,154.425,473.675,156.45,474.5,157 C475.325,157.55,475.325,158.45,474.5,159 C473.675,159.55,470.525,160.225,467.5,160.5 C464.475,160.775,462.45,160.325,463,159.5 C463.55,158.675,463.325,157.775,462.5,157.5 C461.675,157.225,461.225,156.55,461.5,156 C461.775,155.45,461.775,154.775,461.5,154.5 C461.225,154.225,461.225,153.325,461.5,152.5 C461.775,151.675,461.55,151.225,461,151.5 C460.45,151.775,460.225,151.1,460.5,150 C460.775,148.9,460.1,147.1,459,146 C457.667,144.667,457.167,144.667,457.5,146 C457.775,147.1,457.55,148.675,457,149.5 C456.45,150.325,456.225,151.675,456.5,152.5 C456.775,153.325,456.55,154.9,456,156 C455.45,157.1,454.55,157.775,454,157.5 C453.45,157.225,453.675,158.125,454.5,159.5 C455.325,160.875,455.325,162.225,454.5,162.5 C453.675,162.775,452.775,163.45,452.5,164 C452.225,164.55,452.45,165.45,453,166 C453.55,166.55,453.325,166.775,452.5,166.5 C451.675,166.225,450.775,166.225,450.5,166.5 C450.225,166.775,449.775,166.775,449.5,166.5 C449.225,166.225,449.45,166.675,450,167.5 C450.55,168.325,451.45,169.225,452,169.5 C452.55,169.775,453.45,169.775,454,169.5 C454.55,169.225,454.775,169.45,454.5,170 C454.225,170.55,452.425,170.775,450.5,170.5 C448.152,170.165,447.165,170.658,447.5,172 C447.775,173.1,448.45,174.45,449,175 C449.55,175.55,449.325,176.225,448.5,176.5 C447.675,176.775,447.675,177.45,448.5,178 C449.325,178.55,450.9,179.45,452,180 C453.192,180.596,453.394,181.808,452.5,183 C451.675,184.1,450.55,184.775,450,184.5 C449.45,184.225,448.55,184.225,448,184.5 C447.45,184.775,446.775,184.775,446.5,184.5 C446.225,184.225,445.1,184.45,444,185 C442.555,185.723,442.694,186.277,444.5,187 C445.875,187.55,447.45,188.45,448,189 C448.55,189.55,449.225,189.775,449.5,189.5 C449.775,189.225,450.225,190.125,450.5,191.5 C450.775,192.875,450.1,194.225,449,194.5 C447.9,194.775,445.425,195.45,443.5,196 C441.575,196.55,439.55,196.775,439,196.5 C438.45,196.225,438.45,195.325,439,194.5 C439.55,193.675,439.55,192.775,439,192.5 C438.45,192.225,437.1,192.225,436,192.5 C434.842,192.79,434.631,192.579,435.5,192 C436.325,191.45,436.55,190.1,436,189 C435.45,187.9,434.775,186.325,434.5,185.5 C434.225,184.675,434.225,183.775,434.5,183.5 C434.775,183.225,434.55,182.775,434,182.5 C433.45,182.225,432.775,179.975,432.5,177.5 L432,173 L430.5,177.5 C429.675,179.975,428.325,182.9,427.5,184 C426.675,185.1,425.55,186.9,425,188 C424.45,189.1,424.45,191.125,425,192.5 C425.55,193.875,425.55,195.675,425,196.5 C424.45,197.325,424.675,198.9,425.5,200 C426.652,201.536,426.187,202.232,423.5,203 C421.575,203.55,420.225,203.325,420.5,202.5 C420.775,201.675,419.65,200.775,418,200.5 C415.766,200.128,415.128,200.639,415.5,202.5 C415.775,203.875,415.1,205.675,414,206.5 C412.9,207.325,412.225,207.325,412.5,206.5 C412.775,205.675,412.1,204.775,411,204.5 C409.9,204.225,409.45,203.325,410,202.5 C410.55,201.675,411.675,200.55,412.5,200 C413.369,199.421,412.527,198.579,410.5,198 C408.111,197.318,407.318,196.365,408,195 C408.55,193.9,408.55,192.325,408,191.5 C407.45,190.675,407.225,189.1,407.5,188 C407.775,186.9,407.55,185.775,407,185.5 C406.45,185.225,405.55,182.75,405,180 C404.45,177.25,403.775,174.55,403.5,174 C403.225,173.45,402.775,175.475,402.5,178.5 C402.225,181.525,401.55,185.35,401,187 C400.407,188.778,399.593,189.389,399,188.5 C398.406,187.609,397.797,188.016,397.5,189.5 C397.225,190.875,397.225,192.225,397.5,192.5 C397.775,192.775,397.775,193.225,397.5,193.5 C397.225,193.775,397.45,195.125,398,196.5 C398.567,197.917,398.35,198.567,397.5,198 C396.675,197.45,395.775,197.45,395.5,198 C395.225,198.55,396.125,200.575,397.5,202.5 L400,206 L396.5,205 C394.575,204.45,392.775,204.225,392.5,204.5 C392.225,204.775,392.9,206.125,394,207.5 C395.1,208.875,396.675,211.125,397.5,212.5 L399,215 L394.5,214.5 C392.025,214.225,389.775,213.55,389.5,213 C389.225,212.45,388.775,212.225,388.5,212.5 C388.225,212.775,388.225,212.1,388.5,211 C388.775,209.9,389.225,208.775,389.5,208.5 C389.775,208.225,389.325,207.1,388.5,206 C387.675,204.9,387.225,202.875,387.5,201.5 C387.797,200.016,387.391,199.406,386.5,200 C385.675,200.55,384.775,201.675,384.5,202.5 C384.225,203.325,384.225,205.125,384.5,206.5 C384.797,207.984,384.391,208.594,383.5,208 C382.675,207.45,382.675,207.9,383.5,209 C384.325,210.1,384.775,211.225,384.5,211.5 C384.225,211.775,384.225,212.225,384.5,212.5 C384.775,212.775,384.325,212.775,383.5,212.5 C382.675,212.225,382.45,212.9,383,214 C383.55,215.1,383.325,215.775,382.5,215.5 C381.675,215.225,381.45,215.675,382,216.5 C382.55,217.325,382.775,218.225,382.5,218.5 C382.225,218.775,382.225,220.125,382.5,221.5 C382.877,223.384,382.384,223.754,380.5,223 C378.788,222.315,378.631,221.842,380,221.5 C381.133,221.217,381.35,220.567,380.5,220 C379.675,219.45,379.225,218.55,379.5,218 C379.775,217.45,379.55,216.775,379,216.5 C378.45,216.225,378.45,214.425,379,212.5 C379.55,210.575,379.325,208.1,378.5,207 C377.675,205.9,377.225,204.325,377.5,203.5 C377.775,202.675,377.325,202.225,376.5,202.5 C375.675,202.775,375.225,202.325,375.5,201.5 C375.775,200.675,375.55,199.325,375,198.5 C374.45,197.675,373.55,195.425,373,193.5 L372,190 L371,192.5 C370.45,193.875,369.775,195.9,369.5,197 C369.225,198.1,369.225,199.225,369.5,199.5 C369.775,199.775,369.55,199.775,369,199.5 C368.45,199.225,367.775,200.35,367.5,202 C367.225,203.65,367.225,205.225,367.5,205.5 C367.775,205.775,367.325,206.45,366.5,207 C365.675,207.55,364.55,210.25,364,213 C363.45,215.75,363.225,218.9,363.5,220 C363.829,221.315,362.972,221.829,361,221.5 C359.35,221.225,357.55,220.55,357,220 C356.45,219.45,355.775,219.225,355.5,219.5 C355.225,219.775,356.125,218.875,357.5,217.5 L360,215 L355.5,216 L351,217 L354,214.5 C355.65,213.125,357.45,210.425,358,208.5 C358.55,206.575,358.55,205.225,358,205.5 C357.45,205.775,356.775,206.225,356.5,206.5 C356.225,206.775,355.775,206.775,355.5,206.5 C355.225,206.225,354.1,207.125,353,208.5 C351.9,209.875,351.45,210.325,352,209.5 C352.55,208.675,353.225,207.775,353.5,207.5 C353.775,207.225,353.775,206.325,353.5,205.5 C353.225,204.675,353.675,203.325,354.5,202.5 C355.325,201.675,355.325,200.325,354.5,199.5 C353.675,198.675,353.225,197.55,353.5,197 C353.775,196.45,353.325,195.775,352.5,195.5 C351.675,195.225,350.1,193.875,349,192.5 C347.9,191.125,346.775,190.225,346.5,190.5 C346.225,190.775,346.225,190.1,346.5,189 C346.775,187.9,346.55,186.1,346,185 C345.285,183.569,344.573,183.712,343.5,185.5 C342.675,186.875,342.225,188.675,342.5,189.5 C342.775,190.325,342.325,190.325,341.5,189.5 C340.494,188.494,340.165,188.658,340.5,190 C340.775,191.1,340.775,192.225,340.5,192.5 C340.225,192.775,340.45,193.45,341,194 C341.55,194.55,341.325,195.225,340.5,195.5 C339.675,195.775,338.775,195.325,338.5,194.5 C338.225,193.675,337.55,193.225,337,193.5 C336.45,193.775,335.775,193.775,335.5,193.5 C335.225,193.225,335.675,194.35,336.5,196 C337.325,197.65,337.55,199.45,337,200 C336.45,200.55,335.775,200.775,335.5,200.5 C335.225,200.225,334.775,200.675,334.5,201.5 C334.225,202.325,334.675,203.9,335.5,205 C336.325,206.1,336.775,207.225,336.5,207.5 C336.225,207.775,336.225,208.225,336.5,208.5 C336.775,208.775,336.1,209.225,335,209.5 C333.799,209.8,333.599,210.599,334.5,211.5 C335.325,212.325,335.775,213.225,335.5,213.5 C335.225,213.775,335.225,214.225,335.5,214.5 C335.775,214.775,335.55,214.775,335,214.5 C334.45,214.225,333.55,213.325,333,212.5 C332.45,211.675,331.775,210.775,331.5,210.5 C331.225,210.225,330.775,210.225,330.5,210.5 C330.225,210.775,330.225,209.65,330.5,208 C330.775,206.35,330.325,203.875,329.5,202.5 C328.3,200.5,327.8,200.5,327,202.5 C326.45,203.875,326.225,205.675,326.5,206.5 C326.775,207.325,326.55,208.9,326,210 C325.45,211.1,325.45,212.225,326,212.5 C326.55,212.775,326.775,213.45,326.5,214 C326.225,214.55,325.55,215.225,325,215.5 C324.45,215.775,324.675,216.45,325.5,217 C326.325,217.55,326.1,218.45,325,219 C323.9,219.55,322.775,219.55,322.5,219 C322.225,218.45,321.1,217.325,320,216.5 C318.667,215.5,318.667,214.5,320,213.5 C321.509,212.368,321.387,211.877,319.5,211.5 C318.125,211.225,317.225,210.55,317.5,210 C317.775,209.45,318.45,208.775,319,208.5 C319.55,208.225,319.775,207.55,319.5,207 C319.225,206.45,319.45,205.55,320,205 C320.55,204.45,320.325,203.775,319.5,203.5 C318.675,203.225,317.325,200.975,316.5,198.5 C315.675,196.025,314.775,193.55,314.5,193 C314.225,192.45,313.55,193.575,313,195.5 C312.45,197.425,311.325,199.675,310.5,200.5 C309.675,201.325,309.45,202.9,310,204 C310.55,205.1,310.55,206.45,310,207 C309.45,207.55,309.45,208.45,310,209 C310.55,209.55,310.1,210.675,309,211.5 C307.9,212.325,307.675,213.45,308.5,214 C309.325,214.55,309.1,215.675,308,216.5 C306.464,217.652,305.768,217.187,305,214.5 C304.45,212.575,303.775,210.1,303.5,209 C303.225,207.9,303.225,206.775,303.5,206.5 C303.775,206.225,303.775,205.775,303.5,205.5 C303.225,205.225,303.225,204.775,303.5,204.5 C303.775,204.225,303.55,203.775,303,203.5 C302.45,203.225,302.225,201.875,302.5,200.5 C302.9,198.5,302.7,198.5,301.5,200.5 C300.675,201.875,300.225,203.45,300.5,204 C300.775,204.55,300.55,205.675,300,206.5 C299.45,207.325,299.225,208.225,299.5,208.5 C299.775,208.775,299.55,209.225,299,209.5 C298.45,209.775,298.225,210.45,298.5,211 C298.775,211.55,298.775,212.225,298.5,212.5 C298.225,212.775,298.45,212.775,299,212.5 C299.55,212.225,299.775,212.9,299.5,214 C299.225,215.1,298.55,216.225,298,216.5 C297.45,216.775,296.775,217.675,296.5,218.5 C296.225,219.325,295.775,219.775,295.5,219.5 C295.225,219.225,294.775,219.675,294.5,220.5 C294.225,221.325,294.225,222.9,294.5,224 C294.775,225.1,293.875,226.225,292.5,226.5 C291.125,226.775,289.55,226.325,289,225.5 C288.45,224.675,288.9,223.775,290,223.5 C291.1,223.225,292.45,222.1,293,221 C293.55,219.9,293.1,218.1,292,217 C290.9,215.9,290.45,214.775,291,214.5 C291.55,214.225,292.675,212.875,293.5,211.5 C294.7,209.5,294.2,209.5,291,211.5 C288.8,212.875,286.55,213.55,286,213 C285.45,212.45,285.9,211.325,287,210.5 C288.1,209.675,289.225,207.65,289.5,206 C289.775,204.35,290.45,202.325,291,201.5 C291.55,200.675,289.975,201.125,287.5,202.5 L283,205 L284.5,201.5 C285.325,199.575,286.45,197.1,287,196 C287.647,194.707,287.293,194.177,286,194.5 C284.693,194.827,283.827,193.44,283.5,190.5 C283.225,188.025,282.775,186.225,282.5,186.5 C282.225,186.775,281.775,186.55,281.5,186 C281.225,185.45,280.775,185.225,280.5,185.5 C280.225,185.775,279.775,184.425,279.5,182.5 C279.225,180.575,278.55,179.675,278,180.5 C277.45,181.325,276.775,184.025,276.5,186.5 C276.225,188.975,276.225,191.225,276.5,191.5 C276.775,191.775,275.875,191.55,274.5,191 C272.514,190.205,272.103,190.616,272.5,193 C272.775,194.65,273.225,196.225,273.5,196.5 C273.775,196.775,273.1,196.55,272,196 C270.59,195.295,270.295,195.59,271,197 C271.55,198.1,271.55,198.775,271,198.5 C270.45,198.225,270.225,198.9,270.5,200 C270.775,201.1,271.225,202.45,271.5,203 C271.775,203.55,270.875,203.55,269.5,203 C268.083,202.433,267.433,202.65,268,203.5 C268.55,204.325,270.35,206.125,272,207.5 L275,210 L271.5,209.5 C269.575,209.225,267.775,208.325,267.5,207.5 C267.225,206.675,266.55,206.225,266,206.5 C265.45,206.775,265.225,206.325,265.5,205.5 C265.775,204.675,265.775,203.55,265.5,203 C265.225,202.45,265.225,201.775,265.5,201.5 C265.775,201.225,265.55,200.325,265,199.5 C264.45,198.675,264.225,197.775,264.5,197.5 C264.775,197.225,264.55,197.225,264,197.5 C263.45,197.775,262.775,198.225,262.5,198.5 C262.225,198.775,261.55,196.75,261,194 C260.236,190.179,259.764,189.59,259,191.5 C258.45,192.875,257.55,194.675,257,195.5 C256.45,196.325,255.775,197.9,255.5,199 C255.225,200.1,254.55,200.55,254,200 C253.45,199.45,253.675,200.8,254.5,203 C255.325,205.2,256.225,207.225,256.5,207.5 C256.775,207.775,255.65,207.1,254,206 L251,204 L252,207 C252.55,208.65,252.775,210.225,252.5,210.5 C252.225,210.775,252.45,211.675,253,212.5 C253.55,213.325,253.1,214.45,252,215 C250.545,215.727,250.136,215.182,250.5,213 C250.775,211.35,250.325,208.425,249.5,206.5 C248.675,204.575,247.775,202.775,247.5,202.5 C247.225,202.225,246.775,203.575,246.5,205.5 L246,209 L241,208.5 C238.25,208.225,235.55,207.325,235,206.5 C234.45,205.675,235.35,205.45,237,206 C239.211,206.737,239.474,206.606,238,205.5 C236.9,204.675,235.55,203.55,235,203 C234.45,202.45,236.025,201.775,238.5,201.5 C242.097,201.1,242.699,200.599,241.5,199 C240.675,197.9,239.55,197.225,239,197.5 C238.45,197.775,237.325,197.55,236.5,197 C235.675,196.45,234.55,195.775,234,195.5 C233.45,195.225,233.675,194.55,234.5,194 C235.325,193.45,236.45,191.875,237,190.5 C237.55,189.125,237.325,187.775,236.5,187.5 C235.675,187.225,235.225,186.325,235.5,185.5 C235.775,184.675,235.775,183.55,235.5,183 C235.225,182.45,235.675,181.55,236.5,181 C237.325,180.45,237.1,179.325,236,178.5 C234.9,177.675,233.325,175.875,232.5,174.5 C231.675,173.125,231.225,171.325,231.5,170.5 C231.775,169.675,231.55,167.875,231,166.5 C230.45,165.125,229.775,163.775,229.5,163.5 C229.225,163.225,228.325,165.475,227.5,168.5 C226.675,171.525,225.775,174.225,225.5,174.5 C225.225,174.775,225.225,175.675,225.5,176.5 C225.775,177.325,225.55,178.225,225,178.5 C224.45,178.775,223.55,179.675,223,180.5 C222.45,181.325,221.775,182.225,221.5,182.5 C221.225,182.775,221.9,183.45,223,184 C224.465,184.732,224.197,185.134,222,185.5 C220.35,185.775,219.225,186.45,219.5,187 C219.775,187.55,220.225,188.45,220.5,189 C220.775,189.55,220.55,189.775,220,189.5 C219.45,189.225,219.225,189.675,219.5,190.5 C219.775,191.325,221.125,192.675,222.5,193.5 C223.944,194.366,224.366,195.422,223.5,196 C222.675,196.55,220.425,197.225,218.5,197.5 C216.575,197.775,215.675,198.45,216.5,199 C217.325,199.55,218.9,200.675,220,201.5 C221.1,202.325,221.775,203.675,221.5,204.5 C221.225,205.325,220.1,206.225,219,206.5 C217.658,206.835,217.494,206.506,218.5,205.5 C219.325,204.675,218.425,204.675,216.5,205.5 C214.575,206.325,212.1,207.675,211,208.5 C209.9,209.325,208.1,209.55,207,209 C205.9,208.45,205.675,207.775,206.5,207.5 C207.325,207.225,208.675,206.1,209.5,205 C210.325,203.9,210.775,201.65,210.5,200 C210.225,198.35,211.125,195.2,212.5,193 L215,189 L211.5,191.5 C209.575,192.875,207.55,194.225,207,194.5 C206.45,194.775,204.875,195.675,203.5,196.5 C202.125,197.325,201.225,197.55,201.5,197 C201.775,196.45,202.675,195.55,203.5,195 C204.325,194.45,204.775,193.775,204.5,193.5 C204.225,193.225,204.45,192.325,205,191.5 C205.55,190.675,206.225,188.875,206.5,187.5 C206.775,186.125,207.45,183.875,208,182.5 L209,180 L206.5,181.5 L204,183 L203.5,179 C203.225,176.8,203.225,174.775,203.5,174.5 C203.775,174.225,203.775,173.55,203.5,173 C203.225,172.45,203.225,171.325,203.5,170.5 C203.775,169.675,203.1,169.9,202,171 L200,173 L201,168.5 L202,164 L200,167 L198,170 L196.5,165 L195,160 L193.5,163.5 C192.675,165.425,192.225,167.9,192.5,169 C192.775,170.1,193.225,171.225,193.5,171.5 C193.775,171.775,193.1,171.775,192,171.5 C190.627,171.157,190.313,172.41,191,175.5 L192,180 L190,178 C188.9,176.9,187.775,176.225,187.5,176.5 C187.225,176.775,186.325,176.55,185.5,176 C184.65,175.433,184.433,176.083,185,177.5 C185.55,178.875,185.55,180.225,185,180.5 C184.45,180.775,185.125,182.125,186.5,183.5 C187.875,184.875,188.775,186.225,188.5,186.5 C188.225,186.775,187.775,186.55,187.5,186 C187.225,185.45,185.875,184.325,184.5,183.5 L182,182 L183.5,184.5 C184.325,185.875,185.45,187.675,186,188.5 C186.567,189.35,185.917,189.567,184.5,189 L182,188 L183.5,191.5 C184.325,193.425,184.775,195.225,184.5,195.5 C184.225,195.775,184.225,196.225,184.5,196.5 C184.775,196.775,184.55,196.775,184,196.5 C183.45,196.225,182.55,194.2,182,192 C181.45,189.8,181.225,187.325,181.5,186.5 C181.775,185.675,181.325,183.875,180.5,182.5 C179.675,181.125,179.225,178.875,179.5,177.5 C179.775,176.125,179.325,173.2,178.5,171 C177.675,168.8,176.775,164.525,176.5,161.5 C176.225,158.475,175.55,156.225,175,156.5 C174.45,156.775,173.775,158.35,173.5,160 C173.225,161.65,172.775,163.225,172.5,163.5 C172.225,163.775,172.225,165.125,172.5,166.5 C172.775,167.875,172.55,170.35,172,172 C171.45,173.65,171.225,175.45,171.5,176 C171.775,176.55,171.325,176.775,170.5,176.5 C169.675,176.225,168.55,177.125,168,178.5 C167.45,179.875,166.1,181.45,165,182 C163.9,182.55,162.55,182.55,162,182 C161.45,181.45,162.125,179.875,163.5,178.5 C164.875,177.125,165.325,175.775,164.5,175.5 C163.675,175.225,162.775,175.225,162.5,175.5 C162.225,175.775,162.225,175.325,162.5,174.5 C162.775,173.675,162.1,172.325,161,171.5 C159.667,170.5,159.667,169.167,161,167.5 C162.1,166.125,162.325,165.225,161.5,165.5 C160.675,165.775,160.675,164.875,161.5,163.5 C162.325,162.125,162.325,160.325,161.5,159.5 C160.675,158.675,158.65,158.225,157,158.5 L154,159 L156.5,157 C157.875,155.9,159.225,154.1,159.5,153 C159.79,151.842,159.158,151.21,158,151.5 C156.9,151.775,155.775,152.225,155.5,152.5 C155.225,152.775,155.45,151.875,156,150.5 C156.55,149.125,156.325,147.775,155.5,147.5 C154.675,147.225,154.225,146.775,154.5,146.5 C154.775,146.225,154.1,145.775,153,145.5 C151.9,145.225,150.55,143.65,150,142 C149.45,140.35,148.55,138.55,148,138 C147.45,137.45,146.55,138.35,146,140 C145.45,141.65,145.225,143.225,145.5,143.5 C145.775,143.775,145.55,143.775,145,143.5 C144.45,143.225,143.775,142.775,143.5,142.5 C143.225,142.225,142.55,143.125,142,144.5 C141.45,145.875,141.225,147.225,141.5,147.5 C141.775,147.775,140.65,148.45,139,149 C137.35,149.55,136.45,150.45,137,151 C137.55,151.55,137.775,152.45,137.5,153 C137.225,153.55,138.35,155.125,140,156.5 C141.65,157.875,142.55,159.225,142,159.5 C141.45,159.775,140.325,159.55,139.5,159 C138.675,158.45,137.55,158.225,137,158.5 C136.45,158.775,134.875,159.675,133.5,160.5 C132.125,161.325,130.55,162.9,130,164 C129.333,165.333,128.5,165.333,127.5,164 C126.675,162.9,125.55,162.225,125,162.5 C124.45,162.775,123.55,161.875,123,160.5 C122.45,159.125,121.55,157.55,121,157 C120.45,156.45,120.9,156.225,122,156.5 C123.1,156.775,124.225,157.225,124.5,157.5 C124.775,157.775,125.225,157.325,125.5,156.5 C125.775,155.675,125.775,154.55,125.5,154 C125.225,153.45,125.45,152.55,126,152 C126.55,151.45,127.45,151.225,128,151.5 C128.55,151.775,129.225,151.55,129.5,151 C129.775,150.45,131.125,148.875,132.5,147.5 C133.875,146.125,135.225,144.55,135.5,144 C135.775,143.45,134.875,143.225,133.5,143.5 C132.125,143.775,129.875,144.9,128.5,146 C127.125,147.1,125.55,147.325,125,146.5 C124.45,145.675,124.9,144.775,126,144.5 C127.1,144.225,127.775,143.325,127.5,142.5 C127.225,141.675,126.325,140.775,125.5,140.5 C124.675,140.225,123.775,140.45,123.5,141 C123.225,141.55,122.325,140.65,121.5,139 C120.675,137.35,120.675,136.45,121.5,137 C122.325,137.55,123.225,136.875,123.5,135.5 C123.775,134.125,123.55,132.775,123,132.5 C122.45,132.225,123.125,132.225,124.5,132.5 C126.055,132.811,128.134,131.3,130,128.5 C131.65,126.025,133.225,123.55,133.5,123 C133.775,122.45,133.1,122.225,132,122.5 C130.9,122.775,129.1,123.675,128,124.5 C126.9,125.325,125.325,126.45,124.5,127 C123.675,127.55,122.55,127.775,122,127.5 C121.45,127.225,121.225,126.325,121.5,125.5 C121.775,124.675,121.55,123.55,121,123 C120.45,122.45,120.9,121.1,122,120 C123.1,118.9,123.325,117.55,122.5,117 C121.675,116.45,121.675,114.65,122.5,113 C123.325,111.35,124.225,108.2,124.5,106 C124.775,103.8,124.325,101.775,123.5,101.5 C122.675,101.225,121.325,101.9,120.5,103 C119.675,104.1,118.775,104.55,118.5,104 C118.225,103.45,118.45,102.775,119,102.5 C119.55,102.225,120.225,101.55,120.5,101 C120.775,100.45,120.55,99.325,120,98.5 C119.45,97.675,119.45,96.1,120,95 C120.55,93.9,120.775,92.775,120.5,92.5 C120.225,92.225,120.675,91.55,121.5,91 C122.389,90.407,121.778,89.593,120,89 C118.35,88.45,116.775,88.225,116.5,88.5 C116.225,88.775,115.325,87.875,114.5,86.5 C113.675,85.125,113.225,81.75,113.5,79 L114,74 L113,79 C112.45,81.75,111.55,84.225,111,84.5 C110.45,84.775,110.225,85.225,110.5,85.5 C110.775,85.775,110.55,86.225,110,86.5 C109.45,86.775,108.775,87.45,108.5,88 C108.225,88.55,108.45,90.575,109,92.5 C109.55,94.425,109.55,95.775,109,95.5 C108.45,95.225,108.225,95.45,108.5,96 C108.775,96.55,108.775,97.225,108.5,97.5 C108.225,97.775,108.225,98.225,108.5,98.5 C108.775,98.775,108.1,98.775,107,98.5 C105.9,98.225,104.55,98.45,104,99 C103.45,99.55,103.45,100.225,104,100.5 C104.55,100.775,105.45,101.675,106,102.5 C106.55,103.325,107.45,105.125,108,106.5 C108.55,107.875,109.675,110.125,110.5,111.5 C111.53,113.216,111.373,113.843,110,113.5 C108.9,113.225,107.55,112.775,107,112.5 C106.45,112.225,106.225,113.125,106.5,114.5 C106.816,116.079,106.263,116.816,105,116.5 C103.9,116.225,102.55,117.125,102,118.5 C101.45,119.875,101.45,121.45,102,122 C102.55,122.55,102.775,123.45,102.5,124 C102.225,124.55,102.9,125.9,104,127 C105.1,128.1,105.325,128.775,104.5,128.5 C103.675,128.225,102.55,127.325,102,126.5 C101.45,125.675,100.55,125.45,100,126 C99.45,126.55,98.325,126.775,97.5,126.5 C96.675,126.225,96.9,127.575,98,129.5 C99.1,131.425,100.45,133.45,101,134 C101.55,134.55,102.225,134.325,102.5,133.5 C102.775,132.675,103.675,132.225,104.5,132.5 C105.325,132.775,106.225,133.9,106.5,135 C106.775,136.1,107.225,137.45,107.5,138 C107.775,138.55,107.775,139.9,107.5,141 C107.225,142.1,107.45,143.675,108,144.5 C108.55,145.325,108.55,146.225,108,146.5 C107.45,146.775,106.775,146.55,106.5,146 C106.225,145.45,105.325,145.225,104.5,145.5 C103.675,145.775,102.55,145.55,102,145 C101.45,144.45,100.55,144.225,100,144.5 C99.45,144.775,98.325,144.775,97.5,144.5 C96.675,144.225,96.45,144.675,97,145.5 C97.55,146.325,97.325,147.225,96.5,147.5 C95.675,147.775,95.9,149.35,97,151 C98.1,152.65,99.9,154.225,101,154.5 C102.1,154.775,103.45,155.225,104,155.5 C104.55,155.775,105.225,155.775,105.5,155.5 C105.775,155.225,106.225,155.225,106.5,155.5 C106.775,155.775,107.225,155.775,107.5,155.5 C107.775,155.225,107.775,155.9,107.5,157 C107.225,158.1,107.45,159.225,108,159.5 C108.55,159.775,107.65,160.45,106,161 C104.35,161.55,102.775,162.225,102.5,162.5 C102.225,162.775,101.55,162.1,101,161 C100.45,159.9,99.55,158.55,99,158 C98.45,157.45,97.55,157.225,97,157.5 C96.45,157.775,95.325,157.1,94.5,156 C93.308,154.411,93.205,154.514,94,156.5 C94.55,157.875,94.55,158.775,94,158.5 C93.45,158.225,92.325,156.875,91.5,155.5 C90.3,153.5,89.9,153.5,89.5,155.5 C89.225,156.875,88.775,157.55,88.5,157 C88.225,156.45,88.225,155.775,88.5,155.5 C88.775,155.225,88.775,154.775,88.5,154.5 C88.225,154.225,88.675,152.65,89.5,151 C90.584,148.832,90.445,148.277,89,149 C87.667,149.667,87.667,149,89,147 C90.1,145.35,91.45,143.55,92,143 C92.55,142.45,92.775,141.55,92.5,141 C92.225,140.45,92.675,139.1,93.5,138 C94.325,136.9,94.775,135.775,94.5,135.5 C94.225,135.225,92.875,136.575,91.5,138.5 C90.125,140.425,89.225,141.1,89.5,140 C89.775,138.9,89.55,137.775,89,137.5 C88.45,137.225,87.775,137.225,87.5,137.5 C87.225,137.775,87.45,136.875,88,135.5 C88.55,134.125,88.775,132.1,88.5,131 C88.225,129.9,88.45,128.325,89,127.5 C89.55,126.675,89.775,125.775,89.5,125.5 C89.225,125.225,88.55,125.675,88,126.5 C87.406,127.391,86.797,126.984,86.5,125.5 C86.1,123.5,85.9,123.5,85.5,125.5 C85.225,126.875,84.775,127.775,84.5,127.5 C84.225,127.225,84.45,128.125,85,129.5 C85.55,130.875,85.55,131.775,85,131.5 C84.45,131.225,83.775,132.125,83.5,133.5 C83.225,134.875,81.875,138.025,80.5,140.5 C79.125,142.975,76.875,145.9,75.5,147 C74.125,148.1,72.55,149.225,72,149.5 C71.45,149.775,70.55,149.325,70,148.5 C69.45,147.675,69.45,146.1,70,145 C70.55,143.9,71.675,142.325,72.5,141.5 C73.325,140.675,73.325,140.225,72.5,140.5 C71.675,140.775,70.55,140.1,70,139 C69.45,137.9,69.45,136.325,70,135.5 C70.55,134.675,72.125,132.875,73.5,131.5 C74.875,130.125,76.225,128.775,76.5,128.5 C76.775,128.225,76.775,127.1,76.5,126 C76.225,124.9,76.9,122.65,78,121 C79.1,119.35,79.775,117.325,79.5,116.5 C79.225,115.675,79.225,114.325,79.5,113.5 C79.775,112.675,79.325,112.45,78.5,113 C77.609,113.594,76.797,112.375,76.5,110 C76.225,107.8,76.225,105.775,76.5,105.5 C76.775,105.225,75.875,106.35,74.5,108 L72,111 L73,108 C73.55,106.35,73.775,104.775,73.5,104.5 C73.225,104.225,73.225,103.325,73.5,102.5 C73.775,101.675,73.775,100.1,73.5,99 C73.225,97.9,73.225,95.875,73.5,94.5 C73.775,93.125,73.55,92.675,73,93.5 C72.45,94.325,72.225,95.45,72.5,96 C72.775,96.55,72.325,96.55,71.5,96 C70.634,95.422,70.211,96.479,70.5,98.5 C70.775,100.425,70.55,101.775,70,101.5 C69.45,101.225,69.225,101.9,69.5,103 C69.775,104.1,69.1,105.225,68,105.5 C66.9,105.775,65.775,105.325,65.5,104.5 C65.225,103.675,64.55,102.325,64,101.5 C63.45,100.675,63.225,99.55,63.5,99 C63.775,98.45,63.775,97.775,63.5,97.5 C63.225,97.225,63.45,97.225,64,97.5 C64.55,97.775,65.45,98.9,66,100 C66.552,101.104,67.224,99.537,67.5,96.5 C67.775,93.475,68.9,89.875,70,88.5 C71.1,87.125,71.775,85.55,71.5,85 C71.225,84.45,71.225,83.55,71.5,83 C71.775,82.45,71.55,82.225,71,82.5 C70.45,82.775,69.775,83.9,69.5,85 C69.225,86.1,68.325,87.9,67.5,89 C66.675,90.1,65.1,91.45,64,92 C62.824,92.588,62.412,92.382,63,91.5 C63.55,90.675,63.775,89.55,63.5,89 C63.225,88.45,63.225,86.875,63.5,85.5 C63.775,84.125,63.325,83.225,62.5,83.5 C61.675,83.775,60.775,83.1,60.5,82 C60.225,80.9,60.45,80.225,61,80.5 C61.55,80.775,61.775,81.225,61.5,81.5 C61.225,81.775,61.9,81.1,63,80 C64.1,78.9,64.55,77.775,64,77.5 C63.45,77.225,63.225,76.775,63.5,76.5 C63.775,76.225,63.325,76.45,62.5,77 C61.675,77.55,61.225,77.325,61.5,76.5 C61.775,75.675,61.775,74.1,61.5,73 C61.225,71.9,61.9,69.65,63,68 C64.1,66.35,64.775,64.775,64.5,64.5 C64.225,64.225,63.325,65.125,62.5,66.5 C61.534,68.111,61,65.265,61,58.5 C61,52.725,61.225,47.55,61.5,47 C61.775,46.45,61.55,46.675,61,47.5 C60.45,48.325,60,51.7,60,55 C60,58.3,59.775,62.35,59.5,64 C59.225,65.65,59.225,67.675,59.5,68.5 C59.775,69.325,59.55,69.775,59,69.5 C58.45,69.225,57.55,68.325,57,67.5 C56.421,66.631,56.21,66.842,56.5,68 C56.775,69.1,56.775,70.225,56.5,70.5 C56.225,70.775,56.45,70.775,57,70.5 C57.55,70.225,58.225,71.125,58.5,72.5 C58.852,74.262,58.557,74.557,57.5,73.5 C56.675,72.675,56.675,73.575,57.5,75.5 C58.325,77.425,58.325,78.775,57.5,78.5 C56.675,78.225,56.225,78.675,56.5,79.5 C56.775,80.325,57.45,82.125,58,83.5 C58.671,85.177,58.506,85.506,57.5,84.5 C56.443,83.443,56.148,83.738,56.5,85.5 C56.775,86.875,57.45,88.45,58,89 C58.55,89.55,58.325,90.225,57.5,90.5 C56.675,90.775,55.775,90.55,55.5,90 C55.225,89.45,54.775,89.45,54.5,90 C54.225,90.55,53.1,89.2,52,87 C50.9,84.8,49.55,83.225,49,83.5 C48.45,83.775,47.55,83.1,47,82 C46.45,80.9,45.775,80.225,45.5,80.5 C45.225,80.775,46.125,82.575,47.5,84.5 C48.875,86.425,50.45,88.9,51,90 C51.647,91.293,51.293,91.823,50,91.5 C48.842,91.21,48.631,91.421,49.5,92 C50.325,92.55,51.45,93.675,52,94.5 C52.55,95.325,52.775,96.225,52.5,96.5 C52.225,96.775,53.125,97.675,54.5,98.5 C55.875,99.325,56.775,100.225,56.5,100.5 C56.225,100.775,56.45,101.225,57,101.5 C57.55,101.775,58.225,102.45,58.5,103 C58.775,103.55,58.55,104.225,58,104.5 C57.45,104.775,57.225,105.675,57.5,106.5 C57.775,107.325,57.55,107.325,57,106.5 C56.45,105.675,56.225,104.325,56.5,103.5 C56.775,102.675,55.875,102.225,54.5,102.5 C53.125,102.775,52.675,103.225,53.5,103.5 C54.325,103.775,55.225,104.9,55.5,106 C55.775,107.1,55.55,108.45,55,109 C54.45,109.55,54.675,109.775,55.5,109.5 C56.325,109.225,56.775,109.9,56.5,111 C56.225,112.1,55.55,113.9,55,115 C54.383,116.233,53.617,114.892,53,111.5 C52.2,107.1,51.9,106.7,51.5,109.5 C51.225,111.425,50.775,112.55,50.5,112 C50.225,111.45,50.225,110.325,50.5,109.5 C50.775,108.675,50.55,107.325,50,106.5 C49.45,105.675,49.225,106.35,49.5,108 C49.775,109.65,49.55,111.225,49,111.5 C48.45,111.775,48.675,112.9,49.5,114 C50.325,115.1,50.775,116.225,50.5,116.5 C50.225,116.775,49.55,116.55,49,116 C48.45,115.45,48.225,116.125,48.5,117.5 C48.775,118.875,48.55,119.325,48,118.5 C47.45,117.675,46.55,115.875,46,114.5 C45.45,113.125,44.55,110.65,44,109 L43,106 L42.5,108.5 C42.225,109.875,41.775,110.55,41.5,110 C41.225,109.45,41.225,108.55,41.5,108 C41.775,107.45,41.325,106.1,40.5,105 C39.394,103.526,39.263,103.789,40,106 C40.55,107.65,40.775,109.45,40.5,110 C40.225,110.55,40.45,111.45,41,112 C41.55,112.55,41.775,113.225,41.5,113.5 C41.225,113.775,41.675,114.45,42.5,115 C43.325,115.55,43.775,116.675,43.5,117.5 C43.225,118.325,43.225,119.675,43.5,120.5 C43.775,121.325,43.55,122.225,43,122.5 C42.45,122.775,41.55,121.875,41,120.5 C40.45,119.125,39.775,118.225,39.5,118.5 C39.225,118.775,39.675,120.575,40.5,122.5 C41.325,124.425,42.45,126.675,43,127.5 C43.55,128.325,42.875,127.875,41.5,126.5 C40.125,125.125,37.425,122.875,35.5,121.5 C33.575,120.125,31.55,119.225,31,119.5 C30.45,119.775,28.65,118.65,27,117 C25.35,115.35,23.775,113.325,23.5,112.5 C23.225,111.675,23.675,110.325,24.5,109.5 C25.325,108.675,26.45,108.675,27,109.5 C27.55,110.325,28.45,110.55,29,110 C29.55,109.45,29.775,108.775,29.5,108.5 C29.225,108.225,29.45,107.775,30,107.5 C30.55,107.225,32.35,105.875,34,104.5 C35.65,103.125,37.45,101.1,38,100 C38.588,98.824,37.97,97.588,36.5,97 C35.125,96.45,33.55,96.225,33,96.5 C32.45,96.775,31.1,96.775,30,96.5 C28.9,96.225,27.1,96.225,26,96.5 C24.9,96.775,23.55,96.1,23,95 C22.45,93.9,22.45,92.55,23,92 C23.55,91.45,24.225,91.225,24.5,91.5 C24.775,91.775,25.45,90.65,26,89 C26.663,87.01,25.653,84.316,23,81 C20.076,77.345,19.807,76.538,22,78 L25,80 L24.5,77.5 C24.225,76.125,24.225,74.55,24.5,74 C24.775,73.45,23.65,72.325,22,71.5 C20.35,70.675,18.775,69.325,18.5,68.5 C18.225,67.675,18.45,67.225,19,67.5 C19.55,67.775,21.125,68.45,22.5,69 C24.331,69.732,24.732,69.465,24,68 C23.45,66.9,23.45,65.775,24,65.5 C24.55,65.225,23.425,64.775,21.5,64.5 C19.575,64.225,17.55,63.325,17,62.5 C16.45,61.675,15.55,60.55,15,60 C14.45,59.45,15.125,59.45,16.5,60 C17.875,60.55,19.225,60.325,19.5,59.5 C19.775,58.675,18.875,56.425,17.5,54.5 C16.125,52.575,15.675,50.775,16.5,50.5 C17.325,50.225,18.675,48.875,19.5,47.5 L21,45 L17.5,46 L14,47 L15.5,44.5 C16.325,43.125,16.775,41.775,16.5,41.5 C16.225,41.225,17.125,40.55,18.5,40 C20.5,39.2,20.5,38.8,18.5,38 C17.125,37.45,15.55,37.225,15,37.5 C14.45,37.775,14.45,37.1,15,36 C15.55,34.9,16.9,32.65,18,31 C19.1,29.35,19.325,27.775,18.5,27.5 C17.675,27.225,16.775,27.225,16.5,27.5 C16.225,27.775,16.9,25.525,18,22.5 C19.1,19.475,19.775,17,19.5,17 M535.5,115.5 C535.775,115.775,536.225,115.775,536.5,115.5 C536.775,115.225,537.9,115.9,539,117 C540.1,118.1,541.9,120.125,543,121.5 C544.476,123.344,544.344,124.656,542.5,126.5 C541.125,127.875,539.55,128.775,539,128.5 C538.45,128.225,537.55,126.65,537,125 C536.45,123.35,536.225,122.225,536.5,122.5 C536.775,122.775,537.45,122.1,538,121 C538.55,119.9,538.325,118.55,537.5,118 C536.675,117.45,535.775,116.55,535.5,116 C535.225,115.45,535.225,115.225,535.5,115.5 M538,132.5 C538.55,132.775,539.225,132.775,539.5,132.5 C539.775,132.225,540.675,132.45,541.5,133 C542.325,133.55,544.125,135.125,545.5,136.5 C546.875,137.875,548.45,138.775,549,138.5 C549.55,138.225,551.35,138.225,553,138.5 C554.65,138.775,555.775,139.45,555.5,140 C555.225,140.55,554.55,141.675,554,142.5 C553.45,143.325,552.325,143.775,551.5,143.5 C550.675,143.225,548.65,144.125,547,145.5 C545.35,146.875,543.1,147.775,542,147.5 C540.667,147.167,540.667,146.5,542,145.5 C543.158,144.631,543.369,143.158,542.5,142 C541.675,140.9,540.55,140.675,540,141.5 C539.409,142.386,538.386,141.568,537.5,139.5 C536.675,137.575,536.45,136.45,537,137 C537.55,137.55,538.45,137.325,539,136.5 C539.55,135.675,539.325,134.325,538.5,133.5 C537.675,132.675,537.45,132.225,538,132.5 M37,139 C37.55,139,38.675,139.9,39.5,141 C40.5,142.333,40.833,142.333,40.5,141 C40.21,139.842,40.421,139.631,41,140.5 C41.55,141.325,42.45,142.675,43,143.5 C43.55,144.325,44.9,144.775,46,144.5 C47.1,144.225,48.225,144.675,48.5,145.5 C48.775,146.325,48.775,146.775,48.5,146.5 C48.225,146.225,47.775,146.225,47.5,146.5 C47.225,146.775,46.55,146.775,46,146.5 C45.45,146.225,44.775,146.225,44.5,146.5 C44.225,146.775,43.775,146.775,43.5,146.5 C43.225,146.225,42.55,146.225,42,146.5 C41.45,146.775,39.65,146.55,38,146 C35.986,145.329,35.164,144.014,35.5,142 C35.775,140.35,36.45,139,37,139 M519,154 C519.55,154,519.775,154.675,519.5,155.5 C519.225,156.325,520.125,156.775,521.5,156.5 C522.875,156.225,523.775,156.225,523.5,156.5 C523.225,156.775,523.45,157.675,524,158.5 C524.55,159.325,524.1,160.45,523,161 C521.9,161.55,519.875,161.55,518.5,161 C517.125,160.45,516.225,159.1,516.5,158 C516.775,156.9,517.225,155.55,517.5,155 C517.775,154.45,518.45,154,519,154 M469.5,165 C469.775,165,470.45,165.675,471,166.5 C471.55,167.325,472.675,167.775,473.5,167.5 C474.325,167.225,474.55,168.125,474,169.5 C473.45,170.875,471.425,172.45,469.5,173 C467.575,173.55,466.225,173.55,466.5,173 C466.775,172.45,466.775,171.55,466.5,171 C466.225,170.45,466.675,168.875,467.5,167.5 C468.325,166.125,469.225,165,469.5,165 " fill="rgb(0, 0, 0)" stroke="none" fill-rule="evenodd"></path></svg>